<?xml version="1.0" encoding="UTF-8" standalone="no"?>
<!-- Created with Inkscape (http://www.inkscape.org/) -->

<svg
   xmlns:dc="http://purl.org/dc/elements/1.1/"
   xmlns:cc="http://creativecommons.org/ns#"
   xmlns:rdf="http://www.w3.org/1999/02/22-rdf-syntax-ns#"
   xmlns:svg="http://www.w3.org/2000/svg"
   xmlns="http://www.w3.org/2000/svg"
   version="1.1"
   width="401.97147"
   height="1033.7277"
   id="svg8227">
  <defs
     id="defs8229" />
  <metadata
     id="metadata8232">
    <rdf:RDF>
      <cc:Work
         rdf:about="">
        <dc:format>image/svg+xml</dc:format>
        <dc:type
           rdf:resource="http://purl.org/dc/dcmitype/StillImage" />
        <dc:title></dc:title>
      </cc:Work>
    </rdf:RDF>
  </metadata>
  <g
     transform="translate(-179.79989,-10.620957)"
     id="layer1">
    <g
       transform="matrix(2.1172304,0,0,2.1172304,-423.76194,-593.59941)"
       id="g8924">
      <path
         d="m 371.37486,287.52903 0,7.59375 1.3124,0.6875 0.2813,9.5 c 0.9663,2.37842 2.5005,3.8892 4.4687,5.375 l 0,1.40625 -14.3124,17.375 0.062,5.40625 c -2.9109,1.16337 -5.2507,2.9574 -5.9374,4.78125 l 0,24.65625 c 0.7075,2.47149 2.1156,4.65825 4.75,6.0625 2.0041,7.53136 5.8439,12.15193 13.75,12.375 7.906,0.22305 13.1472,-5.21177 14.0937,-11.6875 4.1917,-2.37791 4.2725,-4.03151 4.7129,-6.25 l 0,-23.96875 c -0.9268,-3.6846 -2.7233,-4.32976 -4.9316,-5.5625 l 0,-1.59375 c 2.6246,-2.48827 4.5083,-1.50468 6.5316,0.8125 l 0,35.58614 c 0,0 -13.0971,16.31637 -19.4692,24.10135 l -0.2812,12.75 -13.5625,0 -0.747,1.28839 1.7783,6.08661 c -2.5344,0.73555 -4.5511,2.98664 -4.5626,3.90625 -0.013,1.06928 -0.07,5.81188 0.063,6.75 0.1331,0.93812 0.793,2.78712 2.8437,4.1875 l 0,3.65625 c -2.1583,1.3977 -2.2582,2.24344 -2.5313,3.125 l 0.094,5.84375 0.7812,2.03125 c -3.6475,18.30775 -11.933,29.76358 -32.0312,35.03125 -20.0982,5.26767 -39.07,28.26246 -41.7188,41.25 -2.6486,12.98754 1.1104,206.13923 1.3438,213.71875 0.2333,7.57952 12.1759,30.60337 41.375,35.0625 28.3614,4.3312 49.0628,3.96128 50.25,3.9375 0.035,-7e-4 0.4375,0 0.4375,0 1.1871,0.0238 21.8886,0.3937 50.25,-3.9375 29.199,-4.45913 41.1416,-27.48298 41.375,-35.0625 0.2333,-7.57952 3.9925,-200.73121 1.3437,-213.71875 -2.6485,-12.98754 -21.6518,-35.98233 -41.75,-41.25 -20.0981,-5.26767 -28.3838,-16.7235 -32.0312,-35.03125 l 0.7812,-2.03125 0.094,-5.84375 c -0.2732,-0.88156 -0.3417,-1.7273 -2.5,-3.125 l -0.031,-3.65625 c 2.0506,-1.40038 2.7418,-3.24938 2.875,-4.1875 0.1331,-0.93812 0.076,-5.68072 0.062,-6.75 -0.01,-0.86056 -1.7614,-2.88764 -4.0624,-3.75 l 1.6377,-6.14911 -0.8877,-1.35089 -13.0313,-0.0937 0.062,-9.625 19.1875,-25.28124 -0.031,-38.21875 c -0.6714,-1.75743 -3.3295,-7.3883 -10.3488,-7.81504 -7.0192,-0.42674 -9.4631,4.16267 -9.9949,4.94004 l 0,4.3125 c -2.6084,0.71751 -5.3172,2.32562 -6.1563,5.25 l -0.094,24.71875 c 0.933,3.77596 2.8194,4.29055 4.4375,5.625 -1.5467,3.97035 -2.7324,4.5024 -5.2812,4.6875 -2.5488,0.18512 -5.0166,-1.77935 -5.4688,-5.25 3.7955,-1.89943 4.1906,-3.16308 4.9062,-5.0625 l 0.094,-25.09375 c -0.8449,-1.90099 -1.9664,-3.51903 -5,-4.75 l 0,-2.84375 14.875,-18.9375 0,-2.6875 c 2.4919,-1.0967 3.9474,-3.06377 4.6875,-5 l 0,-8.90625 1.5313,-1.34375 0,-7.875 c -8.0888,-1.75271 -12.105,-2.24574 -20.3749,-0.18755 z"
         id="path2998-82-9-8-1-7"
         style="fill:none;stroke:#000000;stroke-width:1.60000002;stroke-miterlimit:4;stroke-opacity:1;stroke-dasharray:none" />
      <path
         d="m 287.69736,710.48257 c 15.5476,22.14745 162.4906,26.36932 184.5423,-0.37881"
         id="path3182"
         style="fill:none;stroke:#000000;stroke-width:2;stroke-linecap:butt;stroke-linejoin:miter;stroke-miterlimit:4;stroke-opacity:1;stroke-dasharray:4, 2;stroke-dashoffset:0;marker-start:none" />
      <path
         d="m 287.12906,680.25888 c 47.5043,-30.29869 29.2622,-54.02931 50.5946,-53.8947 21.3324,0.13461 45.9904,54.15475 135.0209,53.8947"
         id="path4132"
         style="opacity:0.98999999;fill:none;stroke:#000000;stroke-width:2;stroke-linecap:butt;stroke-linejoin:miter;stroke-miterlimit:4;stroke-opacity:1;stroke-dasharray:4, 2;stroke-dashoffset:0" />
      <path
         d="m 286.56386,529.93184 c 77.6078,19.37847 133.698,12.81143 186.9986,0.18916"
         id="path4134"
         style="fill:none;stroke:#000000;stroke-width:2;stroke-linecap:butt;stroke-linejoin:miter;stroke-miterlimit:4;stroke-opacity:1;stroke-dasharray:4, 2;stroke-dashoffset:0" />
      <path
         d="m 358.49096,541.45636 c 17.8919,48.52147 72.979,65.596 115.068,63.03442"
         id="path4136"
         style="fill:none;stroke:#000000;stroke-width:2;stroke-linecap:butt;stroke-linejoin:miter;stroke-miterlimit:4;stroke-opacity:1;stroke-dasharray:4, 2;stroke-dashoffset:0" />
      <path
         d="m 410.4841,593.70019 c -55.8545,-19.18264 -73.15589,9.81813 -82.84219,36.66394"
         id="path4138"
         style="fill:none;stroke:#000000;stroke-width:2;stroke-linecap:butt;stroke-linejoin:miter;stroke-miterlimit:4;stroke-opacity:1;stroke-dasharray:4, 2;stroke-dashoffset:0" />
      <g
         id="text4140"
         style="font-size:40px;font-style:normal;font-variant:normal;font-weight:bold;font-stretch:normal;text-align:start;line-height:125%;letter-spacing:0px;word-spacing:0px;text-anchor:start;fill:#000000;fill-opacity:1;stroke:none;font-family:Amatic;-inkscape-font-specification:Amatic Bold">
        <path
           d="m 423.84756,581.46588 c -0.67709,0 -1.01563,-0.44271 -1.01562,-1.32812 -10e-6,-5.07812 -0.1172,-9.77864 -0.35156,-14.10157 -0.71616,-0.13019 -1.38673,-0.19529 -2.01172,-0.19531 -0.62501,2e-5 -1.1849,0.10418 -1.67969,0.3125 0,1.48439 0.11067,3.73048 0.33203,6.73828 0.22135,3.00782 0.33203,5.27995 0.33203,6.81641 0,0.26042 -0.0781,0.5013 -0.23437,0.72266 -0.15626,0.22135 -0.36459,0.33203 -0.625,0.33203 -0.72917,0.013 -1.26302,-2.27214 -1.60156,-6.85547 -0.45573,-6.21093 -0.6836,-13.72394 -0.6836,-22.53906 0,-0.48175 0.22787,-0.72263 0.6836,-0.72266 0.24739,3e-5 0.51432,0.0684 0.80078,0.20508 0.28645,0.13675 0.48828,0.28323 0.60547,0.43945 -0.0911,0.95055 -0.13673,1.95315 -0.13672,3.00781 l 0.27343,8.22266 -0.0391,1.50391 c 0,0.37762 0.026,0.72267 0.0781,1.03515 l 3.88672,-0.29297 -0.15625,-13.125 0,-1.05468 c 1.01561,3e-5 1.62108,0.45575 1.8164,1.36718 0.0911,0.44274 0.13671,1.56904 0.13672,3.37891 -1e-5,1.80992 0.12694,5.64781 0.38086,11.51367 0.2539,5.86589 0.38085,10.25717 0.38086,13.17383 -10e-6,0.35156 -0.11069,0.68034 -0.33203,0.98633 -0.22136,0.30599 -0.50131,0.45898 -0.83985,0.45898 z"
           id="path8876"
           style="font-family:Amatic;-inkscape-font-specification:Amatic Bold" />
        <path
           d="m 437.5585,568.7901 -0.35156,5.05859 0,0.17579 c -0.16928,0.74219 -0.25392,1.54297 -0.25391,2.40234 -1e-5,0.85938 -0.14975,1.68945 -0.44922,2.49023 -0.29948,0.80079 -0.75521,1.51042 -1.36718,2.12891 -0.61199,0.61849 -1.28256,0.92773 -2.01172,0.92773 -0.72917,0 -1.39324,-0.24739 -1.99219,-0.74218 -0.59896,-0.4948 -1.09375,-1.12956 -1.48437,-1.9043 -0.39063,-0.77474 -0.73568,-1.69922 -1.03516,-2.77344 -0.29948,-1.07421 -0.5306,-2.12239 -0.69336,-3.14453 -0.16276,-1.02213 -0.29623,-2.0996 -0.40039,-3.23242 -0.15625,-1.73176 -0.23112,-3.07616 -0.22461,-4.0332 0.007,-0.95702 0.003,-1.77733 -0.01,-2.46094 -0.013,-0.68358 -0.026,-1.29881 -0.0391,-1.8457 0,-0.27342 0,-0.57616 0,-0.90821 0,-0.33201 0,-0.68683 0,-1.06445 0.013,-0.76821 0.0358,-1.45831 0.0684,-2.07031 0.0325,-0.61196 0.0911,-1.27277 0.17578,-1.98243 0.0846,-0.70961 0.19206,-1.3346 0.32227,-1.875 0.13021,-0.54033 0.30599,-1.07093 0.52734,-1.59179 0.23437,-0.53383 0.49479,-0.97002 0.78125,-1.3086 0.65104,-0.75517 1.39974,-1.13278 2.2461,-1.13281 0.84634,3e-5 1.569,0.15303 2.16796,0.45899 0.59896,0.30602 1.10351,0.79755 1.51368,1.47461 0.41014,0.67711 0.76822,1.33466 1.07422,1.97265 0.30597,0.63805 0.54686,1.52672 0.72265,2.66602 0.17577,1.13934 0.31575,2.06057 0.41992,2.76367 0.10416,0.71617 0.17577,1.7383 0.21485,3.06641 0.0521,1.78387 0.0781,3.17709 0.0781,4.17968 z m -3.54492,-14.63867 c -0.26693,-0.68357 -0.59897,-1.21091 -0.99609,-1.58203 -0.39715,-0.37107 -0.79103,-0.55661 -1.18164,-0.55664 -0.39063,3e-5 -0.7129,0.13674 -0.9668,0.41015 -0.25391,0.27347 -0.46876,0.66084 -0.64453,1.16211 -0.17579,0.50133 -0.33204,1.03844 -0.46875,1.61133 -0.13672,0.57294 -0.24089,1.23375 -0.3125,1.98242 -0.0716,0.74872 -0.13347,1.42906 -0.18555,2.04102 -0.0391,0.59898 -0.0716,1.26304 -0.0977,1.99219 -0.026,1.21095 -0.0456,2.15496 -0.0586,2.83203 l 0,0.17578 c 0,1.78387 0.13672,3.70769 0.41016,5.77148 0.27343,2.06381 0.55663,3.75326 0.84961,5.06836 0.29296,1.31511 0.68684,2.43165 1.18164,3.34961 0.49478,0.91797 1.04817,1.37695 1.66015,1.37695 0.53385,0 0.98307,-0.5013 1.34766,-1.5039 0.36457,-1.01562 0.62499,-2.26562 0.78125,-3.75 0.26041,-2.65624 0.39387,-4.52148 0.40039,-5.59571 0.007,-1.0742 0.007,-1.85871 0,-2.35351 -0.007,-0.49478 -0.026,-1.21418 -0.0586,-2.1582 -0.0326,-0.944 -0.0879,-1.82941 -0.16602,-2.65625 -0.0781,-0.82681 -0.17904,-1.74152 -0.30273,-2.74414 -0.12371,-1.00259 -0.28647,-1.89451 -0.48828,-2.67579 -0.20184,-0.78122 -0.43621,-1.51364 -0.70313,-2.19726 z"
           id="path8878"
           style="font-family:Amatic;-inkscape-font-specification:Amatic Bold" />
        <path
           d="m 440.60538,579.7276 0.19531,-14.27734 c 0,-6.27602 -0.34505,-11.03513 -1.03516,-14.27735 0.41667,-0.59893 0.93099,-0.8984 1.54297,-0.89843 0.98958,3e-5 1.89127,0.22138 2.70508,0.66406 0.8138,0.44274 1.4746,1.02867 1.98242,1.75781 1.05468,1.52346 1.58202,3.26174 1.58203,5.21484 -1e-5,1.95315 -0.42318,3.72724 -1.26953,5.32227 -0.84636,1.59507 -2.08985,2.8353 -3.73047,3.7207 0,2e-5 0.10417,4.15366 0.3125,12.46094 0,1.10677 -0.44271,1.66016 -1.32812,1.66016 -0.32552,0 -0.56641,-0.13998 -0.72266,-0.41993 -0.15625,-0.27994 -0.23437,-0.58919 -0.23437,-0.92773 z m 1.875,-14.70703 c 2.03124,-1.90103 3.04687,-4.16014 3.04687,-6.77734 l 0,-0.0195 c 0,-1.49737 -0.1823,-2.54554 -0.54687,-3.14453 -0.1823,-0.28643 -0.32878,-0.51104 -0.43946,-0.67383 -0.11068,-0.16273 -0.33529,-0.38083 -0.67382,-0.65429 -0.40365,-0.3255 -1.02214,-0.78773 -1.85547,-1.38672 -1e-5,1.40628 0.0781,3.51565 0.23437,6.32812 0.15625,2.81252 0.23437,4.9219 0.23438,6.32813 z"
           id="path8880"
           style="font-family:Amatic;-inkscape-font-specification:Amatic Bold" />
        <path
           d="m 449.35538,580.39166 c 0,-0.71614 0.29948,-1.07421 0.89843,-1.07422 0.29948,10e-6 0.69336,0.10092 1.18165,0.30274 0.48827,0.20182 0.91145,0.30273 1.26953,0.30273 0.35807,0 0.74543,-0.22786 1.16211,-0.68359 0.41666,-0.45573 0.74218,-1.02213 0.97656,-1.69922 0.48176,-1.3802 0.72265,-2.62695 0.72265,-3.74023 0,-1.11328 -0.19531,-2.30794 -0.58593,-3.58399 -0.39063,-1.27603 -0.86589,-2.47394 -1.42578,-3.59375 -0.5599,-1.11977 -1.12631,-2.23957 -1.69922,-3.35937 -1.35417,-2.66925 -2.02474,-5.10415 -2.01172,-7.30469 -0.013,-2.08331 0.64453,-3.71742 1.97265,-4.90234 0.70313,-0.62497 1.52995,-0.93747 2.48047,-0.9375 0.48177,3e-5 0.95052,0.13349 1.40625,0.40039 0.45573,0.26695 0.77474,0.61526 0.95703,1.04492 l -0.68359,0.85937 c -0.66407,3e-5 -1.1849,-0.13018 -1.5625,-0.39062 -0.4948,0.0521 -0.92448,0.28648 -1.28906,0.70312 -0.66407,0.76826 -0.9961,1.71552 -0.9961,2.8418 0,1.12633 0.14323,2.22333 0.42969,3.29102 0.28646,1.06772 0.64453,2.02475 1.07422,2.87109 0.42968,0.84637 0.89192,1.76434 1.38672,2.75391 0.50781,0.98959 0.97655,1.94011 1.40625,2.85156 1.0026,2.10938 1.5039,4.38803 1.50391,6.83594 0.013,1.71875 -0.42319,3.37239 -1.3086,4.96093 -0.41667,0.75521 -0.98959,1.37696 -1.71875,1.86524 -0.72917,0.48828 -1.54297,0.73242 -2.4414,0.73242 -0.96355,0 -1.72201,-0.14323 -2.27539,-0.42969 -0.55339,-0.28646 -0.83008,-0.59245 -0.83008,-0.91797 z"
           id="path8882"
           style="font-family:Amatic;-inkscape-font-specification:Amatic Bold" />
      </g>
      <g
         id="text4140-1"
         style="font-size:40px;font-style:normal;font-variant:normal;font-weight:bold;font-stretch:normal;text-align:start;line-height:125%;letter-spacing:0px;word-spacing:0px;text-anchor:start;fill:#000000;fill-opacity:1;stroke:none;font-family:Amatic;-inkscape-font-specification:Amatic Bold">
        <path
           d="m 304.42691,563.21381 -0.0781,5.15625 0.35156,9.19921 0.33203,7.1875 c -10e-6,1.30209 -0.38412,1.95313 -1.15234,1.95313 -0.44272,0 -0.76824,-0.20833 -0.97657,-0.625 -0.20833,-0.41667 -0.3125,-0.87891 -0.3125,-1.38672 l 0.3125,-6.38672 c 0,-1.3802 -0.0912,-3.45702 -0.27343,-6.23047 -0.1823,-2.77342 -0.27345,-4.85024 -0.27344,-6.23047 l 0.0586,-3.49609 c 0,-1.91404 -0.1237,-3.15752 -0.37109,-3.73047 l -2.16797,0.21485 c -0.33854,2e-5 -0.64128,-0.10089 -0.9082,-0.30274 -0.26693,-0.20179 -0.4004,-0.46221 -0.40039,-0.78125 -10e-6,-0.31898 0.31901,-0.58916 0.95703,-0.81055 0.65104,-0.23434 1.43229,-0.40361 2.34375,-0.50781 1.60155,-0.18226 2.94921,-0.2734 4.04297,-0.27344 0.32551,4e-5 0.62173,0.10746 0.88867,0.32227 0.26692,0.21487 0.40038,0.48506 0.40039,0.81055 -10e-6,0.32555 -0.1172,0.58271 -0.35156,0.77148 -0.23439,0.18883 -0.52085,0.28323 -0.85938,0.2832 l -1.42578,-0.0781 c -0.1823,3e-5 -0.31902,0.007 -0.41016,0.0195 0.18229,1.53649 0.27343,3.17711 0.27344,4.92188 z"
           id="path8905"
           style="font-family:Amatic;-inkscape-font-specification:Amatic Bold" />
        <path
           d="m 313.64566,558.2724 -0.70312,-0.0195 c -0.26043,3e-5 -0.45248,0.0554 -0.57618,0.16601 -0.1237,0.11071 -0.18555,0.32881 -0.18554,0.6543 -10e-6,2.60419 0.16275,6.50393 0.48828,11.69922 0.32551,5.19532 0.48827,9.09506 0.48828,11.69922 l 0,1.54297 c 0.27343,-0.0391 0.54687,-0.0586 0.82031,-0.0586 1.10677,1e-5 1.66015,0.46876 1.66016,1.40625 l 0,0.23438 -0.9961,0.68359 -2.71484,0.0977 c -2.30469,0 -3.45703,-0.39714 -3.45703,-1.19141 0,-0.63802 0.40364,-0.95703 1.21094,-0.95703 l 0.83984,0.0586 c 0.39062,10e-6 0.58593,-0.31249 0.58594,-0.9375 -1e-5,-2.05728 -0.1237,-5.13996 -0.3711,-9.24804 -0.24739,-4.10806 -0.37109,-7.19074 -0.37109,-9.24805 l 0.0781,-4.08203 c -1e-5,-0.85935 -0.0326,-1.60154 -0.0977,-2.22656 -0.35157,0.11721 -0.66407,0.17581 -0.9375,0.17578 -0.625,3e-5 -0.9375,-0.31898 -0.9375,-0.95703 0,-0.32549 0.20182,-0.6087 0.60547,-0.84961 0.40364,-0.24086 0.90494,-0.41338 1.5039,-0.51758 1.11979,-0.19528 1.94987,-0.29294 2.49024,-0.29297 0.54036,3e-5 0.92773,0.10745 1.16211,0.32227 0.23437,0.21487 0.35155,0.46878 0.35156,0.76172 -1e-5,0.29299 -0.0879,0.5469 -0.26367,0.76171 -0.17579,0.21488 -0.4004,0.3223 -0.67383,0.32227 z"
           id="path8907"
           style="font-family:Amatic;-inkscape-font-specification:Amatic Bold" />
        <path
           d="m 317.82535,577.37396 -0.13672,-15.48828 c 0,-1.73174 0.0195,-3.457 0.0586,-5.17578 l 1.11328,-0.625 c 0.79427,0.0521 1.69922,2.17451 2.71485,6.36719 0.8203,3.4245 1.48437,6.50067 1.99219,9.22851 0.5078,2.72788 0.78775,4.209 0.83984,4.44336 0.18228,-0.85936 0.52082,-2.39582 1.01562,-4.60937 0.49479,-2.21353 0.86588,-3.93228 1.11329,-5.15625 0.72915,-3.58071 1.17837,-6.7643 1.34765,-9.55078 l 0,-0.23438 c 0.0521,-0.33851 0.21483,-0.61195 0.48828,-0.82031 0.27343,-0.2083 0.55989,-0.31247 0.85938,-0.3125 0.29946,3e-5 0.5436,0.10745 0.73242,0.32226 0.18879,0.21488 0.28319,0.446 0.2832,0.69336 -10e-6,3.19013 0.12043,7.96878 0.36133,14.33594 0.24087,6.3672 0.36131,11.14584 0.36133,14.33594 -2e-5,0.63802 -0.16929,1.19141 -0.50781,1.66015 -0.33856,0.46875 -0.66408,0.70313 -0.97657,0.70313 -0.65105,0 -0.97657,-0.52734 -0.97656,-1.58203 l -0.15625,-16.83594 0,-2.03125 c -0.1823,1.02867 -0.59246,2.82879 -1.23047,5.40039 -0.63803,2.57163 -1.04818,4.54103 -1.23047,5.9082 l 0,0.25391 c -0.026,0.10418 -0.0651,0.35157 -0.11718,0.74219 -0.0521,0.39063 -0.10743,0.7129 -0.16602,0.9668 -0.0586,0.25391 -0.14649,0.53711 -0.26367,0.8496 -0.24741,0.62501 -0.65756,0.93751 -1.23047,0.9375 -0.95053,1e-5 -1.42579,-1.24348 -1.42578,-3.73046 -1e-5,-2.46093 -0.59897,-5.90494 -1.79688,-10.33204 -0.59896,-2.21352 -0.98307,-3.71091 -1.15234,-4.49218 -0.0521,2.13543 -0.0781,3.74351 -0.0781,4.82422 l 0.33203,16.44531 c -1e-5,0.57292 -0.20183,1.07422 -0.60547,1.5039 -0.69011,1e-5 -1.1556,-0.22135 -1.39649,-0.66406 -0.24088,-0.4427 -0.36133,-1.04166 -0.36132,-1.79687 z"
           id="path8909"
           style="font-family:Amatic;-inkscape-font-specification:Amatic Bold" />
        <path
           d="m 338.02066,571.78802 -0.99609,-0.0391 c -0.39063,2e-5 -0.66407,0.0977 -0.82032,0.29297 l 0,12.34375 c 1.36719,-0.0781 2.10937,-0.11718 2.22657,-0.11719 1.52343,10e-6 2.28514,0.35157 2.28515,1.05469 l 0,0.13672 c -0.1823,0.36458 -0.4948,0.64453 -0.9375,0.83984 -0.44271,0.19532 -0.83334,0.30599 -1.17187,0.33203 -0.33855,0.0261 -0.77475,0.0391 -1.3086,0.0391 l -1.25,0 c -0.98958,0 -1.60156,-0.19532 -1.83593,-0.58594 -0.10417,-0.18229 -0.15626,-0.42318 -0.15625,-0.72266 l 0,-23.24218 c -10e-6,-0.45571 -0.0911,-1.13279 -0.27344,-2.03125 -0.18229,-0.89841 -0.27344,-1.58201 -0.27344,-2.05079 l 0,-0.13671 c 0.44271,-0.72914 0.77474,-1.19789 0.9961,-1.40625 l 2.96875,-0.35157 c 0.40364,3e-5 0.81054,0.12048 1.2207,0.36133 0.41015,0.24092 0.61523,0.55667 0.61523,0.94727 0,0.7943 -0.60547,1.19143 -1.8164,1.1914 l -1.15235,-0.0391 c -0.19531,3e-5 -0.33854,0.007 -0.42968,0.0195 l 0.3125,6.60156 c -1e-5,0.53388 -0.0326,1.31187 -0.0977,2.33399 -0.0651,1.02215 -0.0977,1.76759 -0.0977,2.23633 0.14323,-0.026 0.33854,-0.0716 0.58594,-0.13672 0.54687,-0.14321 0.9733,-0.21483 1.2793,-0.21485 0.30598,2e-5 0.57942,0.1107 0.82031,0.33204 0.24088,0.22137 0.36132,0.48829 0.36133,0.80078 -10e-6,0.31251 -0.0977,0.59246 -0.29297,0.83984 -0.19532,0.24741 -0.44923,0.37111 -0.76172,0.37109 z"
           id="path8911"
           style="font-family:Amatic;-inkscape-font-specification:Amatic Bold" />
      </g>
      <g
         id="text4140-11"
         style="font-size:40px;font-style:normal;font-variant:normal;font-weight:bold;font-stretch:normal;text-align:start;line-height:125%;letter-spacing:0px;word-spacing:0px;text-anchor:start;fill:#000000;fill-opacity:1;stroke:none;font-family:Amatic;-inkscape-font-specification:Amatic Bold">
        <path
           d="m 392.69217,637.43744 -0.13672,-15.48828 c 0,-1.73175 0.0195,-3.45701 0.0586,-5.17578 l 1.11329,-0.625 c 0.79426,0.0521 1.69921,2.1745 2.71484,6.36718 0.82031,3.4245 1.48437,6.50067 1.99219,9.22852 0.5078,2.72788 0.78775,4.20899 0.83984,4.44336 0.18228,-0.85936 0.52083,-2.39582 1.01563,-4.60938 0.49478,-2.21352 0.86587,-3.93227 1.11328,-5.15625 0.72915,-3.5807 1.17837,-6.76429 1.34765,-9.55078 l 0,-0.23437 c 0.0521,-0.33851 0.21483,-0.61195 0.48828,-0.82031 0.27343,-0.20831 0.55989,-0.31247 0.85938,-0.3125 0.29947,3e-5 0.54361,0.10745 0.73242,0.32226 0.18879,0.21488 0.28319,0.44599 0.2832,0.69336 -1e-5,3.19013 0.12043,7.96877 0.36133,14.33594 0.24087,6.36719 0.36132,11.14584 0.36133,14.33594 -10e-6,0.63802 -0.16928,1.1914 -0.50781,1.66015 -0.33856,0.46875 -0.66408,0.70313 -0.97656,0.70313 -0.65106,0 -0.97658,-0.52735 -0.97657,-1.58203 l -0.15625,-16.83594 0,-2.03125 c -0.1823,1.02866 -0.59246,2.82879 -1.23047,5.40039 -0.63803,2.57162 -1.04818,4.54102 -1.23046,5.9082 l 0,0.25391 c -0.0261,0.10417 -0.0651,0.35157 -0.11719,0.74219 -0.0521,0.39063 -0.10743,0.71289 -0.16602,0.96679 -0.0586,0.25391 -0.14649,0.53712 -0.26367,0.84961 -0.2474,0.62501 -0.65756,0.93751 -1.23047,0.9375 -0.95053,10e-6 -1.42579,-1.24348 -1.42578,-3.73047 -10e-6,-2.46092 -0.59896,-5.90493 -1.79687,-10.33203 -0.59897,-2.21352 -0.98308,-3.71091 -1.15235,-4.49219 -0.0521,2.13544 -0.0781,3.74351 -0.0781,4.82422 l 0.33203,16.44532 c -10e-6,0.57291 -0.20183,1.07421 -0.60547,1.5039 -0.69011,0 -1.1556,-0.22135 -1.39649,-0.66406 -0.24088,-0.44271 -0.36132,-1.04167 -0.36132,-1.79688 z"
           id="path8885"
           style="font-family:Amatic;-inkscape-font-specification:Amatic Bold" />
        <path
           d="m 417.45779,646.48041 c -0.82032,0 -1.23047,-0.34505 -1.23046,-1.03516 l 0,-5.21484 c -0.37762,-0.26041 -1.05796,-0.48177 -2.04102,-0.66406 -0.98308,-0.18229 -1.85873,-0.29948 -2.62695,-0.35157 -0.27344,0.46876 -0.49805,1.14584 -0.67383,2.03125 -0.17579,0.88542 -0.35808,1.77735 -0.54688,2.67578 -0.1888,0.89844 -0.43945,1.60808 -0.75195,2.12891 -1.04167,0 -1.6276,-0.26693 -1.75781,-0.80078 0.36458,-0.52083 0.95703,-3.18359 1.77734,-7.98828 0.82031,-4.80468 1.49414,-8.56444 2.02149,-11.2793 0.52733,-2.71482 1.097,-4.99672 1.70898,-6.8457 0.61197,-1.84893 1.19791,-2.77341 1.75781,-2.77344 0.55989,3e-5 0.98958,0.11722 1.28907,0.35156 -10e-6,0.95055 0.2604,3.52216 0.78125,7.71485 0.52082,4.19272 0.78123,6.90431 0.78125,8.13476 -2e-5,1.23048 0.13996,3.27475 0.41992,6.13281 0.27993,2.85808 0.41991,5.00326 0.41992,6.43555 -10e-6,0.89844 -0.44272,1.34766 -1.32813,1.34766 z m -1.67968,-13.05664 c -0.23439,-2.36327 -0.44598,-4.61587 -0.63477,-6.75782 -0.18881,-2.1419 -0.28321,-3.43747 -0.2832,-3.88671 -10e-6,-0.4492 0.007,-0.70636 0.0195,-0.77149 -0.41667,0.42971 -1.01889,2.81903 -1.80664,7.16797 -0.78777,4.34897 -1.20769,7.10288 -1.25977,8.26172 1.10677,0.29949 2.0345,0.44923 2.78321,0.44922 0.74869,10e-6 1.27928,-0.0391 1.59179,-0.11719 -0.0391,-0.53384 -0.17579,-1.98241 -0.41015,-4.3457 z"
           id="path8887"
           style="font-family:Amatic;-inkscape-font-specification:Amatic Bold" />
        <path
           d="m 423.70779,631.36322 0.0391,1.26953 0,0.17578 c 0.10416,2.31772 0.15624,5.79428 0.15625,10.42969 l 0,1.01563 3.04687,0 c 0.57291,0.39062 0.85937,0.76172 0.85938,1.11328 -1e-5,0.35156 -0.0977,0.64127 -0.29297,0.86914 -0.19532,0.22786 -0.39714,0.34179 -0.60547,0.34179 -0.20834,0 -0.44923,-0.0456 -0.72266,-0.13671 -0.22136,0.0521 -0.47526,0.0781 -0.76172,0.0781 l -1.28906,-0.0586 c -0.27344,0.32552 -0.61524,0.48828 -1.02539,0.48828 -0.41016,0 -0.75521,-0.12696 -1.03516,-0.38086 -0.27994,-0.25391 -0.41992,-0.55013 -0.41992,-0.88867 l 0.25391,-1.75782 c 0,-3.03384 -0.13347,-7.58137 -0.40039,-13.64257 -0.26693,-6.06118 -0.40039,-10.6087 -0.40039,-13.64258 0,-0.24737 0.0976,-0.44594 0.29297,-0.59571 0.19531,-0.1497 0.43945,-0.22457 0.73242,-0.2246 0.29296,3e-5 0.55989,0.1107 0.80078,0.33203 0.24088,0.22138 0.36132,0.49482 0.36133,0.82031 z"
           id="path8889"
           style="font-family:Amatic;-inkscape-font-specification:Amatic Bold" />
        <path
           d="m 434.68436,623.27728 -0.0781,5.15625 0.35156,9.19922 0.33204,7.1875 c -10e-6,1.30209 -0.38413,1.95313 -1.15235,1.95313 -0.44271,0 -0.76823,-0.20834 -0.97656,-0.625 -0.20834,-0.41667 -0.31251,-0.87891 -0.3125,-1.38672 l 0.3125,-6.38672 c -1e-5,-1.3802 -0.0911,-3.45702 -0.27344,-6.23047 -0.18229,-2.77342 -0.27344,-4.85024 -0.27344,-6.23047 l 0.0586,-3.49609 c -10e-6,-1.91404 -0.1237,-3.15753 -0.3711,-3.73047 l -2.16796,0.21484 c -0.33855,3e-5 -0.64128,-0.10088 -0.90821,-0.30273 -0.26693,-0.2018 -0.40039,-0.46221 -0.40039,-0.78125 0,-0.31898 0.31901,-0.58917 0.95703,-0.81055 0.65104,-0.23434 1.43229,-0.40361 2.34375,-0.50781 1.60156,-0.18226 2.94922,-0.27341 4.04297,-0.27344 0.32551,3e-5 0.62174,0.10745 0.88867,0.32227 0.26692,0.21487 0.40039,0.48505 0.40039,0.81054 0,0.32555 -0.11719,0.58271 -0.35156,0.77149 -0.23438,0.18883 -0.52084,0.28323 -0.85937,0.2832 l -1.42578,-0.0781 c -0.1823,2e-5 -0.31902,0.007 -0.41016,0.0195 0.18228,1.53648 0.27343,3.17711 0.27344,4.92187 z"
           id="path8891"
           style="font-family:Amatic;-inkscape-font-specification:Amatic Bold" />
      </g>
      <g
         id="text4140-11-7"
         style="font-size:40px;font-style:normal;font-variant:normal;font-weight:bold;font-stretch:normal;text-align:start;line-height:125%;letter-spacing:0px;word-spacing:0px;text-anchor:start;fill:#000000;fill-opacity:1;stroke:none;font-family:Amatic;-inkscape-font-specification:Amatic Bold">
        <path
           d="m 334.1564,701.86572 c -1e-5,0.40365 -0.10092,0.73568 -0.30273,0.9961 -0.20184,0.26041 -0.49806,0.39062 -0.88867,0.39062 -0.96356,0 -2.17449,-5.12369 -3.63282,-15.37109 -0.20834,-1.5104 -0.33855,-2.3828 -0.39062,-2.61719 -0.4948,3.5547 -0.8724,6.62436 -1.13281,9.20898 -0.26043,2.58465 -0.39064,5.14649 -0.39063,7.68555 -10e-6,0.28646 -0.12045,0.54362 -0.36133,0.77149 -0.24089,0.22786 -0.50456,0.34179 -0.79101,0.34179 -0.97657,0 -1.46485,-1.01562 -1.46485,-3.04687 0,-1.25 -0.55013,-5.81705 -1.65039,-13.70117 -1.10026,-7.88409 -1.80013,-12.19724 -2.09961,-12.93946 0.33854,-0.63799 0.8138,-0.957 1.42579,-0.95703 0.61197,3e-5 1.16861,1.38675 1.66992,4.16016 0.50129,2.77346 0.93098,6.13609 1.28906,10.08789 0.35807,3.95183 0.54361,5.95378 0.55664,6.00586 0.0391,-0.36458 0.17252,-1.48762 0.40039,-3.36914 0.22786,-1.8815 0.4069,-3.39517 0.53711,-4.54102 0.39062,-3.46352 0.58593,-5.92445 0.58594,-7.38281 l 0,-0.76172 c -1e-5,-0.28643 0.10741,-0.56312 0.32226,-0.83008 0.21484,-0.2669 0.45898,-0.40036 0.73243,-0.40039 0.95051,3e-5 1.42577,0.39065 1.42578,1.17188 l 0,0.60547 c -10e-6,2.57814 0.59894,6.30861 1.79687,11.1914 0.52082,2.13543 0.89192,3.84767 1.11328,5.13672 0.14322,-1.47134 0.40364,-3.60025 0.78125,-6.38672 0.8203,-6.06769 1.23046,-10.74216 1.23047,-14.02344 -10e-6,-0.5859 0.0976,-1.01234 0.29297,-1.27929 0.1953,-0.2669 0.51431,-0.40036 0.95703,-0.40039 0.44269,3e-5 0.791,0.10419 1.04492,0.3125 0.25389,0.20836 0.38085,0.47529 0.38086,0.80078 -1e-5,0.32555 -0.13673,0.62503 -0.41015,0.89844 -2e-5,3.88023 -0.50458,8.584 -1.51368,14.11132 -1.00912,5.52736 -1.51368,10.23764 -1.51367,14.13086 z"
           id="path8894"
           style="font-family:Amatic;-inkscape-font-specification:Amatic Bold" />
        <path
           d="m 348.41422,702.68604 c -0.82033,0 -1.23048,-0.34506 -1.23047,-1.03516 l 0,-5.21484 c -0.37762,-0.26041 -1.05795,-0.48177 -2.04102,-0.66407 -0.98308,-0.18228 -1.85873,-0.29947 -2.62695,-0.35156 -0.27344,0.46876 -0.49805,1.14584 -0.67383,2.03125 -0.17579,0.88542 -0.35808,1.77735 -0.54688,2.67578 -0.1888,0.89844 -0.43945,1.60808 -0.75195,2.12891 -1.04167,0 -1.6276,-0.26693 -1.75781,-0.80078 0.36458,-0.52084 0.95703,-3.18359 1.77734,-7.98828 0.82031,-4.80468 1.49414,-8.56444 2.02149,-11.2793 0.52734,-2.71482 1.097,-4.99672 1.70898,-6.8457 0.61197,-1.84893 1.19791,-2.77341 1.75781,-2.77344 0.55989,3e-5 0.98958,0.11722 1.28907,0.35156 -10e-6,0.95055 0.2604,3.52216 0.78125,7.71484 0.52082,4.19273 0.78124,6.90432 0.78125,8.13477 -10e-6,1.23048 0.13996,3.27475 0.41992,6.13281 0.27993,2.85808 0.41991,5.00326 0.41992,6.43555 -1e-5,0.89844 -0.44272,1.34766 -1.32812,1.34766 z m -1.67969,-13.05665 c -0.23439,-2.36326 -0.44597,-4.61586 -0.63477,-6.75781 -0.18881,-2.1419 -0.28321,-3.43747 -0.2832,-3.88672 -10e-6,-0.44919 0.007,-0.70635 0.0195,-0.77148 -0.41667,0.42971 -1.01889,2.81903 -1.80664,7.16797 -0.78777,4.34897 -1.20769,7.10287 -1.25977,8.26172 1.10677,0.29948 2.0345,0.44922 2.78321,0.44922 0.74869,0 1.27929,-0.0391 1.59179,-0.11719 -0.0391,-0.53385 -0.17579,-1.98241 -0.41015,-4.34571 z"
           id="path8896"
           style="font-family:Amatic;-inkscape-font-specification:Amatic Bold" />
        <path
           d="m 357.20328,679.48291 -0.0781,5.15625 0.35157,9.19922 0.33203,7.1875 c -1e-5,1.30208 -0.38412,1.95312 -1.15235,1.95312 -0.44271,0 -0.76823,-0.20833 -0.97656,-0.625 -0.20834,-0.41666 -0.3125,-0.8789 -0.3125,-1.38671 l 0.3125,-6.38672 c 0,-1.3802 -0.0912,-3.45702 -0.27344,-6.23047 -0.18229,-2.77342 -0.27344,-4.85024 -0.27343,-6.23047 l 0.0586,-3.49609 c -10e-6,-1.91404 -0.1237,-3.15753 -0.37109,-3.73047 l -2.16797,0.21484 c -0.33855,3e-5 -0.64128,-0.10088 -0.90821,-0.30273 -0.26692,-0.2018 -0.40039,-0.46222 -0.40039,-0.78125 0,-0.31899 0.31901,-0.58917 0.95703,-0.81055 0.65104,-0.23435 1.43229,-0.40362 2.34375,-0.50781 1.60156,-0.18227 2.94922,-0.27341 4.04297,-0.27344 0.32552,3e-5 0.62174,0.10745 0.88867,0.32226 0.26692,0.21488 0.40039,0.48506 0.4004,0.81055 -1e-5,0.32555 -0.1172,0.58271 -0.35157,0.77149 -0.23438,0.18883 -0.52084,0.28323 -0.85937,0.2832 L 357.34,674.5415 c -0.1823,3e-5 -0.31902,0.007 -0.41016,0.0195 0.18229,1.53648 0.27343,3.1771 0.27344,4.92187 z"
           id="path8898"
           style="font-family:Amatic;-inkscape-font-specification:Amatic Bold" />
        <path
           d="m 366.26578,688.05713 -0.9961,-0.0391 c -0.39063,1e-5 -0.66406,0.0977 -0.82031,0.29297 l 0,12.34375 c 1.36718,-0.0781 2.10937,-0.11719 2.22656,-0.11719 1.52343,0 2.28515,0.35156 2.28516,1.05469 l 0,0.13671 c -0.1823,0.36459 -0.4948,0.64454 -0.9375,0.83985 -0.44272,0.19531 -0.83334,0.30599 -1.17187,0.33203 -0.33855,0.026 -0.77475,0.0391 -1.3086,0.0391 l -1.25,0 c -0.98958,0 -1.60156,-0.19531 -1.83594,-0.58594 -0.10416,-0.18229 -0.15625,-0.42317 -0.15625,-0.72265 l 0,-23.24219 c 0,-0.4557 -0.0911,-1.13279 -0.27343,-2.03125 -0.1823,-0.89841 -0.27344,-1.582 -0.27344,-2.05078 l 0,-0.13672 c 0.44271,-0.72914 0.77474,-1.19789 0.99609,-1.40625 l 2.96875,-0.35156 c 0.40364,3e-5 0.81054,0.12047 1.22071,0.36133 0.41015,0.24091 0.61522,0.55667 0.61523,0.94726 -1e-5,0.7943 -0.60548,1.19144 -1.81641,1.19141 l -1.15234,-0.0391 c -0.19532,2e-5 -0.33855,0.007 -0.42969,0.0195 l 0.3125,6.60156 c 0,0.53387 -0.0326,1.31187 -0.0977,2.33398 -0.0651,1.02216 -0.0977,1.7676 -0.0977,2.23633 0.14323,-0.026 0.33854,-0.0716 0.58594,-0.13672 0.54687,-0.14321 0.9733,-0.21482 1.27929,-0.21484 0.30599,2e-5 0.57943,0.11069 0.82032,0.33203 0.24088,0.22137 0.36132,0.4883 0.36133,0.80078 -10e-6,0.31252 -0.0977,0.59246 -0.29297,0.83985 -0.19532,0.24741 -0.44923,0.3711 -0.76172,0.37109 z"
           id="path8900"
           style="font-family:Amatic;-inkscape-font-specification:Amatic Bold" />
        <path
           d="m 370.97281,701.53369 0.15625,-23.45703 0,-4.92187 c 0,-0.31247 0.0651,-0.53383 0.19531,-0.66407 0.13021,-0.13018 0.472,-0.19528 1.02539,-0.19531 0.55338,3e-5 1.11328,0.13349 1.67969,0.40039 0.5664,0.26696 1.04492,0.62177 1.43555,1.06445 0.37759,0.46878 0.70311,0.98962 0.97656,1.5625 0.52082,1.1068 0.78124,2.31123 0.78125,3.61329 -10e-6,1.3021 -0.32553,2.79298 -0.97656,4.47265 -0.0781,0.18231 -0.23439,0.56643 -0.46875,1.15235 -0.23438,0.58595 -0.3711,0.931 -0.41016,1.03515 0.013,1.97918 0.51432,4.5508 1.50391,7.71485 0.33853,1.06771 0.8203,2.5293 1.44531,4.38476 0.62499,1.85547 1.01561,3.0306 1.17187,3.52539 l 0,0.0977 c -10e-6,0.89844 -0.10417,1.42252 -0.3125,1.57226 -0.20834,0.14974 -0.42969,0.22461 -0.66406,0.22461 -0.4948,0 -0.97657,-0.35807 -1.44531,-1.07422 l 0,-0.13671 c -0.13022,-2.42188 -0.96355,-6.08724 -2.5,-10.9961 -0.70313,-2.23957 -1.19141,-3.89972 -1.46484,-4.98047 l 0,15.76172 c -10e-6,0.40365 -0.0716,0.71615 -0.21485,0.9375 -0.14323,0.22136 -0.40365,0.33203 -0.78125,0.33203 -0.37761,0 -0.66081,-0.10742 -0.84961,-0.32226 -0.1888,-0.21485 -0.2832,-0.47852 -0.2832,-0.79102 z m 2.20703,-27.40234 -0.21484,8.16406 c -10e-6,0.82033 0.013,1.43231 0.0391,1.83594 0.45572,-0.42967 0.90494,-0.94399 1.34766,-1.54297 l 0.625,-3.45703 c 0.039,-0.18227 0.0586,-0.3906 0.0586,-0.625 -1e-5,-0.638 -0.13021,-1.41274 -0.39063,-2.32422 -0.36458,-1.24997 -0.85287,-1.93357 -1.46484,-2.05078 z"
           id="path8902"
           style="font-family:Amatic;-inkscape-font-specification:Amatic Bold" />
      </g>
      <g
         id="text4140-11-7-1"
         style="font-size:40px;font-style:normal;font-variant:normal;font-weight:bold;font-stretch:normal;text-align:start;line-height:125%;letter-spacing:0px;word-spacing:0px;text-anchor:start;fill:#000000;fill-opacity:1;stroke:none;font-family:Amatic;-inkscape-font-specification:Amatic Bold">
        <path
           d="m 355.897,764.88739 0.19532,-7.73437 c -10e-6,-0.78125 -0.12696,-1.93684 -0.38086,-3.4668 -0.25391,-1.52994 -0.38087,-2.7604 -0.38086,-3.69141 -1e-5,-0.93097 -0.15951,-2.06378 -0.47852,-3.39844 -0.31901,-1.33461 -0.67383,-2.53578 -1.06445,-3.60351 -1.02865,-2.79946 -1.54297,-5.18878 -1.54297,-7.16797 0,-0.19528 0.11393,-0.3613 0.3418,-0.49805 0.22786,-0.13669 0.46549,-0.20504 0.71289,-0.20507 0.24739,3e-5 0.51106,0.30601 0.79101,0.91796 0.27995,0.61201 0.53711,1.39326 0.77149,2.34375 0.23437,0.95055 0.45247,1.90107 0.65429,2.85157 0.20182,0.95054 0.38737,1.87176 0.55664,2.76367 0.16927,0.89195 0.29297,1.46812 0.3711,1.72851 0.0521,-0.23435 0.11393,-0.79099 0.18555,-1.66992 0.0716,-0.87888 0.15298,-1.78057 0.24414,-2.70508 0.10416,-0.93747 0.23437,-1.87497 0.39062,-2.8125 0.35156,-2.1484 0.88216,-3.22262 1.5918,-3.22265 0.70963,3e-5 1.06444,0.14326 1.06445,0.42969 -10e-6,1.49742 -0.31902,3.73049 -0.95703,6.69921 -0.63803,2.96877 -0.95704,5.22138 -0.95703,6.75782 l -0.11719,1.38672 0,0.60546 0.21484,10.60547 0.13672,1.99219 0,0.89844 c 0,0.35156 -0.13347,0.63476 -0.40039,0.84961 -0.26693,0.21484 -0.55664,0.32226 -0.86914,0.32226 -0.3125,0 -0.56966,-0.0944 -0.77148,-0.2832 -0.20183,-0.1888 -0.30274,-0.41992 -0.30274,-0.69336 z"
           id="path8914"
           style="font-family:Amatic;-inkscape-font-specification:Amatic Bold" />
        <path
           d="m 366.30716,750.72723 -0.99609,-0.0391 c -0.39063,2e-5 -0.66407,0.0977 -0.82032,0.29297 l 0,12.34375 c 1.36719,-0.0781 2.10937,-0.11719 2.22657,-0.11719 1.52343,0 2.28514,0.35157 2.28515,1.05469 l 0,0.13672 c -0.1823,0.36458 -0.4948,0.64453 -0.9375,0.83984 -0.44271,0.19532 -0.83334,0.30599 -1.17187,0.33203 -0.33855,0.0261 -0.77475,0.0391 -1.3086,0.0391 l -1.25,0 c -0.98958,0 -1.60156,-0.19532 -1.83593,-0.58594 -0.10417,-0.18229 -0.15626,-0.42318 -0.15625,-0.72266 l 0,-23.24218 c -10e-6,-0.45571 -0.0911,-1.13279 -0.27344,-2.03125 -0.18229,-0.89842 -0.27344,-1.58201 -0.27344,-2.05079 l 0,-0.13671 c 0.44271,-0.72914 0.77474,-1.19789 0.99609,-1.40625 l 2.96875,-0.35157 c 0.40364,3e-5 0.81055,0.12048 1.22071,0.36133 0.41015,0.24092 0.61522,0.55667 0.61523,0.94727 -1e-5,0.7943 -0.60547,1.19143 -1.8164,1.1914 l -1.15235,-0.0391 c -0.19531,3e-5 -0.33854,0.007 -0.42969,0.0195 l 0.3125,6.60156 c 0,0.53388 -0.0326,1.31187 -0.0977,2.33399 -0.0651,1.02215 -0.0977,1.76759 -0.0977,2.23633 0.14323,-0.026 0.33854,-0.0716 0.58594,-0.13672 0.54687,-0.14321 0.9733,-0.21483 1.2793,-0.21485 0.30598,2e-5 0.57942,0.1107 0.82031,0.33204 0.24088,0.22137 0.36132,0.48829 0.36133,0.80078 -1e-5,0.31251 -0.0977,0.59246 -0.29297,0.83984 -0.19532,0.24741 -0.44923,0.37111 -0.76172,0.37109 z"
           id="path8916"
           style="font-family:Amatic;-inkscape-font-specification:Amatic Bold" />
        <path
           d="m 379.78372,765.35614 c -0.82032,0 -1.23048,-0.34505 -1.23047,-1.03516 l 0,-5.21484 c -0.37761,-0.26041 -1.05795,-0.48176 -2.04101,-0.66406 -0.98308,-0.18229 -1.85873,-0.29947 -2.62696,-0.35156 -0.27344,0.46875 -0.49805,1.14583 -0.67382,2.03125 -0.17579,0.88542 -0.35808,1.77734 -0.54688,2.67578 -0.1888,0.89844 -0.43945,1.60807 -0.75195,2.1289 -1.04167,0 -1.62761,-0.26692 -1.75781,-0.80078 0.36458,-0.52083 0.95703,-3.18359 1.77734,-7.98828 0.82031,-4.80467 1.49414,-8.56444 2.02148,-11.2793 0.52734,-2.71482 1.097,-4.99672 1.70899,-6.8457 0.61197,-1.84893 1.19791,-2.77341 1.75781,-2.77344 0.55989,3e-5 0.98958,0.11722 1.28906,0.35157 -10e-6,0.95054 0.26041,3.52216 0.78125,7.71484 0.52083,4.19273 0.78124,6.90431 0.78125,8.13476 -10e-6,1.23049 0.13997,3.27475 0.41993,6.13282 0.27993,2.85807 0.41991,5.00326 0.41992,6.43554 -1e-5,0.89844 -0.44272,1.34766 -1.32813,1.34766 z m -1.67969,-13.05664 c -0.23438,-2.36327 -0.44597,-4.61587 -0.63476,-6.75781 -0.18881,-2.14191 -0.28321,-3.43748 -0.2832,-3.88672 -10e-6,-0.4492 0.007,-0.70636 0.0195,-0.77149 -0.41668,0.42972 -1.01889,2.81904 -1.80664,7.16797 -0.78777,4.34897 -1.20769,7.10288 -1.25977,8.26172 1.10677,0.29949 2.0345,0.44923 2.7832,0.44922 0.74869,10e-6 1.27929,-0.039 1.5918,-0.11719 -0.0391,-0.53384 -0.17579,-1.98241 -0.41016,-4.3457 z"
           id="path8918"
           style="font-family:Amatic;-inkscape-font-specification:Amatic Bold" />
        <path
           d="m 383.04544,764.90692 c 0,-0.71614 0.29948,-1.07422 0.89844,-1.07422 0.29948,0 0.69336,0.10092 1.18164,0.30274 0.48828,0.20182 0.91145,0.30273 1.26953,0.30273 0.35807,0 0.74544,-0.22786 1.16211,-0.68359 0.41666,-0.45573 0.74218,-1.02214 0.97656,-1.69922 0.48177,-1.3802 0.72265,-2.62695 0.72266,-3.74024 -10e-6,-1.11327 -0.19532,-2.30793 -0.58594,-3.58398 -0.39063,-1.27603 -0.86589,-2.47395 -1.42578,-3.59375 -0.5599,-1.11978 -1.12631,-2.23957 -1.69922,-3.35937 -1.35417,-2.66926 -2.02474,-5.10415 -2.01172,-7.30469 -0.013,-2.08331 0.64453,-3.71742 1.97266,-4.90235 0.70312,-0.62497 1.52994,-0.93747 2.48047,-0.9375 0.48176,3e-5 0.95051,0.1335 1.40625,0.40039 0.45572,0.26696 0.77473,0.61527 0.95703,1.04493 l -0.6836,0.85937 c -0.66406,3e-5 -1.1849,-0.13018 -1.5625,-0.39062 -0.49479,0.0521 -0.92448,0.28648 -1.28906,0.70312 -0.66406,0.76826 -0.9961,1.71552 -0.99609,2.8418 -10e-6,1.12632 0.14322,2.22333 0.42969,3.29101 0.28645,1.06773 0.64452,2.02476 1.07421,2.8711 0.42969,0.84637 0.89193,1.76434 1.38672,2.7539 0.50781,0.9896 0.97656,1.94012 1.40625,2.85157 1.0026,2.10938 1.5039,4.38803 1.50391,6.83593 0.013,1.71876 -0.42319,3.3724 -1.30859,4.96094 -0.41668,0.75521 -0.98959,1.37695 -1.71875,1.86524 -0.72918,0.48828 -1.54298,0.73242 -2.44141,0.73242 -0.96355,0 -1.72201,-0.14323 -2.27539,-0.42969 -0.55339,-0.28646 -0.83008,-0.59245 -0.83008,-0.91797 z"
           id="path8920"
           style="font-family:Amatic;-inkscape-font-specification:Amatic Bold" />
        <path
           d="m 398.80716,742.15302 -0.0781,5.15625 0.35157,9.19921 0.33203,7.1875 c -1e-5,1.30209 -0.38412,1.95313 -1.15235,1.95313 -0.44271,0 -0.76823,-0.20833 -0.97656,-0.625 -0.20834,-0.41667 -0.3125,-0.87891 -0.3125,-1.38672 l 0.3125,-6.38672 c 0,-1.3802 -0.0912,-3.45702 -0.27344,-6.23047 -0.18229,-2.77342 -0.27344,-4.85024 -0.27343,-6.23047 l 0.0586,-3.49609 c 0,-1.91404 -0.1237,-3.15752 -0.37109,-3.73047 l -2.16797,0.21485 c -0.33854,2e-5 -0.64128,-0.10089 -0.9082,-0.30274 -0.26693,-0.20179 -0.4004,-0.46221 -0.4004,-0.78125 0,-0.31898 0.31901,-0.58916 0.95704,-0.81055 0.65104,-0.23434 1.43228,-0.40361 2.34375,-0.50781 1.60155,-0.18226 2.94921,-0.27341 4.04296,-0.27344 0.32552,3e-5 0.62174,0.10746 0.88868,0.32227 0.26691,0.21487 0.40038,0.48506 0.40039,0.81055 -1e-5,0.32555 -0.1172,0.58271 -0.35157,0.77148 -0.23438,0.18883 -0.52084,0.28323 -0.85937,0.2832 l -1.42578,-0.0781 c -0.1823,3e-5 -0.31902,0.007 -0.41016,0.0195 0.18229,1.53649 0.27343,3.17711 0.27344,4.92188 z"
           id="path8922"
           style="font-family:Amatic;-inkscape-font-specification:Amatic Bold" />
      </g>
      <g
         id="text4140-1-2"
         style="font-size:40px;font-style:normal;font-variant:normal;font-weight:bold;font-stretch:normal;text-align:center;line-height:84.00000334%;letter-spacing:0px;word-spacing:0px;text-anchor:middle;fill:#000000;fill-opacity:1;stroke:none;font-family:Amatic;-inkscape-font-specification:Amatic Bold">
        <path
           d="m 349.73087,500.02786 -0.13672,-15.48828 c 0,-1.73174 0.0195,-3.457 0.0586,-5.17578 l 1.11328,-0.625 c 0.79427,0.0521 1.69922,2.17451 2.71485,6.36719 0.8203,3.4245 1.48436,6.50067 1.99218,9.22851 0.50781,2.72788 0.78776,4.209 0.83985,4.44336 0.18228,-0.85936 0.52082,-2.39582 1.01562,-4.60937 0.49478,-2.21353 0.86588,-3.93228 1.11328,-5.15625 0.72916,-3.58071 1.17838,-6.7643 1.34766,-9.55078 l 0,-0.23438 c 0.0521,-0.33851 0.21483,-0.61195 0.48828,-0.82031 0.27343,-0.2083 0.55988,-0.31247 0.85938,-0.3125 0.29946,3e-5 0.5436,0.10745 0.73242,0.32226 0.18879,0.21488 0.28319,0.446 0.2832,0.69336 -1e-5,3.19013 0.12043,7.96878 0.36133,14.33594 0.24087,6.3672 0.36131,11.14584 0.36133,14.33594 -2e-5,0.63802 -0.16929,1.19141 -0.50782,1.66016 -0.33855,0.46874 -0.66407,0.70312 -0.97656,0.70312 -0.65105,0 -0.97657,-0.52734 -0.97656,-1.58203 l -0.15625,-16.83594 0,-2.03125 c -0.1823,1.02867 -0.59246,2.82879 -1.23047,5.40039 -0.63803,2.57163 -1.04819,4.54103 -1.23047,5.90821 l 0,0.2539 c -0.026,0.10418 -0.0651,0.35157 -0.11719,0.74219 -0.0521,0.39063 -0.10743,0.7129 -0.16601,0.9668 -0.0586,0.25391 -0.1465,0.53711 -0.26367,0.84961 -0.24741,0.625 -0.65756,0.9375 -1.23047,0.9375 -0.95053,0 -1.42579,-1.24349 -1.42578,-3.73047 -10e-6,-2.46093 -0.59897,-5.90494 -1.79688,-10.33203 -0.59896,-2.21353 -0.98307,-3.71092 -1.15234,-4.49219 -0.0521,2.13543 -0.0781,3.74351 -0.0781,4.82422 l 0.33203,16.44531 c 0,0.57292 -0.20182,1.07422 -0.60546,1.50391 -0.69011,0 -1.15561,-0.22136 -1.39649,-0.66407 -0.24089,-0.4427 -0.36133,-1.04166 -0.36133,-1.79687 z"
           id="path8837"
           style="line-height:84.00000334%;font-family:Amatic;-inkscape-font-specification:Amatic Bold" />
        <path
           d="m 374.49649,509.07083 c -0.82032,0 -1.23048,-0.34505 -1.23047,-1.03515 l 0,-5.21485 c -0.37761,-0.26041 -1.05795,-0.48176 -2.04101,-0.66406 -0.98308,-0.18229 -1.85873,-0.29947 -2.62696,-0.35156 -0.27344,0.46875 -0.49805,1.14584 -0.67383,2.03125 -0.17578,0.88542 -0.35807,1.77734 -0.54687,2.67578 -0.18881,0.89844 -0.43946,1.60807 -0.75195,2.1289 -1.04167,0 -1.62761,-0.26692 -1.75782,-0.80078 0.36459,-0.52083 0.95703,-3.18359 1.77735,-7.98828 0.82031,-4.80467 1.49413,-8.56443 2.02148,-11.2793 0.52734,-2.71482 1.097,-4.99671 1.70899,-6.8457 0.61197,-1.84893 1.19791,-2.77341 1.75781,-2.77344 0.55989,3e-5 0.98957,0.11722 1.28906,0.35157 -1e-5,0.95055 0.26041,3.52216 0.78125,7.71484 0.52082,4.19273 0.78124,6.90431 0.78125,8.13477 -1e-5,1.23048 0.13996,3.27475 0.41992,6.13281 0.27994,2.85808 0.41991,5.00326 0.41993,6.43555 -2e-5,0.89843 -0.44272,1.34765 -1.32813,1.34765 z m -1.67969,-13.05664 c -0.23438,-2.36327 -0.44597,-4.61587 -0.63476,-6.75781 -0.18881,-2.14191 -0.28321,-3.43748 -0.28321,-3.88672 0,-0.4492 0.007,-0.70636 0.0195,-0.77148 -0.41668,0.42971 -1.01889,2.81903 -1.80665,7.16796 -0.78776,4.34898 -1.20768,7.10288 -1.25976,8.26172 1.10676,0.29949 2.0345,0.44923 2.7832,0.44922 0.74869,10e-6 1.27929,-0.039 1.5918,-0.11719 -0.0391,-0.53384 -0.17579,-1.98241 -0.41016,-4.3457 z"
           id="path8839"
           style="line-height:84.00000334%;font-family:Amatic;-inkscape-font-specification:Amatic Bold" />
        <path
           d="m 387.26993,501.84427 -1.5625,0.15625 c -0.91147,1e-5 -1.3672,-0.3776 -1.36719,-1.13281 -10e-6,-0.65104 0.85937,-1.07421 2.57813,-1.26953 0.33853,-0.0391 0.70962,-0.0586 1.11328,-0.0586 0.40363,10e-6 0.74868,0.20834 1.03515,0.625 0.28645,0.41668 0.42968,0.97332 0.42969,1.66992 -10e-6,0.69662 0.13345,1.83269 0.40039,3.40821 0.26692,1.57552 0.40038,2.63672 0.40039,3.18359 -1e-5,0.97656 -0.32879,1.46484 -0.98633,1.46484 -0.65756,0 -1.09701,-0.27994 -1.31836,-0.83984 l 0,-0.0391 c -0.15626,0.0651 -0.44923,0.21484 -0.8789,0.44922 -0.8073,0.4427 -1.60808,0.66406 -2.40235,0.66406 -0.57292,0 -1.14584,-0.11719 -1.71875,-0.35156 -1.22396,-0.48177 -2.16146,-1.29558 -2.8125,-2.44141 -0.70312,-1.21093 -1.16536,-2.36979 -1.38671,-3.47656 -0.22136,-1.10677 -0.3711,-1.97916 -0.44922,-2.61719 -0.0912,-0.65103 -0.16276,-1.39322 -0.21485,-2.22656 -0.0651,-1.05468 -0.0976,-2.32421 -0.0976,-3.8086 l -0.0195,-2.94921 c -1e-5,-2.57811 0.0846,-4.42707 0.2539,-5.54688 0.16927,-1.11977 0.3418,-2.03774 0.51758,-2.75391 0.17578,-0.71612 0.38086,-1.35088 0.61523,-1.90429 0.23438,-0.55336 0.52083,-1.09047 0.85938,-1.61133 0.33854,-0.53383 0.72916,-0.97002 1.17187,-1.30859 0.95052,-0.75518 2.03776,-1.12953 3.26172,-1.12305 1.22395,0.007 1.83593,0.3874 1.83594,1.14258 -1e-5,0.28648 -0.10418,0.51435 -0.3125,0.68359 -0.20834,0.1693 -0.45574,0.25394 -0.74219,0.25391 l -1.15234,-0.19532 c -1.00261,0.0131 -1.79037,0.61852 -2.36328,1.81641 -0.61199,1.31513 -1.00261,2.56513 -1.17188,3.75 -0.16927,1.18492 -0.29297,2.14195 -0.37109,2.87109 -0.10417,0.71617 -0.16927,1.52997 -0.19531,2.44141 -0.0521,1.26304 -0.0716,2.52606 -0.0586,3.78906 l -0.0195,2.48047 c 0,2.55209 0.11393,4.3685 0.3418,5.44922 0.22786,1.08073 0.46549,1.94011 0.71289,2.57813 0.23437,0.65104 0.52083,1.18489 0.85937,1.60156 1.10677,0.84635 2.07682,1.32161 2.91016,1.42578 1.18489,0 2.16796,-0.5599 2.94922,-1.67969 -0.0391,-2.36979 -0.25392,-3.89322 -0.64453,-4.57031 z"
           id="path8841"
           style="line-height:84.00000334%;font-family:Amatic;-inkscape-font-specification:Amatic Bold" />
        <path
           d="m 397.11368,480.9263 -0.70313,-0.0195 c -0.26042,3e-5 -0.45248,0.0554 -0.57617,0.16601 -0.1237,0.11071 -0.18555,0.32881 -0.18555,0.6543 0,2.60419 0.16276,6.50393 0.48829,11.69922 0.32551,5.19532 0.48827,9.09506 0.48828,11.69922 l 0,1.54297 c 0.27343,-0.0391 0.54687,-0.0586 0.82031,-0.0586 1.10676,1e-5 1.66015,0.46876 1.66016,1.40625 l 0,0.23438 -0.9961,0.68359 -2.71484,0.0977 c -2.30469,0 -3.45703,-0.39714 -3.45703,-1.19141 0,-0.63802 0.40364,-0.95703 1.21093,-0.95703 l 0.83985,0.0586 c 0.39062,0 0.58593,-0.3125 0.58594,-0.9375 -10e-6,-2.05729 -0.12371,-5.13997 -0.3711,-9.24805 -0.2474,-4.10806 -0.37109,-7.19074 -0.37109,-9.24805 l 0.0781,-4.08203 c 0,-0.85935 -0.0326,-1.60154 -0.0976,-2.22656 -0.35157,0.11721 -0.66407,0.17581 -0.9375,0.17578 -0.625,3e-5 -0.9375,-0.31898 -0.9375,-0.95703 0,-0.32549 0.20182,-0.6087 0.60547,-0.84961 0.40364,-0.24086 0.90494,-0.41338 1.5039,-0.51758 1.11979,-0.19528 1.94987,-0.29294 2.49024,-0.29297 0.54035,3e-5 0.92772,0.10745 1.16211,0.32227 0.23436,0.21487 0.35155,0.46878 0.35156,0.76172 -1e-5,0.29299 -0.0879,0.5469 -0.26367,0.76171 -0.17579,0.21488 -0.4004,0.3223 -0.67383,0.32227 z"
           id="path8843"
           style="line-height:84.00000334%;font-family:Amatic;-inkscape-font-specification:Amatic Bold" />
        <path
           d="m 403.10977,489.57864 -0.35156,2.79297 0,0.95703 c 0,3.09897 0.0684,5.14975 0.20508,6.15235 0.13671,1.00261 0.27669,1.90105 0.41992,2.69531 0.14322,0.79428 0.32877,1.47136 0.55664,2.03125 0.22786,0.5599 0.49804,1.08724 0.81055,1.58203 0.62499,0.98959 1.49088,1.48438 2.59765,1.48438 0.45572,0 1.02213,-0.23763 1.69922,-0.71289 0.67708,-0.47526 1.1914,-0.71289 1.54297,-0.71289 0.35155,0 0.72916,0.20182 1.13281,0.60546 -10e-6,1.34115 -0.76173,2.29818 -2.28515,2.8711 -0.75522,0.27343 -1.57553,0.41015 -2.46094,0.41015 -0.88542,0 -1.64063,-0.17903 -2.26563,-0.53711 -0.625,-0.35807 -1.14583,-0.82031 -1.5625,-1.38671 -0.41667,-0.56641 -0.78125,-1.29232 -1.09375,-2.17774 -0.3125,-0.88541 -0.55989,-1.76432 -0.74218,-2.63672 -0.15625,-0.88541 -0.28646,-1.90103 -0.39063,-3.04687 -0.15625,-1.92707 -0.24088,-4.03645 -0.2539,-6.32813 l 0.0391,-4.78515 c 0,-1.52342 0.0911,-2.75389 0.27344,-3.69141 -0.0781,-0.42966 -0.11719,-0.84633 -0.11719,-1.25 0,-1.6406 0.61198,-2.94594 1.83594,-3.91602 1.22395,-0.97002 2.73436,-1.45504 4.53125,-1.45507 0.63801,3e-5 1.26301,0.17906 1.875,0.53711 0.61196,0.3581 0.91795,0.8301 0.91796,1.41601 -10e-6,0.28649 -0.11068,0.50784 -0.33203,0.66406 -0.22136,0.15628 -0.59571,0.23441 -1.12304,0.23438 -0.52736,3e-5 -0.88868,-0.16273 -1.08399,-0.48828 l 0,0.0195 -0.54687,0 0,-0.0977 c -1.54949,3e-5 -2.60417,0.4818 -3.16407,1.44532 -0.52083,0.88544 -0.78125,2.40887 -0.78125,4.57031 z"
           id="path8845"
           style="line-height:84.00000334%;font-family:Amatic;-inkscape-font-specification:Amatic Bold" />
        <path
           d="m 342.96524,535.3577 c 0,0 -0.007,-0.004 -0.0215,-0.0107 -0.12891,0.30794 -0.32943,0.46191 -0.60157,0.46191 -0.38672,0 -0.75553,-0.40104 -1.10644,-1.20312 -0.35092,-0.80209 -0.64095,-1.78142 -0.87012,-2.93799 -0.22917,-1.15658 -0.42969,-2.37939 -0.60156,-3.66846 -0.32943,-2.47069 -0.49414,-4.1053 -0.49414,-4.90381 0,-0.79849 0.0537,-1.62385 0.16113,-2.47607 0.10742,-0.8522 0.25602,-1.77066 0.4458,-2.75537 0.18978,-0.98469 0.44401,-1.84227 0.7627,-2.57276 0.31868,-0.73045 0.65348,-1.09568 1.00439,-1.0957 l 0.0967,0 0.38672,0.32227 c 0,0.38673 -0.11817,0.82 -0.35449,1.2998 -0.23633,0.47983 -0.37956,0.78062 -0.42969,0.90234 -0.65169,1.60419 -0.97754,3.45184 -0.97754,5.54297 0,2.09116 0.12891,4.13217 0.38672,6.12305 0.28646,2.29167 0.8164,4.14648 1.58984,5.56445 0.3151,0.58724 0.52279,1.05632 0.62305,1.40723 z"
           id="path8847"
           style="font-size:22px;line-height:100%;stroke:#000000;stroke-width:0.30000001;stroke-miterlimit:4;stroke-opacity:1;stroke-dasharray:none;font-family:Amatic;-inkscape-font-specification:Amatic Bold" />
        <path
           d="m 345.69376,530.92118 -0.0537,0.13965 c 0.0286,0.0859 0.043,0.19873 0.043,0.33837 0,0.13965 -0.068,0.26677 -0.2041,0.38135 -0.13607,0.11459 -0.3151,0.17188 -0.53711,0.17188 -0.42252,0 -0.63379,-0.46908 -0.63379,-1.40723 0,-1.39648 -0.0734,-4.03548 -0.22021,-7.91699 -0.14681,-3.8815 -0.29541,-5.93684 -0.4458,-6.16602 0.007,-0.7591 0.52636,-1.16372 1.55762,-1.21386 0.15755,-0.007 0.3706,-0.0107 0.63916,-0.0108 0.26855,2e-5 0.47981,0.0502 0.63378,0.15039 0.15397,0.10028 0.23096,0.30438 0.23096,0.61231 0,0.30796 -0.2041,0.46193 -0.6123,0.46191 l -0.53711,-0.0215 c -0.40821,10e-6 -0.61231,0.0824 -0.61231,0.24707 0,0.68035 0.0537,1.67758 0.16114,2.9917 0.10742,1.31414 0.16471,2.2863 0.17187,2.9165 0.0931,-0.0143 0.21842,-0.043 0.37598,-0.0859 0.37239,-0.10025 0.64811,-0.15038 0.82715,-0.15039 0.17903,1e-5 0.32763,0.0698 0.4458,0.20948 0.11816,0.13965 0.17724,0.29542 0.17724,0.46728 0,0.47983 -0.60872,0.71974 -1.82617,0.71973 0,0.79493 0.0698,1.98731 0.20947,3.57715 0.13965,1.58984 0.20947,2.78581 0.20948,3.58789 z"
           id="path8849"
           style="font-size:22px;line-height:100%;stroke:#000000;stroke-width:0.40000001;stroke-miterlimit:4;stroke-opacity:1;stroke-dasharray:none;font-family:Amatic;-inkscape-font-specification:Amatic Bold" />
        <path
           d="m 350.58145,523.8743 -0.54785,-0.0215 c -0.21485,10e-6 -0.36524,0.0537 -0.45117,0.16113 l 0,6.78906 c 0.75195,-0.043 1.16015,-0.0644 1.22461,-0.0644 0.83788,0 1.25683,0.19336 1.25683,0.58008 l 0,0.0752 c -0.10026,0.20052 -0.27214,0.3545 -0.51562,0.46192 -0.2435,0.10742 -0.45834,0.16829 -0.64453,0.18261 -0.1862,0.0143 -0.42611,0.0215 -0.71973,0.0215 l -0.6875,0 c -0.54427,0 -0.88086,-0.10742 -1.00977,-0.32227 -0.0573,-0.10026 -0.0859,-0.23274 -0.0859,-0.39746 l 0,-12.7832 c 0,-0.25064 -0.0501,-0.62303 -0.15039,-1.11719 -0.10026,-0.49412 -0.15039,-0.8701 -0.15039,-1.12793 l 0,-0.0752 c 0.24348,-0.40103 0.4261,-0.65884 0.54785,-0.77344 l 1.63281,-0.19336 c 0.222,2e-5 0.4458,0.0663 0.67139,0.19873 0.22558,0.1325 0.33837,0.30617 0.33838,0.521 -1e-5,0.43686 -0.33302,0.65528 -0.99903,0.65527 l -0.63379,-0.0215 c -0.10742,1e-5 -0.1862,0.004 -0.23632,0.0107 l 0.17187,3.63086 c 0,0.29363 -0.0179,0.72152 -0.0537,1.28369 -0.0358,0.56218 -0.0537,0.97218 -0.0537,1.22998 0.0788,-0.0143 0.18619,-0.0394 0.32226,-0.0752 0.30078,-0.0788 0.53532,-0.11815 0.70362,-0.11816 0.16829,10e-6 0.31868,0.0609 0.45117,0.18262 0.13248,0.12175 0.19873,0.26856 0.19873,0.44043 0,0.17188 -0.0537,0.32585 -0.16113,0.46191 -0.10743,0.13608 -0.24708,0.20411 -0.41895,0.2041 z"
           id="path8851"
           style="font-size:22px;line-height:100%;stroke:#000000;stroke-width:0.30000001;stroke-miterlimit:4;stroke-opacity:1;stroke-dasharray:none;font-family:Amatic;-inkscape-font-specification:Amatic Bold" />
        <path
           d="m 353.17032,531.28641 0.0859,-12.90137 0,-2.70703 c 0,-0.17186 0.0358,-0.2936 0.10742,-0.36523 0.0716,-0.0716 0.2596,-0.10741 0.56396,-0.10742 0.30436,10e-6 0.61231,0.0734 0.92383,0.22021 0.31152,0.14683 0.5747,0.34198 0.78955,0.58545 0.20768,0.25783 0.38672,0.54429 0.53711,0.85938 0.28646,0.60873 0.42968,1.27117 0.42969,1.9873 -10e-6,0.71616 -0.17904,1.53614 -0.53711,2.45996 -0.043,0.10027 -0.12891,0.31153 -0.25781,0.63379 -0.12891,0.32228 -0.20411,0.51205 -0.22559,0.56934 0.007,1.08855 0.28287,2.50293 0.82715,4.24316 0.18619,0.58724 0.45117,1.39112 0.79492,2.41162 0.34375,1.02051 0.55859,1.66683 0.64453,1.93897 l 0,0.0537 c 0,0.49414 -0.0573,0.78239 -0.17187,0.86474 -0.11459,0.0824 -0.23634,0.12354 -0.36524,0.12354 -0.27214,0 -0.53711,-0.19694 -0.79492,-0.59082 l 0,-0.0752 c -0.0716,-1.33203 -0.52995,-3.34798 -1.375,-6.04785 -0.38672,-1.23176 -0.65527,-2.14485 -0.80566,-2.73926 l 0,8.66895 c 0,0.222 -0.0394,0.39388 -0.11817,0.51562 -0.0788,0.12175 -0.222,0.18262 -0.42968,0.18262 -0.20769,0 -0.36345,-0.0591 -0.46729,-0.17725 -0.10384,-0.11816 -0.15576,-0.26318 -0.15576,-0.43505 z m 1.21387,-15.07129 -0.11817,4.49024 c 0,0.45118 0.007,0.78777 0.0215,1.00976 0.25064,-0.23632 0.49772,-0.51919 0.74121,-0.84863 l 0.34375,-1.90137 c 0.0215,-0.10025 0.0322,-0.21483 0.0322,-0.34375 0,-0.3509 -0.0716,-0.777 -0.21484,-1.27832 -0.20052,-0.68748 -0.46908,-1.06346 -0.80566,-1.12793 z"
           id="path8853"
           style="font-size:22px;line-height:100%;stroke:#000000;stroke-width:0.30000001;stroke-miterlimit:4;stroke-opacity:1;stroke-dasharray:none;font-family:Amatic;-inkscape-font-specification:Amatic Bold" />
        <path
           d="m 359.11075,526.94657 -0.0752,-8.51856 c 0,-0.95246 0.0107,-1.90135 0.0322,-2.84668 l 0.6123,-0.34375 c 0.43685,0.0287 0.93457,1.19598 1.49317,3.50196 0.45117,1.88347 0.8164,3.57536 1.0957,5.07568 0.27929,1.50033 0.43327,2.31495 0.46192,2.44385 0.10025,-0.47265 0.28645,-1.3177 0.55859,-2.53516 0.27213,-1.21744 0.47623,-2.16275 0.6123,-2.83594 0.40104,-1.96938 0.64811,-3.72036 0.74121,-5.25293 l 0,-0.1289 c 0.0286,-0.18618 0.11816,-0.33657 0.26856,-0.45117 0.15038,-0.11457 0.30794,-0.17186 0.47266,-0.17188 0.1647,2e-5 0.29898,0.0591 0.40283,0.17725 0.10383,0.11818 0.15575,0.24529 0.15576,0.38134 -10e-6,1.75458 0.0662,4.38283 0.19873,7.88477 0.13248,3.50196 0.19872,6.13021 0.19873,7.88477 -1e-5,0.35091 -0.0931,0.65527 -0.2793,0.91308 -0.1862,0.25781 -0.36524,0.38672 -0.53711,0.38672 -0.35808,0 -0.53711,-0.29004 -0.53711,-0.87012 l -0.0859,-9.25976 0,-1.11719 c -0.10027,0.56577 -0.32586,1.55584 -0.67676,2.97022 -0.35092,1.41439 -0.5765,2.49756 -0.67676,3.24951 l 0,0.13965 c -0.0143,0.0573 -0.0358,0.19336 -0.0645,0.4082 -0.0287,0.21485 -0.0591,0.39209 -0.0913,0.53174 -0.0322,0.13965 -0.0806,0.29541 -0.14502,0.46728 -0.13607,0.34375 -0.36166,0.51563 -0.67676,0.51563 -0.52279,0 -0.78418,-0.68392 -0.78418,-2.05176 0,-1.35351 -0.32943,-3.24771 -0.98828,-5.68262 -0.32943,-1.21743 -0.54069,-2.041 -0.63379,-2.4707 -0.0286,1.17449 -0.043,2.05893 -0.043,2.65332 l 0.18262,9.04492 c 0,0.31511 -0.111,0.59082 -0.33301,0.82715 -0.37956,0 -0.63558,-0.12175 -0.76806,-0.36524 -0.13249,-0.24348 -0.19873,-0.57291 -0.19873,-0.98828 z"
           id="path8855"
           style="font-size:22px;line-height:100%;stroke:#000000;stroke-width:0.30000001;stroke-miterlimit:4;stroke-opacity:1;stroke-dasharray:none;font-family:Amatic;-inkscape-font-specification:Amatic Bold" />
        <path
           d="m 370.21817,523.8743 -0.54785,-0.0215 c -0.21485,10e-6 -0.36524,0.0537 -0.45117,0.16113 l 0,6.78906 c 0.75195,-0.043 1.16015,-0.0644 1.22461,-0.0644 0.83788,0 1.25683,0.19336 1.25683,0.58008 l 0,0.0752 c -0.10026,0.20052 -0.27214,0.3545 -0.51562,0.46192 -0.2435,0.10742 -0.45834,0.16829 -0.64453,0.18261 -0.18621,0.0143 -0.42611,0.0215 -0.71973,0.0215 l -0.6875,0 c -0.54427,0 -0.88086,-0.10742 -1.00977,-0.32227 -0.0573,-0.10026 -0.0859,-0.23274 -0.0859,-0.39746 l 0,-12.7832 c 0,-0.25064 -0.0501,-0.62303 -0.15039,-1.11719 -0.10027,-0.49412 -0.1504,-0.8701 -0.1504,-1.12793 l 0,-0.0752 c 0.24349,-0.40103 0.42611,-0.65884 0.54786,-0.77344 l 1.63281,-0.19336 c 0.222,2e-5 0.4458,0.0663 0.67139,0.19873 0.22558,0.1325 0.33837,0.30617 0.33837,0.521 0,0.43686 -0.33301,0.65528 -0.99902,0.65527 l -0.63379,-0.0215 c -0.10742,1e-5 -0.1862,0.004 -0.23633,0.0107 l 0.17188,3.63086 c 0,0.29363 -0.0179,0.72152 -0.0537,1.28369 -0.0358,0.56218 -0.0537,0.97218 -0.0537,1.22998 0.0788,-0.0143 0.18619,-0.0394 0.32226,-0.0752 0.30078,-0.0788 0.53532,-0.11815 0.70362,-0.11816 0.16829,10e-6 0.31868,0.0609 0.45117,0.18262 0.13248,0.12175 0.19872,0.26856 0.19873,0.44043 -10e-6,0.17188 -0.0537,0.32585 -0.16113,0.46191 -0.10743,0.13608 -0.24708,0.20411 -0.41895,0.2041 z"
           id="path8857"
           style="font-size:22px;line-height:100%;stroke:#000000;stroke-width:0.30000001;stroke-miterlimit:4;stroke-opacity:1;stroke-dasharray:none;font-family:Amatic;-inkscape-font-specification:Amatic Bold" />
        <path
           d="m 372.68887,520.40458 0.15039,-4.03907 0,-0.13965 c 0,-0.73045 0.16114,-1.09568 0.4834,-1.0957 0.29362,2e-5 0.6875,0.68036 1.18164,2.04102 0.90234,2.47071 1.98372,6.54916 3.24414,12.23535 l 0.0215,0.10742 0.0859,-7.66992 0,-6.50977 c 0.0859,-0.36521 0.32584,-0.54783 0.71972,-0.54785 0.39388,2e-5 0.59082,0.28648 0.59082,0.85938 l 0,0.1289 c -0.0859,0.17905 -0.12891,0.3939 -0.1289,0.64453 l -0.13965,8.13184 0,6.72461 c -10e-6,0.222 -0.0609,0.44043 -0.18262,0.65527 -0.12175,0.21485 -0.27214,0.32227 -0.45117,0.32227 -0.30795,0 -0.90951,-1.50928 -1.80469,-4.52783 -0.89518,-3.01855 -1.77962,-6.26448 -2.65332,-9.7378 l 0,7.21875 c 0,0.70183 0.0519,1.7474 0.15576,3.13672 0.10384,1.38933 0.15576,2.4349 0.15576,3.13672 0,0.13607 -0.0823,0.24886 -0.24707,0.33838 -0.16471,0.0895 -0.37418,0.13428 -0.62841,0.13428 -0.25424,0 -0.38135,-0.11459 -0.38135,-0.34375 l 0.10742,-1.5791 c 0,-0.75912 -0.0465,-1.99089 -0.13965,-3.69532 -0.0931,-1.70442 -0.13965,-2.74641 -0.13965,-3.12597 z"
           id="path8859"
           style="font-size:22px;line-height:100%;stroke:#000000;stroke-width:0.30000001;stroke-miterlimit:4;stroke-opacity:1;stroke-dasharray:none;font-family:Amatic;-inkscape-font-specification:Amatic Bold" />
        <path
           d="m 383.32364,519.15848 -0.043,2.83594 0.19336,5.05957 0.18262,3.95312 c -10e-6,0.71615 -0.21127,1.07422 -0.63379,1.07422 -0.24349,0 -0.42253,-0.11458 -0.53711,-0.34375 -0.11459,-0.22916 -0.17188,-0.48339 -0.17188,-0.76269 l 0.17188,-3.5127 c 0,-0.75911 -0.0501,-1.90136 -0.15039,-3.42676 -0.10027,-1.52538 -0.1504,-2.66763 -0.15039,-3.42675 l 0.0322,-1.92285 c 0,-1.05272 -0.068,-1.73664 -0.2041,-2.05176 l -1.19238,0.11816 c -0.1862,2e-5 -0.3527,-0.0555 -0.49951,-0.1665 -0.14681,-0.11099 -0.22022,-0.25422 -0.22022,-0.42969 0,-0.17544 0.17546,-0.32404 0.52637,-0.4458 0.35807,-0.12889 0.78776,-0.22199 1.28906,-0.2793 0.88086,-0.10024 1.62207,-0.15037 2.22364,-0.15039 0.17903,2e-5 0.34195,0.0591 0.48876,0.17725 0.14681,0.11818 0.22021,0.26678 0.22022,0.4458 -10e-6,0.17905 -0.0645,0.32049 -0.19336,0.42432 -0.12891,0.10385 -0.28646,0.15577 -0.47266,0.15576 l -0.78418,-0.043 c -0.10026,10e-6 -0.17545,0.004 -0.22558,0.0107 0.10026,0.84507 0.15039,1.74741 0.15039,2.70703 z"
           id="path8861"
           style="font-size:22px;line-height:100%;stroke:#000000;stroke-width:0.30000001;stroke-miterlimit:4;stroke-opacity:1;stroke-dasharray:none;font-family:Amatic;-inkscape-font-specification:Amatic Bold" />
        <path
           d="m 390.82169,531.9202 c -0.45118,0 -0.67677,-0.18978 -0.67676,-0.56934 l 0,-2.86816 c -0.20769,-0.14323 -0.58187,-0.26497 -1.12256,-0.36523 -0.54069,-0.10026 -1.0223,-0.16471 -1.44482,-0.19336 -0.1504,0.25781 -0.27393,0.63021 -0.37061,1.11718 -0.0967,0.48699 -0.19694,0.97754 -0.30078,1.47168 -0.10384,0.49415 -0.2417,0.88444 -0.41358,1.1709 -0.57291,0 -0.89518,-0.14681 -0.96679,-0.44043 0.20052,-0.28646 0.52636,-1.75097 0.97754,-4.39355 0.45117,-2.64257 0.82177,-4.71044 1.11181,-6.20362 0.29004,-1.49315 0.60335,-2.74819 0.93994,-3.76513 0.33659,-1.01691 0.65885,-1.52538 0.9668,-1.52539 0.30794,1e-5 0.54427,0.0645 0.70899,0.19336 -10e-6,0.5228 0.14322,1.93719 0.42968,4.24316 0.28646,2.306 0.42968,3.79737 0.42969,4.47412 -10e-6,0.67677 0.077,1.80111 0.23096,3.37305 0.15396,1.57194 0.23095,2.75179 0.23095,3.53955 0,0.49414 -0.24349,0.74121 -0.73046,0.74121 z m -0.92383,-7.18115 c -0.12891,-1.2998 -0.24529,-2.53873 -0.34912,-3.7168 -0.10385,-1.17805 -0.15577,-1.89061 -0.15577,-2.13769 0,-0.24706 0.004,-0.3885 0.0108,-0.42432 -0.22917,0.23634 -0.56039,1.55047 -0.99366,3.94238 -0.43327,2.39194 -0.66422,3.90658 -0.69287,4.54395 0.60872,0.16472 1.11898,0.24707 1.53077,0.24707 0.41177,0 0.7036,-0.0215 0.87548,-0.0645 -0.0215,-0.29361 -0.0967,-1.09032 -0.22558,-2.39013 z"
           id="path8863"
           style="font-size:22px;line-height:100%;stroke:#000000;stroke-width:0.30000001;stroke-miterlimit:4;stroke-opacity:1;stroke-dasharray:none;font-family:Amatic;-inkscape-font-specification:Amatic Bold" />
        <path
           d="m 395.65567,519.15848 -0.043,2.83594 0.19336,5.05957 0.18262,3.95312 c -1e-5,0.71615 -0.21127,1.07422 -0.63379,1.07422 -0.24349,0 -0.42253,-0.11458 -0.53711,-0.34375 -0.11459,-0.22916 -0.17188,-0.48339 -0.17188,-0.76269 l 0.17188,-3.5127 c 0,-0.75911 -0.0501,-1.90136 -0.15039,-3.42676 -0.10026,-1.52538 -0.15039,-2.66763 -0.15039,-3.42675 l 0.0322,-1.92285 c 0,-1.05272 -0.068,-1.73664 -0.2041,-2.05176 l -1.19238,0.11816 c -0.1862,2e-5 -0.3527,-0.0555 -0.49951,-0.1665 -0.14681,-0.11099 -0.22022,-0.25422 -0.22022,-0.42969 0,-0.17544 0.17546,-0.32404 0.52637,-0.4458 0.35807,-0.12889 0.78776,-0.22199 1.28906,-0.2793 0.88086,-0.10024 1.62207,-0.15037 2.22364,-0.15039 0.17903,2e-5 0.34195,0.0591 0.48877,0.17725 0.1468,0.11818 0.22021,0.26678 0.22021,0.4458 0,0.17905 -0.0645,0.32049 -0.19336,0.42432 -0.12891,0.10385 -0.28646,0.15577 -0.47265,0.15576 l -0.78418,-0.043 c -0.10027,10e-6 -0.17546,0.004 -0.22559,0.0107 0.10026,0.84507 0.15039,1.74741 0.15039,2.70703 z"
           id="path8865"
           style="font-size:22px;line-height:100%;stroke:#000000;stroke-width:0.30000001;stroke-miterlimit:4;stroke-opacity:1;stroke-dasharray:none;font-family:Amatic;-inkscape-font-specification:Amatic Bold" />
        <path
           d="m 400.72598,516.44071 -0.38672,-0.0107 c -0.14323,10e-6 -0.24886,0.0304 -0.31689,0.0913 -0.068,0.0609 -0.10205,0.18085 -0.10205,0.35987 0,1.4323 0.0895,3.57716 0.26855,6.43457 0.17904,2.85743 0.26856,5.00228 0.26856,6.43457 l 0,0.84863 c 0.15039,-0.0215 0.30078,-0.0322 0.45117,-0.0322 0.60872,1e-5 0.91308,0.25782 0.91309,0.77344 l 0,0.12891 -0.54786,0.37597 -1.49316,0.0537 c -1.26758,0 -1.90137,-0.21843 -1.90137,-0.65528 0,-0.35091 0.22201,-0.52636 0.66602,-0.52636 l 0.46191,0.0322 c 0.21484,0 0.32227,-0.17187 0.32227,-0.51562 0,-1.13151 -0.068,-2.82698 -0.2041,-5.08643 -0.13607,-2.25943 -0.20411,-3.9549 -0.2041,-5.08642 l 0.043,-2.24512 c 0,-0.47264 -0.0179,-0.88085 -0.0537,-1.22461 -0.19336,0.0645 -0.36523,0.0967 -0.51562,0.0967 -0.34375,1e-5 -0.51563,-0.17544 -0.51563,-0.52637 0,-0.17902 0.11101,-0.33478 0.33301,-0.46728 0.22201,-0.13247 0.49772,-0.22736 0.82715,-0.28467 0.61588,-0.10741 1.07242,-0.16112 1.36963,-0.16113 0.2972,10e-6 0.51025,0.0591 0.63916,0.17724 0.1289,0.11818 0.19335,0.25783 0.19336,0.41895 -1e-5,0.16115 -0.0483,0.30079 -0.14502,0.41894 -0.0967,0.11818 -0.22022,0.17726 -0.37061,0.17725 z"
           id="path8867"
           style="font-size:22px;line-height:100%;stroke:#000000;stroke-width:0.30000001;stroke-miterlimit:4;stroke-opacity:1;stroke-dasharray:none;font-family:Amatic;-inkscape-font-specification:Amatic Bold" />
        <path
           d="m 408.38516,525.29227 -0.19336,2.78223 0,0.0967 c -0.0931,0.4082 -0.13965,0.84863 -0.13965,1.32129 0,0.47265 -0.0824,0.9292 -0.24707,1.36962 -0.16471,0.44044 -0.41537,0.83073 -0.75195,1.1709 -0.33659,0.34017 -0.70541,0.51026 -1.10644,0.51026 -0.40105,0 -0.76628,-0.13607 -1.09571,-0.40821 -0.32943,-0.27213 -0.60156,-0.62125 -0.8164,-1.04736 -0.21485,-0.4261 -0.40463,-0.93457 -0.56934,-1.52539 -0.16471,-0.59082 -0.29183,-1.16731 -0.38135,-1.72949 -0.0895,-0.56217 -0.16292,-1.15478 -0.22021,-1.77783 -0.0859,-0.95247 -0.12712,-1.69189 -0.12354,-2.21827 0.004,-0.52635 0.002,-0.97753 -0.005,-1.35351 -0.007,-0.37597 -0.0143,-0.71435 -0.0215,-1.01514 0,-0.15038 0,-0.31688 0,-0.49951 0,-0.18261 0,-0.37776 0,-0.58545 0.007,-0.42251 0.0197,-0.80207 0.0376,-1.13867 0.0179,-0.33658 0.0501,-0.70002 0.0967,-1.09033 0.0466,-0.39029 0.10564,-0.73404 0.17725,-1.03125 0.0716,-0.29719 0.16829,-0.58902 0.29004,-0.87549 0.1289,-0.29361 0.27213,-0.53351 0.42969,-0.71973 0.35807,-0.41535 0.76985,-0.62303 1.23535,-0.62304 0.46549,1e-5 0.86295,0.0842 1.19238,0.25244 0.32942,0.16831 0.60693,0.43865 0.83252,0.81103 0.22558,0.37241 0.42252,0.73407 0.59082,1.08496 0.16829,0.35093 0.30078,0.8397 0.39746,1.46631 0.0967,0.62664 0.17366,1.13331 0.23096,1.52002 0.0573,0.39389 0.0967,0.95607 0.11816,1.68652 0.0286,0.98113 0.043,1.74741 0.043,2.29883 z m -1.9497,-8.05127 c -0.14682,-0.37596 -0.32944,-0.666 -0.54786,-0.87012 -0.21842,-0.20408 -0.43506,-0.30613 -0.6499,-0.30615 -0.21485,2e-5 -0.39209,0.0752 -0.53174,0.22559 -0.13965,0.1504 -0.25781,0.36346 -0.35449,0.63916 -0.0967,0.27573 -0.18262,0.57114 -0.25781,0.88623 -0.0752,0.31512 -0.13249,0.67856 -0.17188,1.09033 -0.0394,0.4118 -0.0734,0.78598 -0.10205,1.12256 -0.0215,0.32944 -0.0394,0.69467 -0.0537,1.0957 -0.0143,0.66603 -0.0251,1.18523 -0.0322,1.55762 l 0,0.0967 c -1e-5,0.98113 0.0752,2.03923 0.22558,3.17432 0.15039,1.13509 0.30615,2.06429 0.46729,2.78759 0.16113,0.72331 0.37776,1.33741 0.6499,1.84229 0.27213,0.50488 0.57649,0.75732 0.91308,0.75732 0.29362,0 0.54069,-0.27571 0.74122,-0.82715 0.20051,-0.55859 0.34374,-1.24609 0.42968,-2.0625 0.14323,-1.46093 0.21663,-2.48681 0.22022,-3.07763 0.004,-0.59082 0.004,-1.02229 0,-1.29444 -0.004,-0.27212 -0.0143,-0.66779 -0.0322,-1.18701 -0.0179,-0.51919 -0.0483,-1.00617 -0.0913,-1.46094 -0.043,-0.45474 -0.0985,-0.95783 -0.1665,-1.50927 -0.068,-0.55142 -0.15756,-1.04198 -0.26856,-1.47168 -0.111,-0.42968 -0.23991,-0.83251 -0.38671,-1.2085 z"
           id="path8869"
           style="font-size:22px;line-height:100%;stroke:#000000;stroke-width:0.30000001;stroke-miterlimit:4;stroke-opacity:1;stroke-dasharray:none;font-family:Amatic;-inkscape-font-specification:Amatic Bold" />
        <path
           d="m 409.85684,520.40458 0.15039,-4.03907 0,-0.13965 c 0,-0.73045 0.16113,-1.09568 0.4834,-1.0957 0.29362,2e-5 0.6875,0.68036 1.18164,2.04102 0.90234,2.47071 1.98372,6.54916 3.24414,12.23535 l 0.0215,0.10742 0.0859,-7.66992 0,-6.50977 c 0.0859,-0.36521 0.32584,-0.54783 0.71973,-0.54785 0.39387,2e-5 0.59081,0.28648 0.59082,0.85938 l 0,0.1289 c -0.0859,0.17905 -0.12891,0.3939 -0.12891,0.64453 l -0.13964,8.13184 0,6.72461 c -10e-6,0.222 -0.0609,0.44043 -0.18262,0.65527 -0.12175,0.21485 -0.27214,0.32227 -0.45117,0.32227 -0.30795,0 -0.90951,-1.50928 -1.80469,-4.52783 -0.89519,-3.01855 -1.77963,-6.26448 -2.65332,-9.7378 l 0,7.21875 c 0,0.70183 0.0519,1.7474 0.15576,3.13672 0.10384,1.38933 0.15576,2.4349 0.15576,3.13672 0,0.13607 -0.0824,0.24886 -0.24707,0.33838 -0.16471,0.0895 -0.37419,0.13428 -0.62842,0.13428 -0.25423,0 -0.38134,-0.11459 -0.38134,-0.34375 l 0.10742,-1.5791 c 0,-0.75912 -0.0466,-1.99089 -0.13965,-3.69532 -0.0931,-1.70442 -0.13965,-2.74641 -0.13965,-3.12597 z"
           id="path8871"
           style="font-size:22px;line-height:100%;stroke:#000000;stroke-width:0.30000001;stroke-miterlimit:4;stroke-opacity:1;stroke-dasharray:none;font-family:Amatic;-inkscape-font-specification:Amatic Bold" />
        <path
           d="m 421.21133,523.15458 c 0,0 0,0.007 0,0.0215 0,1.18165 -0.32227,3.39812 -0.96679,6.64941 -0.28646,1.41797 -0.64454,2.66586 -1.07422,3.74366 -0.42969,1.07779 -0.8558,1.61669 -1.27832,1.6167 -0.15039,-10e-6 -0.28467,-0.0484 -0.40283,-0.14502 -0.11817,-0.0967 -0.17725,-0.21306 -0.17725,-0.34913 0,-0.13607 0.0591,-0.32942 0.17725,-0.58007 0.11816,-0.25066 0.26318,-0.52637 0.43505,-0.82715 0.67318,-1.1888 1.20492,-2.81982 1.59522,-4.89307 0.3903,-2.07324 0.58545,-3.73648 0.58545,-4.98974 0,-3.27994 -0.42969,-5.71841 -1.28906,-7.31543 -0.32227,-0.60155 -0.4834,-1.08495 -0.4834,-1.4502 l 0,-0.11816 0.39746,-0.31153 c 0.41536,2e-5 0.79134,0.38674 1.12793,1.16016 0.32942,0.78061 0.58723,1.7116 0.77344,2.79297 0.37239,2.16277 0.56575,3.82781 0.58007,4.99512 z"
           id="path8873"
           style="font-size:22px;line-height:100%;stroke:#000000;stroke-width:0.30000001;stroke-miterlimit:4;stroke-opacity:1;stroke-dasharray:none;font-family:Amatic;-inkscape-font-specification:Amatic Bold" />
      </g>
    </g>
  </g>
</svg>
