<?xml version="1.0" encoding="UTF-8" standalone="no"?>
<!-- Created with Inkscape (http://www.inkscape.org/) -->

<svg
   xmlns:dc="http://purl.org/dc/elements/1.1/"
   xmlns:cc="http://creativecommons.org/ns#"
   xmlns:rdf="http://www.w3.org/1999/02/22-rdf-syntax-ns#"
   xmlns:svg="http://www.w3.org/2000/svg"
   xmlns="http://www.w3.org/2000/svg"
   xmlns:sodipodi="http://sodipodi.sourceforge.net/DTD/sodipodi-0.dtd"
   xmlns:inkscape="http://www.inkscape.org/namespaces/inkscape"
   width="210mm"
   height="297mm"
   id="svg3146"
   version="1.1"
   inkscape:version="0.92.2 (unknown)"
   sodipodi:docname="come_on_cali.svg">
  <defs
     id="defs3148" />
  <sodipodi:namedview
     id="base"
     pagecolor="#ffffff"
     bordercolor="#666666"
     borderopacity="1.0"
     inkscape:pageopacity="0.0"
     inkscape:pageshadow="2"
     inkscape:zoom="1.979899"
     inkscape:cx="818.79412"
     inkscape:cy="538.42063"
     inkscape:document-units="px"
     inkscape:current-layer="layer1"
     showgrid="false"
     inkscape:window-width="1920"
     inkscape:window-height="986"
     inkscape:window-x="0"
     inkscape:window-y="21"
     inkscape:window-maximized="1" />
  <metadata
     id="metadata3151">
    <rdf:RDF>
      <cc:Work
         rdf:about="">
        <dc:format>image/svg+xml</dc:format>
        <dc:type
           rdf:resource="http://purl.org/dc/dcmitype/StillImage" />
        <dc:title />
      </cc:Work>
    </rdf:RDF>
  </metadata>
  <g
     inkscape:label="Ebene 1"
     inkscape:groupmode="layer"
     id="layer1">
    <rect
       y="-38.841953"
       x="-526.75415"
       height="533"
       width="400"
       id="rect3971"
       style="color:#000000;display:inline;overflow:visible;visibility:visible;fill:#be2a17;fill-opacity:1;fill-rule:nonzero;stroke:none;stroke-width:0.85394961;marker:none;enable-background:accumulate"
       inkscape:export-filename="G:\yesbrewnein_cmon_cali.png"
       inkscape:export-xdpi="189.45592"
       inkscape:export-ydpi="189.45592" />
    <text
       xml:space="preserve"
       style="font-style:normal;font-variant:normal;font-weight:normal;font-stretch:normal;line-height:0%;font-family:'Futura Md BT';-inkscape-font-specification:'Futura Md BT';text-align:start;letter-spacing:0px;word-spacing:0px;text-anchor:start;fill:#61160b;fill-opacity:1;stroke:none"
       x="-414.04623"
       y="-158.41499"
       id="text3966-8"
       transform="matrix(0,-0.99039044,1.0097028,0,0,0)"
       inkscape:export-filename="G:\yesbrewnein_cmon_cali.png"
       inkscape:export-xdpi="189.45592"
       inkscape:export-ydpi="189.45592"><tspan
         sodipodi:role="line"
         id="tspan3968-8"
         x="-414.04623"
         y="-158.41499"
         style="font-size:40.22203827px;line-height:1;letter-spacing:0px;fill:#61160b;fill-opacity:1"> </tspan><tspan
         sodipodi:role="line"
         x="-414.04623"
         y="-139.92403"
         id="tspan3970-2"
         style="font-size:11.61969948px;line-height:100%;fill:#61160b;fill-opacity:1">Zutaten: Wasser, Gerstenmalz, Hopfen (Northern Brewer), Hefe      <tspan
   id="tspan3176"
   style="font-weight:bold;font-size:11.61969948px;-inkscape-font-specification:'Futura Md BT Bold';fill:#61160b;fill-opacity:1">Alc. 4,5% Vol.</tspan></tspan></text>
    <path
       style="fill:#79170b;fill-opacity:1;stroke:none"
       d="m -332.98103,61.431913 0,5.48225 0.94748,0.49634 0.20308,6.85845 c 0.69761,1.71708 1.80521,2.80777 3.22614,3.88043 l 0,1.01523 -10.33272,12.54374 0.0448,3.903 c -2.1015,0.83989 -3.7907,2.13507 -4.28646,3.45178 l 0,17.800377 c 0.51078,1.78427 1.52734,3.36299 3.42923,4.37677 1.44684,5.43721 4.21895,8.77299 9.9267,8.93403 5.70767,0.16103 9.49151,-3.76259 10.17483,-8.43769 3.02616,-1.71671 3.08449,-2.91052 3.40244,-4.51214 l 0,-17.304037 c -0.6691,-2.66007 -1.96607,-3.12583 -3.56033,-4.0158 l 0,-1.1506 c 1.89481,-1.79638 3.25473,-1.08629 4.71543,0.58658 l 0,25.691117 c 0,0 -9.45534,11.77947 -14.05563,17.39978 l -0.20301,9.20475 -9.79133,0 -0.53929,0.93015 1.28383,4.39418 c -1.82969,0.53102 -3.28563,2.15618 -3.29393,2.82008 -0.009,0.77196 -0.0505,4.19584 0.0455,4.87311 0.0961,0.67727 0.5725,2.01214 2.05298,3.02313 l 0,2.6396 c -1.55816,1.00906 -1.63028,1.61963 -1.82745,2.25607 l 0.0679,4.21884 0.56398,1.46645 c -2.63329,13.21713 -8.61494,21.48757 -23.12467,25.29052 -14.50973,3.80295 -28.20626,20.40385 -30.11854,29.7801 -1.91214,9.37625 0.80164,148.82053 0.97014,154.2925 0.16843,5.47198 8.79029,22.09386 29.87035,25.31309 20.47528,3.12687 35.42048,2.85981 36.27757,2.84264 0.0253,-5e-4 0.31585,0 0.31585,0 0.85702,0.0172 15.8023,0.28423 36.27758,-2.84264 21.07998,-3.21923 29.70184,-19.84111 29.87034,-25.31309 0.16843,-5.47197 2.88235,-144.91625 0.97007,-154.2925 -1.91206,-9.37625 -15.63134,-25.97715 -30.14107,-29.7801 -14.50966,-3.80295 -20.49145,-12.07339 -23.12466,-25.29052 l 0.56398,-1.46645 0.0679,-4.21884 c -0.19723,-0.63644 -0.24668,-1.24701 -1.80485,-2.25607 l -0.0224,-2.6396 c 1.48041,-1.01099 1.97942,-2.34586 2.07558,-3.02313 0.0961,-0.67727 0.0549,-4.10115 0.0448,-4.87311 -0.007,-0.62127 -1.27163,-2.08471 -2.93282,-2.70728 l 1.18233,-4.4393 -0.64087,-0.97526 -9.40784,-0.0676 0.0448,-6.94869 13.85226,-18.25158 -0.0224,-27.591717 c -0.48471,-1.26876 -2.40371,-5.33392 -7.47123,-5.642 -5.06746,-0.30808 -6.83181,3.0052 -7.21574,3.56642 l 0,3.11337 c -1.88311,0.518 -3.83871,1.67897 -4.44449,3.7902 l -0.0679,17.845497 c 0.67357,2.72602 2.03544,3.09752 3.20362,4.06092 -1.11663,2.86636 -1.97264,3.25047 -3.81272,3.3841 -1.84009,0.13365 -3.6217,-1.28459 -3.94816,-3.79019 2.74013,-1.37128 3.02537,-2.28356 3.54199,-3.65483 l 0.0679,-18.116227 c -0.60996,-1.3724 -1.41962,-2.54054 -3.6097,-3.42922 l 0,-2.05303 10.73888,-13.67177 0,-1.94022 c 1.79901,-0.79175 2.84979,-2.21186 3.3841,-3.60971 l 0,-6.42979 1.10551,-0.97012 0,-5.68529 c -5.83964,-1.26535 -8.7391,-1.62129 -14.70949,-0.1354 z"
       id="path2998-82-9-8-1-16"
       inkscape:connector-curvature="0"
       sodipodi:nodetypes="cccccccccccscccccccccccccccccccsccsccsccscccccccccccccczcccccscccccccccccc"
       inkscape:export-xdpi="189.45592"
       inkscape:export-ydpi="189.45592" />
    <text
       xml:space="preserve"
       style="font-style:normal;font-variant:normal;font-weight:normal;font-stretch:normal;line-height:0%;font-family:'Futura Md BT';-inkscape-font-specification:'Futura Md BT';text-align:end;letter-spacing:0px;word-spacing:0px;text-anchor:end;fill:#bd2410;fill-opacity:1;stroke:none"
       x="-297.38412"
       y="290.60684"
       id="text3056-0-8"
       transform="scale(1.1022928,0.90719998)"
       inkscape:export-xdpi="189.45592"
       inkscape:export-ydpi="189.45592"><tspan
         sodipodi:role="line"
         id="tspan3058-9-5"
         x="-297.38412"
         y="290.60684"
         style="font-style:normal;font-variant:normal;font-weight:normal;font-stretch:normal;font-size:83.0254364px;line-height:89.99999762%;font-family:'Amatic SC';-inkscape-font-specification:'Amatic SC';text-align:center;text-anchor:middle;fill:#bd2410;fill-opacity:1">YES</tspan><tspan
         sodipodi:role="line"
         x="-297.38412"
         y="367.95099"
         id="tspan3060-4-7"
         style="font-style:normal;font-variant:normal;font-weight:bold;font-stretch:normal;font-size:83.0254364px;line-height:72.00000286%;font-family:Amatic;-inkscape-font-specification:'Amatic Bold';text-align:center;text-anchor:middle;fill:#bd2410;fill-opacity:1">BREW</tspan><tspan
         sodipodi:role="line"
         x="-297.38412"
         y="432.16449"
         id="tspan3062-8-6"
         style="font-style:normal;font-variant:normal;font-weight:normal;font-stretch:normal;font-size:83.0254364px;line-height:100.99999905%;font-family:'Amatic SC';-inkscape-font-specification:'Amatic SC';text-align:center;text-anchor:middle;fill:#bd2410;fill-opacity:1">NEIN</tspan></text>
    <rect
       style="color:#000000;display:inline;overflow:visible;visibility:visible;fill:#84b45e;fill-opacity:1;fill-rule:nonzero;stroke:none;stroke-width:1.5;marker:none;enable-background:accumulate"
       id="rect3949"
       width="400.02039"
       height="2.5328157"
       x="-526.98187"
       y="429.86765"
       inkscape:export-filename="G:\yesbrewnein_cmon_cali.png"
       inkscape:export-xdpi="189.45592"
       inkscape:export-ydpi="189.45592" />
    <text
       xml:space="preserve"
       style="font-style:normal;font-variant:normal;font-weight:normal;font-stretch:normal;line-height:0%;font-family:'Great Vibes';-inkscape-font-specification:'Great Vibes';text-align:center;letter-spacing:0px;word-spacing:0px;text-anchor:middle;opacity:0.7;fill:#6cee7c;fill-opacity:1;stroke:none"
       x="-326.51547"
       y="45.872059"
       id="text3002"
       inkscape:export-filename="G:\yesbrewnein_cmon_cali.png"
       inkscape:export-xdpi="189.45592"
       inkscape:export-ydpi="189.45592"
       transform="skewY(-11.514306)"><tspan
         sodipodi:role="line"
         x="-296.19876"
         y="45.872059"
         style="font-style:normal;font-variant:normal;font-weight:normal;font-stretch:normal;font-size:121.26677704px;line-height:75%;font-family:Blackout;-inkscape-font-specification:Blackout;text-align:center;text-anchor:middle;fill:#6cee7c;fill-opacity:1"
         id="tspan4229">C'mon, </tspan><tspan
         sodipodi:role="line"
         x="-326.51547"
         y="142.03944"
         style="font-style:normal;font-variant:normal;font-weight:normal;font-stretch:normal;font-size:129.61447144px;line-height:75%;font-family:Blackout;-inkscape-font-specification:Blackout;text-align:center;text-anchor:middle;fill:#6cee7c;fill-opacity:1"
         id="tspan4233">Cali</tspan></text>
    <text
       xml:space="preserve"
       style="font-style:normal;font-variant:normal;font-weight:normal;font-stretch:normal;line-height:0%;font-family:'Great Vibes';-inkscape-font-specification:'Great Vibes';text-align:start;letter-spacing:0px;word-spacing:0px;text-anchor:start;opacity:0.8;fill:#631309;fill-opacity:1;stroke:none"
       x="-465.57791"
       y="475.19382"
       id="text3008"
       inkscape:export-filename="G:\yesbrewnein_cmon_cali.png"
       inkscape:export-xdpi="189.45592"
       inkscape:export-ydpi="189.45592"><tspan
         sodipodi:role="line"
         id="tspan3010"
         x="-465.57791"
         y="475.19382"
         style="font-style:normal;font-variant:normal;font-weight:normal;font-stretch:normal;font-size:34.83136749px;line-height:1.25;font-family:'Legend M54';-inkscape-font-specification:'Legend M54';fill:#631309;fill-opacity:1">California Common</tspan></text>
    <text
       xml:space="preserve"
       style="font-style:normal;font-variant:normal;font-weight:normal;font-stretch:normal;line-height:0%;font-family:'Futura Md BT';-inkscape-font-specification:'Futura Md BT';text-align:end;letter-spacing:0px;word-spacing:0px;text-anchor:end;fill:#61170b;fill-opacity:1;stroke:none"
       x="19.560438"
       y="-498.54239"
       id="text3966-8-1"
       transform="matrix(0,-0.99039044,1.0097028,0,0,0)"
       inkscape:export-filename="G:\yesbrewnein_cmon_cali.png"
       inkscape:export-xdpi="189.45592"
       inkscape:export-ydpi="189.45592"><tspan
         sodipodi:role="line"
         x="19.560434"
         y="-498.54239"
         id="tspan3970-2-1"
         style="font-weight:bold;font-size:11.61969948px;line-height:100%;-inkscape-font-specification:'Futura Md BT Bold';text-align:end;text-anchor:end;fill:#61170b;fill-opacity:1"> MHD. 01.2016</tspan></text>
    <flowRoot
       xml:space="preserve"
       id="flowRoot5682"
       style="font-style:normal;font-variant:normal;font-weight:normal;font-stretch:normal;line-height:0.01%;font-family:'Great Vibes';-inkscape-font-specification:'Great Vibes';text-align:start;letter-spacing:0px;word-spacing:0px;text-anchor:start;fill:#000000;fill-opacity:1;stroke:none;stroke-width:1px;stroke-linecap:butt;stroke-linejoin:miter;stroke-opacity:1"><flowRegion
         id="flowRegion5684"><rect
           id="rect5686"
           width="302.54068"
           height="228.29448"
           x="584.8783"
           y="316.97116" /></flowRegion><flowPara
         id="flowPara5688"
         style="font-size:50px;line-height:1.30999994"> </flowPara></flowRoot>    <rect
       y="83.005051"
       x="132.97099"
       height="533"
       width="400"
       id="rect3971-3"
       style="color:#000000;display:inline;overflow:visible;visibility:visible;fill:#be2a17;fill-opacity:1;fill-rule:nonzero;stroke:none;stroke-width:0.85394961;marker:none;enable-background:accumulate"
       inkscape:export-filename="G:\yesbrewnein_cmon_cali.png"
       inkscape:export-xdpi="189.45592"
       inkscape:export-ydpi="189.45592" />
    <g
       id="g5690"
       transform="matrix(1.8157705,0,0,1.8157705,-1009.6672,-370.81555)"
       inkscape:export-xdpi="189.45592"
       inkscape:export-ydpi="189.45592">
      <circle
         inkscape:export-ydpi="119.11"
         inkscape:export-xdpi="119.11"
         r="80.554863"
         cy="423.03717"
         cx="739.43164"
         id="path4993-8-4-0-3-7"
         style="color:#000000;display:inline;overflow:visible;visibility:visible;opacity:1;fill:#79170b;fill-opacity:1;fill-rule:nonzero;stroke:none;stroke-width:1;stroke-linecap:butt;stroke-linejoin:miter;stroke-miterlimit:4;stroke-dasharray:none;stroke-dashoffset:0;stroke-opacity:1;marker:none;enable-background:accumulate" />
      <path
         inkscape:export-ydpi="119.11"
         inkscape:export-xdpi="119.11"
         sodipodi:nodetypes="cccccccccccscccccccccccccccccccsccsccsccscccccccccccccczcccccscccccccccccc"
         inkscape:connector-curvature="0"
         id="path2998-82-9-8-1-5-7-1-7-2"
         d="m 737.0509,356.24375 0,2.09615 0.36223,0.18976 0.0777,2.62232 c 0.2667,0.65653 0.69019,1.0735 1.2335,1.48367 l 0,0.38818 -3.95073,4.79611 0.0173,1.49227 c -0.80348,0.32116 -1.44933,0.81639 -1.63888,1.3198 l 0,6.80588 c 0.19524,0.68228 0.58397,1.28588 1.31113,1.6735 0.55316,2.07887 1.61313,3.35434 3.79545,3.41588 2.18232,0.0618 3.62909,-1.43858 3.8903,-3.22613 1.15703,-0.6564 1.17937,-1.11277 1.30093,-1.72518 l 0,-6.6162 c -0.2558,-1.01703 -0.75166,-1.1952 -1.36122,-1.53543 l 0,-0.43993 c 0.72439,-0.68679 1.24445,-0.41538 1.80288,0.2243 l 0,9.8229 c 0,0 -3.61527,4.50389 -5.3741,6.65284 l -0.0776,3.51939 -3.7437,0 -0.20619,0.35564 0.49086,1.68015 c -0.69955,0.203 -1.25625,0.82436 -1.25944,1.07822 -0.007,0.29514 -0.0194,1.60426 0.0173,1.86318 0.0368,0.25899 0.21889,0.76941 0.78496,1.15592 l 0,1.00926 c -0.59576,0.38582 -0.62337,0.61928 -0.69872,0.86259 l 0.0264,1.61307 0.21563,0.56072 c -1.00683,5.05357 -3.29392,8.21574 -8.84168,9.66978 -5.54776,1.45405 -10.78464,7.80141 -11.51575,11.38637 -0.73112,3.58502 0.30644,56.90128 0.3709,58.99348 0.0645,2.09219 3.36093,8.44753 11.42091,9.67838 7.82867,1.19561 13.54294,1.09349 13.87062,1.0869 0.01,-2.1e-4 0.12079,0 0.12079,0 0.32768,0.007 6.04195,0.10871 13.87069,-1.0869 8.05984,-1.23085 11.35639,-7.58619 11.42084,-9.67838 0.0645,-2.0922 1.10202,-55.40846 0.3709,-58.99348 -0.73111,-3.58496 -5.97666,-9.93232 -11.52435,-11.38637 -5.54777,-1.45404 -7.83485,-4.61621 -8.84175,-9.66978 l 0.2157,-0.56072 0.0257,-1.61307 c -0.0753,-0.24331 -0.0943,-0.47677 -0.69004,-0.86259 l -0.008,-1.00926 c 0.566,-0.38651 0.75686,-0.89693 0.79363,-1.15592 0.0368,-0.25892 0.0208,-1.56804 0.0173,-1.86318 -0.007,-0.23755 -0.48627,-0.79709 -1.12137,-1.03513 l 0.45207,-1.69729 -0.24504,-0.37299 -3.5971,-0.0257 0.0173,-2.6568 5.2964,-6.97843 -0.008,-10.54965 c -0.18531,-0.4851 -0.91907,-2.0394 -2.85662,-2.15721 -1.93755,-0.1178 -2.61212,1.14906 -2.75893,1.36365 l 0,1.19034 c -0.72001,0.19808 -1.46771,0.64196 -1.6993,1.44919 l -0.0257,6.82323 c 0.25754,1.04228 0.77823,1.1843 1.22489,1.5527 -0.42696,1.09592 -0.75422,1.24279 -1.4578,1.29385 -0.70357,0.0513 -1.38473,-0.49113 -1.50955,-1.44912 1.0477,-0.52437 1.15669,-0.8732 1.35421,-1.39743 l 0.0264,-6.92674 c -0.23318,-0.52472 -0.54275,-0.97138 -1.38016,-1.3112 l 0,-0.78496 4.106,-5.22737 0,-0.7418 c 0.68789,-0.30277 1.08966,-0.84573 1.29392,-1.38022 l 0,-2.45838 0.42272,-0.37091 0,-2.17378 c -2.23283,-0.48378 -3.34143,-0.6199 -5.62415,-0.052 z"
         style="fill:#be2a17;fill-opacity:1;stroke:none;stroke-width:1.20000005;stroke-miterlimit:4;stroke-dasharray:none;stroke-opacity:1" />
      <text
         inkscape:export-ydpi="119.11"
         inkscape:export-xdpi="119.11"
         transform="scale(1.1022928,0.90719998)"
         id="text3056-0-7-4-4-6-8"
         y="458.52972"
         x="686.11682"
         style="font-style:normal;font-variant:normal;font-weight:normal;font-stretch:normal;line-height:0%;font-family:'Futura Md BT';-inkscape-font-specification:'Futura Md BT';text-align:start;letter-spacing:0px;word-spacing:0px;text-anchor:start;fill:#79170b;fill-opacity:1;stroke:none;stroke-width:1;stroke-miterlimit:4;stroke-dasharray:none;stroke-opacity:1"
         xml:space="preserve"><tspan
           id="tspan4396-7-4"
           style="font-style:normal;font-variant:normal;font-weight:bold;font-stretch:normal;font-size:19.99998093px;line-height:52.99999714%;font-family:Amatic;-inkscape-font-specification:'Amatic Bold';text-align:start;letter-spacing:3.83800626px;word-spacing:0px;writing-mode:tb-rl;text-anchor:start;fill:#79170b;fill-opacity:1;stroke:none;stroke-width:1;stroke-miterlimit:4;stroke-dasharray:none;stroke-opacity:1"
           y="686.11682"
           x="458.52972"
           sodipodi:role="line"><tspan
   id="tspan4406-0-6"
   style="line-height:52.99999714%;letter-spacing:3.83800626px;fill:#79170b;fill-opacity:1;stroke:#000000;stroke-width:0.42644513;stroke-opacity:1"><tspan
     id="tspan4547-5"
     style="fill:#79170b;fill-opacity:1;stroke:none">S</tspan><tspan
     id="tspan5656"
     style="stroke:#79170b;stroke-opacity:1">W</tspan></tspan>N</tspan><tspan
           id="tspan4402-7-0"
           style="font-style:normal;font-variant:normal;font-weight:bold;font-stretch:normal;font-size:19.99998093px;line-height:52.99999714%;font-family:Amatic;-inkscape-font-specification:'Amatic Bold';text-align:start;letter-spacing:3.83800626px;word-spacing:0px;writing-mode:tb-rl;text-anchor:start;fill:#79170b;fill-opacity:1;stroke:none;stroke-width:1;stroke-miterlimit:4;stroke-dasharray:none;stroke-opacity:1"
           y="675.3833"
           x="458.52972"
           sodipodi:role="line"><tspan
   id="tspan4404-6-0"
   style="line-height:52.99999714%;letter-spacing:3.83800626px;fill:#79170b;fill-opacity:1;stroke:#000000;stroke-width:0.42644513;stroke-opacity:1"><tspan
     id="tspan4545-0"
     style="fill:#79170b;fill-opacity:1;stroke:none">E</tspan><tspan
     id="tspan5660"
     style="stroke:#79170b;stroke-opacity:1">E</tspan></tspan>I</tspan><tspan
           id="tspan4248-7-6-1"
           style="font-style:normal;font-variant:normal;font-weight:bold;font-stretch:normal;font-size:19.99998093px;line-height:52.99999714%;font-family:Amatic;-inkscape-font-specification:'Amatic Bold';text-align:start;letter-spacing:3.83800626px;word-spacing:0px;writing-mode:tb-rl;text-anchor:start;fill:#79170b;fill-opacity:1;stroke:none;stroke-width:1;stroke-miterlimit:4;stroke-dasharray:none;stroke-opacity:1"
           y="664.64978"
           x="458.52972"
           sodipodi:role="line"><tspan
   id="tspan4384-9-8"
   style="line-height:52.99999714%;letter-spacing:3.83800626px;fill:#79170b;fill-opacity:1;stroke:#000000;stroke-width:0.42644513;stroke-opacity:1"><tspan
     id="tspan4543-8"
     style="fill:#79170b;fill-opacity:1;stroke:none">Y</tspan><tspan
     id="tspan5664"
     style="stroke:#79170b;stroke-opacity:1">R</tspan></tspan>E</tspan><tspan
           id="tspan4250-6-1-2"
           style="font-style:normal;font-variant:normal;font-weight:bold;font-stretch:normal;font-size:19.99998093px;line-height:52.99999714%;font-family:Amatic;-inkscape-font-specification:'Amatic Bold';text-align:start;letter-spacing:3.83800626px;word-spacing:0px;writing-mode:tb-rl;text-anchor:start;fill:#79170b;fill-opacity:1;stroke:none;stroke-width:1;stroke-miterlimit:4;stroke-dasharray:none;stroke-opacity:1"
           y="653.91626"
           x="458.52972"
           sodipodi:role="line"><tspan
   id="tspan4386-93-7"
   style="line-height:52.99999714%;letter-spacing:3.83800626px;fill:#79170b;fill-opacity:1;stroke:#79170b;stroke-width:0.42644513;stroke-opacity:1"> B</tspan>N</tspan></text>
      <path
         inkscape:export-ydpi="119.11"
         inkscape:export-xdpi="119.11"
         sodipodi:nodetypes="cccccccccccscccccccccccccccccccsccsccsccscccccccccccccczcccccscccccccccccc"
         inkscape:connector-curvature="0"
         id="path2998-82-9-8-1-5-7-1-8-1-4"
         d="m 720.96847,420.21734 0,0.22465 0.0389,0.0208 0.008,0.28105 c 0.0284,0.0704 0.074,0.11504 0.13224,0.15902 l 0,0.0416 -0.42342,0.5141 0.007,0.15992 c -0.086,0.0347 -0.15527,0.0875 -0.1756,0.14146 l 0,0.72945 c 0.0208,0.0731 0.0624,0.13779 0.14056,0.17935 0.059,0.22284 0.17282,0.35952 0.40677,0.36611 0.23395,0.007 0.38894,-0.15423 0.41697,-0.34578 0.12398,-0.0704 0.12641,-0.11927 0.13938,-0.1849 l 0,-0.70912 c -0.0271,-0.109 -0.0805,-0.12808 -0.1459,-0.16457 l 0,-0.0472 c 0.0776,-0.0737 0.13341,-0.0444 0.19322,0.0236 l 0,1.05283 c 0,0 -0.38742,0.48267 -0.57592,0.71301 l -0.008,0.37714 -0.40122,0 -0.0222,0.0382 0.0527,0.18011 c -0.075,0.0215 -0.13466,0.0884 -0.13501,0.11559 0,0.0312 -0.007,0.17192 0.007,0.19967 0.007,0.0278 0.0236,0.0824 0.0842,0.12391 l 0,0.10816 c -0.0638,0.0416 -0.0666,0.0666 -0.0749,0.0924 l 0.007,0.17289 0.0229,0.0604 c -0.10782,0.54164 -0.353,0.88049 -0.94758,1.03638 -0.59458,0.15583 -1.15593,0.83609 -1.23425,1.22031 -0.0784,0.38429 0.0326,6.09857 0.0402,6.3228 0.007,0.2243 0.36014,0.90547 1.22405,1.03736 0.83907,0.12814 1.45148,0.11718 1.48666,0.11648 0,-7e-5 0.0132,0 0.0132,0 0.0347,0 0.64758,0.0118 1.48665,-0.11648 0.86391,-0.13189 1.21719,-0.81306 1.22406,-1.03736 0.007,-0.22423 0.11815,-5.93851 0.0402,-6.3228 -0.0783,-0.38422 -0.64051,-1.06448 -1.23509,-1.22031 -0.59465,-0.15589 -0.83976,-0.49474 -0.94765,-1.03638 l 0.0229,-0.0604 0.007,-0.17289 c -0.008,-0.0257 -0.01,-0.0514 -0.074,-0.0924 l 0,-0.10816 c 0.0604,-0.0416 0.0811,-0.0962 0.0851,-0.12391 0.007,-0.0277 0.007,-0.16804 0.007,-0.19967 0,-0.0257 -0.052,-0.0854 -0.12017,-0.11101 l 0.0486,-0.18191 -0.0264,-0.0402 -0.38554,-0.007 0.007,-0.28473 0.56766,-0.74791 0,-1.13074 c -0.0201,-0.052 -0.0985,-0.21854 -0.3061,-0.23117 -0.20772,-0.0125 -0.28008,0.12315 -0.29576,0.14611 l 0,0.12759 c -0.0771,0.0215 -0.15729,0.0687 -0.18212,0.15534 l -0.007,0.73132 c 0.0284,0.11164 0.0835,0.1269 0.13133,0.16638 -0.0458,0.11745 -0.0808,0.1332 -0.15624,0.13868 -0.0754,0.007 -0.1484,-0.0527 -0.16179,-0.15534 0.11232,-0.0562 0.12398,-0.0935 0.14521,-0.14972 l 0.007,-0.74242 c -0.025,-0.0562 -0.0583,-0.10407 -0.14799,-0.14049 l 0,-0.0842 0.44014,-0.56024 0,-0.0796 c 0.0737,-0.0326 0.1167,-0.0906 0.13862,-0.14784 l 0,-0.2635 0.0451,-0.0395 0,-0.23298 c -0.23929,-0.052 -0.35814,-0.0666 -0.60277,-0.007 z"
         style="fill:#79170b;fill-opacity:1;stroke:none;stroke-width:1.20000005;stroke-miterlimit:4;stroke-dasharray:none;stroke-opacity:1" />
      <text
         inkscape:export-ydpi="119.11"
         inkscape:export-xdpi="119.11"
         transform="scale(1.1022928,0.90719998)"
         id="text3056-0-7-4-4-2-1"
         y="470.25964"
         x="655.93445"
         style="font-style:normal;font-variant:normal;font-weight:normal;font-stretch:normal;line-height:0%;font-family:'Futura Md BT';-inkscape-font-specification:'Futura Md BT';text-align:start;letter-spacing:0px;word-spacing:0px;text-anchor:start;fill:#be2a17;fill-opacity:1;stroke:none;stroke-width:1;stroke-miterlimit:4;stroke-dasharray:none;stroke-opacity:1"
         xml:space="preserve"><tspan
           id="tspan4396-0-9"
           style="font-style:normal;font-variant:normal;font-weight:bold;font-stretch:normal;font-size:2.14355898px;line-height:52.99999714%;font-family:Amatic;-inkscape-font-specification:'Amatic Bold';text-align:start;letter-spacing:0.41135007px;word-spacing:0px;writing-mode:tb-rl;text-anchor:start;fill:#be2a17;fill-opacity:1;stroke:none;stroke-width:1;stroke-miterlimit:4;stroke-dasharray:none;stroke-opacity:1"
           y="655.93445"
           x="470.25964"
           sodipodi:role="line"><tspan
   id="tspan4406-3-9"
   style="line-height:52.99999714%;letter-spacing:0.41135007px;fill:#be2a17;fill-opacity:1;stroke:#ffffff;stroke-width:0.04570555;stroke-opacity:1"><tspan
     style="fill:#be2a17;fill-opacity:1;stroke:none"
     id="tspan4661">S</tspan><tspan
     id="tspan5217"
     style="fill:#be2a17;fill-opacity:1;stroke:#be2a17;stroke-width:0.04570555;stroke-opacity:1">W</tspan></tspan>N</tspan><tspan
           id="tspan4402-3-0"
           style="font-style:normal;font-variant:normal;font-weight:bold;font-stretch:normal;font-size:2.14355898px;line-height:52.99999714%;font-family:Amatic;-inkscape-font-specification:'Amatic Bold';text-align:start;letter-spacing:0.41135007px;word-spacing:0px;writing-mode:tb-rl;text-anchor:start;fill:#be2a17;fill-opacity:1;stroke:none;stroke-width:1;stroke-miterlimit:4;stroke-dasharray:none;stroke-opacity:1"
           y="653.16565"
           x="470.25964"
           sodipodi:role="line"><tspan
   id="tspan4404-7-4"
   style="line-height:52.99999714%;letter-spacing:0.41135007px;fill:#be2a17;fill-opacity:1;stroke:#ffffff;stroke-width:0.04570555;stroke-opacity:1"><tspan
     style="fill:#be2a17;fill-opacity:1;stroke:none"
     id="tspan4663">E</tspan><tspan
     id="tspan5209"
     style="fill:#be2a17;fill-opacity:1;stroke:#be2a17;stroke-width:0.04570555;stroke-opacity:1">E</tspan></tspan>I</tspan><tspan
           id="tspan4248-7-3-3"
           style="font-style:normal;font-variant:normal;font-weight:bold;font-stretch:normal;font-size:2.14355898px;line-height:52.99999714%;font-family:Amatic;-inkscape-font-specification:'Amatic Bold';text-align:start;letter-spacing:0.41135007px;word-spacing:0px;writing-mode:tb-rl;text-anchor:start;fill:#be2a17;fill-opacity:1;stroke:none;stroke-width:1;stroke-miterlimit:4;stroke-dasharray:none;stroke-opacity:1"
           y="650.39691"
           x="470.25964"
           sodipodi:role="line"><tspan
   id="tspan4384-1-6"
   style="line-height:52.99999714%;letter-spacing:0.41135007px;fill:#be2a17;fill-opacity:1;stroke:#ffffff;stroke-width:0.04570555;stroke-opacity:1"><tspan
     style="fill:#be2a17;fill-opacity:1;stroke:none"
     id="tspan4665">Y</tspan><tspan
     id="tspan5213"
     style="fill:#be2a17;fill-opacity:1;stroke:#be2a17;stroke-width:0.04570555;stroke-opacity:1">R</tspan></tspan>E</tspan><tspan
           id="tspan4250-6-9-2"
           style="font-style:normal;font-variant:normal;font-weight:bold;font-stretch:normal;font-size:2.14355898px;line-height:52.99999714%;font-family:Amatic;-inkscape-font-specification:'Amatic Bold';text-align:start;letter-spacing:0.41135007px;word-spacing:0px;writing-mode:tb-rl;text-anchor:start;fill:#be2a17;fill-opacity:1;stroke:none;stroke-width:1;stroke-miterlimit:4;stroke-dasharray:none;stroke-opacity:1"
           y="647.62811"
           x="470.25964"
           sodipodi:role="line"><tspan
   id="tspan4386-9-7"
   style="line-height:52.99999714%;letter-spacing:0.41135007px;fill:#be2a17;fill-opacity:1;stroke:#be2a17;stroke-width:0.04570555;stroke-opacity:1"> B</tspan>N</tspan></text>
      <path
         inkscape:export-ydpi="119.11"
         inkscape:export-xdpi="119.11"
         sodipodi:nodetypes="cccccccccccscccccccccccccccccccsccsccsccscccccccccccccczcccccscccccccccccc"
         inkscape:connector-curvature="0"
         id="path2998-82-9-8-1-5-7-1-7-4"
         d="m 719.23906,427.07408 0,0.0236 0.007,0 0.007,0.0298 c 0.007,0.008 0.008,0.0125 0.0139,0.0167 l 0,0.007 -0.0451,0.0548 0,0.0173 c -0.01,0.007 -0.0167,0.01 -0.018,0.0153 l 0,0.0774 c 0.007,0.008 0.007,0.0146 0.0153,0.0194 0.007,0.0236 0.018,0.0382 0.043,0.0389 0.025,0 0.0409,-0.016 0.0444,-0.0368 0.0132,-0.008 0.0139,-0.0125 0.0153,-0.0194 l 0,-0.0751 c -0.007,-0.0118 -0.009,-0.0139 -0.0153,-0.0174 l 0,-0.007 c 0.008,-0.008 0.0146,-0.007 0.0208,0.007 l 0,0.11156 c 0,0 -0.0409,0.0513 -0.0611,0.0756 l -0.007,0.0402 -0.0423,0 -0.007,0.007 0.007,0.0194 c -0.008,0 -0.0146,0.01 -0.0146,0.0125 0,0.007 0,0.018 0,0.0215 0,0.007 0.007,0.009 0.008,0.0132 l 0,0.0118 c -0.007,0.007 -0.007,0.007 -0.008,0.01 l 0,0.0187 0.007,0.007 c -0.0118,0.0576 -0.0375,0.0933 -0.10039,0.10975 -0.0631,0.0167 -0.12252,0.0886 -0.13078,0.12933 -0.008,0.0409 0.007,0.64626 0.007,0.67006 0.007,0.0236 0.0382,0.0959 0.12967,0.1099 0.0889,0.0139 0.15381,0.0125 0.15756,0.0125 0,0 0.007,0 0.007,0 0.007,7e-5 0.0687,0 0.15749,-0.0125 0.0916,-0.0139 0.12897,-0.0862 0.12974,-0.1099 0.007,-0.0236 0.0125,-0.62934 0.007,-0.67006 -0.008,-0.0402 -0.068,-0.11281 -0.13091,-0.12933 -0.0631,-0.0167 -0.089,-0.0527 -0.1004,-0.10975 l 0.007,-0.007 0,-0.0187 c -0.007,-0.007 -0.007,-0.007 -0.008,-0.01 l 0,-0.0118 c 0.007,-0.007 0.008,-0.0104 0.01,-0.0132 0,-0.007 0,-0.018 0,-0.0215 0,-0.007 -0.007,-0.009 -0.0132,-0.0118 l 0.007,-0.0194 -0.007,-0.007 -0.0402,-2.8e-4 0,-0.0305 0.0604,-0.0793 0,-0.11974 c -0.007,-0.007 -0.0104,-0.0229 -0.0326,-0.0243 -0.0215,0 -0.0298,0.0132 -0.0312,0.0153 l 0,0.0139 c -0.008,0 -0.0167,0.008 -0.0194,0.0166 l 0,0.0775 c 0.007,0.0118 0.009,0.0139 0.0139,0.0174 -0.007,0.0125 -0.008,0.0139 -0.0167,0.0153 -0.008,0 -0.016,-0.007 -0.0173,-0.0167 0.0118,-0.007 0.0132,-0.01 0.0153,-0.016 l 0,-0.0787 c -0.007,-0.007 -0.007,-0.0111 -0.016,-0.0153 l 0,-0.009 0.0465,-0.0597 0,-0.008 c 0.008,-0.007 0.0125,-0.01 0.0153,-0.016 l 0,-0.0277 0.007,-0.007 0,-0.025 c -0.0257,-0.007 -0.0382,-0.007 -0.0638,0 z"
         style="fill:#be2a17;fill-opacity:1;stroke:none;stroke-width:1.20000005;stroke-miterlimit:4;stroke-dasharray:none;stroke-opacity:1" />
    </g>
    <text
       xml:space="preserve"
       style="font-style:normal;font-variant:normal;font-weight:normal;font-stretch:normal;line-height:0%;font-family:'Futura Md BT';-inkscape-font-specification:'Futura Md BT';text-align:start;letter-spacing:0px;word-spacing:0px;text-anchor:start;fill:#61160b;fill-opacity:1;stroke:none;stroke-width:0.40000001;stroke-miterlimit:4;stroke-dasharray:none"
       x="-541.72223"
       y="493.59958"
       id="text3966-8-9"
       transform="matrix(0,-0.99039044,1.0097028,0,0,0)"
       inkscape:export-filename="G:\yesbrewnein_cmon_cali.png"
       inkscape:export-xdpi="189.45592"
       inkscape:export-ydpi="189.45592"><tspan
         sodipodi:role="line"
         id="tspan3968-8-9"
         x="-541.72223"
         y="493.59958"
         style="font-size:45.81896973px;line-height:1;letter-spacing:0px;fill:#61160b;fill-opacity:1;stroke-width:0.40000001;stroke-miterlimit:4;stroke-dasharray:none"> </tspan><tspan
         sodipodi:role="line"
         x="-541.72223"
         y="514.65851"
         id="tspan3970-2-12"
         style="font-size:12.92357063px;line-height:100%;fill:#61160b;fill-opacity:1;stroke-width:0.40000001;stroke-miterlimit:4;stroke-dasharray:none"><tspan
           style="font-style:normal;font-variant:normal;font-weight:normal;font-stretch:normal;font-size:12.92357063px;font-family:Bebas;-inkscape-font-specification:Bebas;stroke-width:0.40000001;stroke-miterlimit:4;stroke-dasharray:none"
           id="tspan5964">Zutaten: Wasser, Gerstenmalz, Hopfen (Northern  Brewer), Hefe</tspan><tspan
           id="tspan3176-3"
           style="font-style:normal;font-variant:normal;font-weight:normal;font-stretch:normal;font-size:12.92357063px;font-family:Bebas;-inkscape-font-specification:Bebas;fill:#61160b;fill-opacity:1;stroke:#61160b;stroke-width:0.45566037;stroke-miterlimit:4;stroke-dasharray:none;stroke-opacity:1">      Alc. 4,5% Vol.</tspan></tspan></text>
    <text
       xml:space="preserve"
       style="font-style:normal;font-variant:normal;font-weight:normal;font-stretch:normal;line-height:0%;font-family:'Great Vibes';-inkscape-font-specification:'Great Vibes';text-align:center;letter-spacing:0px;word-spacing:0px;text-anchor:middle;opacity:0.7;fill:#6cee7c;fill-opacity:1;stroke:none"
       x="333.20966"
       y="302.11322"
       id="text3002-7"
       inkscape:export-filename="G:\yesbrewnein_cmon_cali.png"
       inkscape:export-xdpi="189.45592"
       inkscape:export-ydpi="189.45592"
       transform="skewY(-11.514306)"><tspan
         sodipodi:role="line"
         x="363.52637"
         y="302.11322"
         style="font-style:normal;font-variant:normal;font-weight:normal;font-stretch:normal;font-size:121.26677704px;line-height:75%;font-family:Blackout;-inkscape-font-specification:Blackout;text-align:center;text-anchor:middle;fill:#6cee7c;fill-opacity:1"
         id="tspan4229-8">C'mon, </tspan><tspan
         sodipodi:role="line"
         x="333.20966"
         y="398.28061"
         style="font-style:normal;font-variant:normal;font-weight:normal;font-stretch:normal;font-size:129.61447144px;line-height:75%;font-family:Blackout;-inkscape-font-specification:Blackout;text-align:center;text-anchor:middle;fill:#6cee7c;fill-opacity:1"
         id="tspan4233-8">Cali</tspan></text>
    <text
       xml:space="preserve"
       style="font-style:normal;font-variant:normal;font-weight:normal;font-stretch:normal;line-height:0%;font-family:'Futura Md BT';-inkscape-font-specification:'Futura Md BT';text-align:end;letter-spacing:0px;word-spacing:0px;text-anchor:end;fill:#61170b;fill-opacity:1;stroke:none"
       x="-327.0459"
       y="-244.14278"
       id="text3966-8-1-0"
       transform="matrix(0,-0.99039044,1.0097028,0,0,0)"
       inkscape:export-filename="G:\yesbrewnein_cmon_cali.png"
       inkscape:export-xdpi="189.45592"
       inkscape:export-ydpi="189.45592"><tspan
         sodipodi:role="line"
         x="-327.0459"
         y="-244.14278"
         id="tspan3970-2-1-2"
         style="font-weight:bold;font-size:11.61969948px;line-height:100%;-inkscape-font-specification:'Futura Md BT Bold';text-align:end;text-anchor:end;fill:#61170b;fill-opacity:1"> MHD. 01.2016</tspan></text>
    <text
       xml:space="preserve"
       style="font-style:normal;font-variant:normal;font-weight:normal;font-stretch:normal;line-height:0%;font-family:'Great Vibes';-inkscape-font-specification:'Great Vibes';text-align:start;letter-spacing:0px;word-spacing:0px;text-anchor:start;fill:#70ae5a;fill-opacity:1;stroke:#79170b;stroke-width:0.91024888;stroke-linecap:butt;stroke-linejoin:miter;stroke-miterlimit:4;stroke-dasharray:none;stroke-opacity:1"
       x="157.8364"
       y="594.74445"
       id="text8380-50-9"
       inkscape:export-xdpi="189.45592"
       inkscape:export-ydpi="189.45592"><tspan
         sodipodi:role="line"
         id="tspan8382-5-1"
         x="157.8364"
         y="594.74445"
         style="font-style:normal;font-variant:normal;font-weight:normal;font-stretch:normal;font-size:40.2781868px;line-height:1.30999994;font-family:Bebas;-inkscape-font-specification:Bebas;word-spacing:8.05563736px;fill:#70ae5a;fill-opacity:1;stroke:#79170b;stroke-width:0.91024888;stroke-miterlimit:4;stroke-dasharray:none;stroke-opacity:1">CALIFORNIA COMMON</tspan></text>
    <text
       xml:space="preserve"
       style="font-style:normal;font-variant:normal;font-weight:normal;font-stretch:normal;line-height:0%;font-family:'Great Vibes';-inkscape-font-specification:'Great Vibes';text-align:start;letter-spacing:0px;word-spacing:0px;text-anchor:start;fill:#79170b;fill-opacity:1;stroke:none;stroke-width:1px;stroke-linecap:butt;stroke-linejoin:miter;stroke-opacity:1"
       x="154.80223"
       y="592.78589"
       id="text8380-5-1-2"
       inkscape:export-xdpi="189.45592"
       inkscape:export-ydpi="189.45592"><tspan
         sodipodi:role="line"
         id="tspan8382-8-5-5"
         x="154.80223"
         y="592.78589"
         style="font-style:normal;font-variant:normal;font-weight:normal;font-stretch:normal;font-size:40.2781868px;line-height:1.30999994;font-family:Bebas;-inkscape-font-specification:Bebas;word-spacing:8.05563736px;fill:#79170b;fill-opacity:1;stroke:none;stroke-opacity:1">CALIFORNIA COMMON</tspan></text>
    <text
       xml:space="preserve"
       style="font-style:normal;font-variant:normal;font-weight:normal;font-stretch:normal;line-height:0%;font-family:Bebas;-inkscape-font-specification:'Bebas, Normal';text-align:end;letter-spacing:0px;word-spacing:0px;writing-mode:lr-tb;text-anchor:end;fill:#61170b;fill-opacity:1;stroke:none;stroke-width:1px;stroke-linecap:butt;stroke-linejoin:miter;stroke-opacity:1"
       x="144.27399"
       y="112.84998"
       id="text5258-8-0"
       inkscape:export-xdpi="189.45592"
       inkscape:export-ydpi="189.45592"><tspan
         sodipodi:role="line"
         x="144.27399"
         y="112.84998"
         style="font-style:normal;font-variant:normal;font-weight:normal;font-stretch:normal;font-size:14.99062538px;line-height:130.99999428%;font-family:Bebas;-inkscape-font-specification:'Bebas, Normal';text-align:start;writing-mode:lr-tb;text-anchor:start;fill:#61170b;fill-opacity:1"
         id="tspan5667">YESBREWNEIN</tspan><tspan
         sodipodi:role="line"
         x="144.27399"
         y="132.4877"
         style="font-style:normal;font-variant:normal;font-weight:normal;font-stretch:normal;font-size:14.99062538px;line-height:130.99999428%;font-family:Bebas;-inkscape-font-specification:'Bebas, Normal';text-align:start;writing-mode:lr-tb;text-anchor:start;fill:#61170b;fill-opacity:1"
         id="tspan5673">.GITHUB</tspan><tspan
         sodipodi:role="line"
         x="144.27399"
         y="152.12543"
         style="font-style:normal;font-variant:normal;font-weight:normal;font-stretch:normal;font-size:14.99062538px;line-height:130.99999428%;font-family:Bebas;-inkscape-font-specification:'Bebas, Normal';text-align:start;writing-mode:lr-tb;text-anchor:start;fill:#61170b;fill-opacity:1"
         id="tspan5675">.IO</tspan><tspan
         sodipodi:role="line"
         x="144.27399"
         y="171.76314"
         style="font-style:normal;font-variant:normal;font-weight:normal;font-stretch:normal;font-size:14.99062538px;line-height:130.99999428%;font-family:Bebas;-inkscape-font-specification:'Bebas, Normal';text-align:start;writing-mode:lr-tb;text-anchor:start;fill:#61170b;fill-opacity:1"
         id="tspan5665"> </tspan></text>
    <rect
       y="277.44824"
       x="709.76031"
       height="533"
       width="400"
       id="rect3971-3-3"
       style="color:#000000;display:inline;overflow:visible;visibility:visible;fill:#be2a17;fill-opacity:1;fill-rule:nonzero;stroke:none;stroke-width:0.85394961;marker:none;enable-background:accumulate"
       inkscape:export-filename="/home/max/yesbrewnein/react_website/src/images/cmon_cali.png"
       inkscape:export-xdpi="86.400002"
       inkscape:export-ydpi="86.400002" />
    <g
       id="g2271"
       transform="matrix(1.3811388,0,0,1.3811388,94.986681,-355.31071)"
       inkscape:export-filename="/home/max/yesbrewnein/react_website/src/images/cmon_cali.png"
       inkscape:export-xdpi="86.400002"
       inkscape:export-ydpi="86.400002">
      <ellipse
         ry="47.552769"
         rx="47.541656"
         transform="matrix(0.99988314,-0.01528766,-0.0152859,0.99988316,0,0)"
         inkscape:export-ydpi="126.22502"
         inkscape:export-xdpi="126.22502"
         inkscape:export-filename="C:\Users\Max\Pictures\caution_weka_front_back.png"
         cy="776.23785"
         cx="601.86469"
         id="path3398-6-6-2-9-7-3-0-7-0-4-2-2-9-3-7-8-5-8-6-4-4"
         style="color:#000000;clip-rule:nonzero;display:inline;overflow:visible;visibility:visible;opacity:1;isolation:auto;mix-blend-mode:normal;color-interpolation:sRGB;color-interpolation-filters:linearRGB;solid-color:#000000;solid-opacity:1;fill:#79170b;fill-opacity:1;fill-rule:nonzero;stroke:none;stroke-width:2.79184747;stroke-linecap:round;stroke-linejoin:round;stroke-miterlimit:4;stroke-dasharray:none;stroke-dashoffset:0;stroke-opacity:1;marker:none;color-rendering:auto;image-rendering:auto;shape-rendering:auto;text-rendering:auto;enable-background:accumulate" />
      <path
         inkscape:export-filename="C:\Users\Max\Pictures\caution_weka_front_back.png"
         inkscape:export-ydpi="126.22502"
         inkscape:export-xdpi="126.22502"
         sodipodi:nodetypes="cccccccccccscccccccccccccccccccsccsccsccscccccccccccccczcccccscccccccccccc"
         inkscape:connector-curvature="0"
         id="path2998-82-9-8-1-5-7-1-7-6-61-6-4-5-63-6-62-3-6-5-7-3-7-7-5-1-2-7-6-6-6"
         d="m 589.08335,725.37075 -0.0192,1.30549 0.22368,0.11531 0.0245,1.63221 c 0.15968,0.4064 0.41952,0.66208 0.75381,0.91243 v 0.24171 l -2.50549,3.02432 v 0.92928 c -0.50336,0.20768 -0.91008,0.52202 -1.03307,0.83754 l -0.064,4.23872 c 0.11531,0.42283 0.35147,0.79488 0.80032,1.02944 0.32469,1.28939 0.97259,2.0735 2.33077,2.0912 1.35819,0.016 2.27307,-0.93045 2.4528,-2.04629 0.72672,-0.41973 0.74496,-0.70432 0.82635,-1.08661 l 0.0629,-4.12054 c -0.14976,-0.63072 -0.45674,-0.73706 -0.83274,-0.94314 v -0.27392 c 0.45749,-0.43478 0.77856,-0.2704 1.12032,0.12266 l -0.0928,6.11755 c 0,0 -2.29387,2.83925 -3.4095,4.19424 l -0.0821,2.19253 -2.33067,0.0352 -0.13173,0.22347 0.28939,1.04149 c -0.43734,0.13323 -0.78987,0.52555 -0.79435,0.68363 0,0.18379 -0.0288,0.99925 0,1.16021 0.0192,0.16075 0.12875,0.47691 0.47765,0.71232 l -0.0149,0.6287 c -0.37472,0.24576 -0.39413,0.39136 -0.4432,0.54357 v 1.00437 l 0.12875,0.3472 c -0.67488,3.1568 -2.12907,5.14784 -5.59702,6.10624 -3.46816,0.95819 -6.78912,4.96107 -7.2785,7.20064 -0.48939,2.23958 -0.35094,35.43339 -0.33056,36.73547 0.0192,1.30261 2.01216,5.22901 7.01845,5.91883 4.86315,0.67008 8.42197,0.5521 8.62613,0.54496 0.0149,-4.3e-4 0.0768,0 0.0768,0 0.20374,0 3.76075,0.0149 8.6463,-0.80907 5.03008,-0.84309 7.14314,-4.83253 7.2032,-6.13589 0.0597,-1.30358 1.21365,-34.51712 0.79253,-36.74283 -0.42101,-2.2256 -3.62667,-6.12864 -7.06688,-6.98133 -3.44043,-0.8527 -4.83413,-2.80022 -5.41312,-5.93792 l 0.13931,-0.35126 0.032,-1.00469 c -0.0448,-0.15093 -0.0533,-0.29611 -0.42134,-0.53056 l 4.3e-4,-0.62848 c 0.35595,-0.24619 0.47968,-0.56576 0.50496,-0.72736 0.0256,-0.1616 0.0288,-0.97685 0.0277,-1.16064 0,-0.14827 -0.29514,-0.49173 -0.68842,-0.63392 l 0.2977,-1.06123 -0.14965,-0.23008 -2.23936,0.0181 0.0341,-1.65483 3.36427,-4.39627 0.0917,-6.56981 c -0.11104,-0.30037 -0.55285,-1.26155 -1.75797,-1.31637 -1.20555,-0.0555 -1.63744,0.74048 -1.73067,0.87562 l -0.0149,0.74123 c -0.45024,0.13035 -0.92,0.41397 -1.07179,0.91872 l -0.0821,4.2496 c 0.15029,0.64651 0.47307,0.73003 0.74763,0.9552 -0.27606,0.68661 -0.48139,0.78133 -0.9199,0.81973 -0.43861,0.0395 -0.8576,-0.2928 -0.92597,-0.8881 0.65728,-0.33643 0.72832,-0.55467 0.85632,-0.8832 l 0.0821,-4.31403 c -0.14069,-0.32448 -0.32885,-0.59968 -0.84693,-0.80331 v -0.48896 l 2.6064,-3.2945 v -0.46176 c 0.43115,-0.19531 0.6864,-0.53739 0.81877,-0.87211 l 0.0235,-1.53099 0.26688,-0.23509 0.0203,-1.3536 c -1.38571,-0.28021 -2.07456,-0.35424 -3.50144,0.0203 z"
         style="fill:#be2a17;fill-opacity:1;stroke:none;stroke-width:1.12964046;stroke-miterlimit:4;stroke-dasharray:none;stroke-opacity:1" />
      <g
         inkscape:export-ydpi="126.22502"
         inkscape:export-xdpi="126.22502"
         inkscape:export-filename="C:\Users\Max\Pictures\caution_weka_front_back.png"
         style="fill:#79170b;fill-opacity:1"
         transform="matrix(0.36566229,-0.00559077,-0.00559142,0.3657478,144.99971,1173.5215)"
         id="g6519-3-2-1-8-7-0-0-23-8-4-1-5-2">
        <text
           xml:space="preserve"
           style="font-style:normal;font-variant:normal;font-weight:300;font-stretch:normal;line-height:0%;font-family:'Open Sans';-inkscape-font-specification:'Open Sans Light';letter-spacing:0px;word-spacing:0px;fill:#79170b;fill-opacity:1;stroke:none;stroke-width:0.90395999px;stroke-linecap:butt;stroke-linejoin:miter;stroke-opacity:1"
           x="1161.3663"
           y="-1076.7251"
           id="text3336-9-9-1-2-9-5-7-6-2-5-1-6-2-8-9-4-5-6-3-2-8"
           inkscape:export-filename="/home/max/yesbrewnein_logo_new3.png"
           inkscape:export-xdpi="346.14999"
           inkscape:export-ydpi="346.14999"><tspan
             sodipodi:role="line"
             id="tspan3338-1-1-6-7-6-6-9-1-0-47-4-0-6-1-9-4-2-5-0-0-9"
             x="1161.3663"
             y="-1076.7251"
             style="font-style:normal;font-variant:normal;font-weight:bold;font-stretch:normal;font-size:28.01250076px;line-height:1.25;font-family:'Open Sans';-inkscape-font-specification:'Open Sans Bold';fill:#79170b;fill-opacity:1;stroke:none;stroke-width:0.90395999px;stroke-opacity:1">YES</tspan></text>
        <text
           xml:space="preserve"
           style="font-style:normal;font-variant:normal;font-weight:300;font-stretch:normal;line-height:0%;font-family:'Open Sans';-inkscape-font-specification:'Open Sans Light';letter-spacing:0px;word-spacing:0px;fill:#79170b;fill-opacity:1;stroke:none;stroke-width:0.90395999px;stroke-linecap:butt;stroke-linejoin:miter;stroke-opacity:1"
           x="1158.8492"
           y="-1052.8525"
           id="text3336-3-2-3-3-2-8-0-2-2-6-4-8-9-3-2-9-49-4-6-2-2-0"
           inkscape:export-filename="/home/max/yesbrewnein_logo_new3.png"
           inkscape:export-xdpi="346.14999"
           inkscape:export-ydpi="346.14999"><tspan
             sodipodi:role="line"
             id="tspan3338-6-7-4-9-2-57-9-3-9-1-4-0-1-0-3-4-5-7-2-8-9-8"
             x="1158.8492"
             y="-1052.8525"
             style="font-style:normal;font-variant:normal;font-weight:bold;font-stretch:normal;font-size:28.01641655px;line-height:1.25;font-family:'Open Sans';-inkscape-font-specification:'Open Sans Bold';fill:#79170b;fill-opacity:1;stroke:none;stroke-width:0.90395999px;stroke-opacity:1">BREW</tspan></text>
        <text
           xml:space="preserve"
           style="font-style:normal;font-variant:normal;font-weight:normal;font-stretch:normal;line-height:0%;font-family:'Open Sans';-inkscape-font-specification:'Open Sans';letter-spacing:0px;word-spacing:0px;fill:#79170b;fill-opacity:1;stroke:none;stroke-width:0.90395999px;stroke-linecap:butt;stroke-linejoin:miter;stroke-opacity:1"
           x="1158.8492"
           y="-1028.592"
           id="text3336-7-0-5-3-1-5-6-92-3-5-3-8-1-7-4-7-1-6-9-92-7-0"
           inkscape:export-filename="/home/max/yesbrewnein_logo_new3.png"
           inkscape:export-xdpi="346.14999"
           inkscape:export-ydpi="346.14999"><tspan
             sodipodi:role="line"
             id="tspan3338-5-9-8-3-0-9-2-2-1-5-0-4-6-6-3-1-7-3-0-3-8-9"
             x="1158.8492"
             y="-1028.592"
             style="font-style:normal;font-variant:normal;font-weight:bold;font-stretch:normal;font-size:28.01641655px;line-height:1.25;font-family:'Open Sans';-inkscape-font-specification:'Open Sans Bold';fill:#79170b;fill-opacity:1;stroke:none;stroke-width:0.90395999px;stroke-opacity:1">NEIN</tspan></text>
      </g>
    </g>
    <text
       xml:space="preserve"
       style="font-style:normal;font-variant:normal;font-weight:normal;font-stretch:normal;font-size:13.34270668px;line-height:0%;font-family:'Great Vibes';-inkscape-font-specification:'Great Vibes';text-align:center;letter-spacing:0px;word-spacing:0px;text-anchor:middle;opacity:0.7;fill:#6cee7c;fill-opacity:1;stroke:none;stroke-width:1.11189234"
       x="910.02576"
       y="679.15741"
       id="text3002-7-7"
       inkscape:export-filename="/home/max/yesbrewnein/react_website/src/images/cmon_cali.png"
       inkscape:export-xdpi="86.400002"
       inkscape:export-ydpi="86.400002"
       transform="skewY(-11.514306)"><tspan
         sodipodi:role="line"
         x="943.73468"
         y="679.15741"
         style="font-style:normal;font-variant:normal;font-weight:normal;font-stretch:normal;font-size:134.83560181px;line-height:75%;font-family:Blackout;-inkscape-font-specification:Blackout;text-align:center;text-anchor:middle;fill:#6cee7c;fill-opacity:1;stroke-width:1.11189234"
         id="tspan4229-8-8">C'mon, </tspan><tspan
         sodipodi:role="line"
         x="910.02576"
         y="786.08521"
         style="font-style:normal;font-variant:normal;font-weight:normal;font-stretch:normal;font-size:144.11734009px;line-height:75%;font-family:Blackout;-inkscape-font-specification:Blackout;text-align:center;text-anchor:middle;fill:#6cee7c;fill-opacity:1;stroke-width:1.11189234"
         id="tspan4233-8-4">Cali</tspan></text>
    <rect
       style="opacity:1;fill:#ffffff;fill-opacity:0;stroke:none;stroke-width:3.11932111;stroke-miterlimit:4;stroke-dasharray:none;stroke-dashoffset:0;stroke-opacity:1"
       id="rect2273"
       width="168.60117"
       height="168.60117"
       x="737.73456"
       y="410.16763"
       inkscape:export-filename="/home/max/yesbrewnein/react_website/src/images/cmon_cali_preview.png"
       inkscape:export-xdpi="204.98"
       inkscape:export-ydpi="204.98" />
  </g>
</svg>
