<?xml version="1.0" encoding="UTF-8" standalone="no"?>
<!-- Created with Inkscape (http://www.inkscape.org/) -->

<svg
   xmlns:dc="http://purl.org/dc/elements/1.1/"
   xmlns:cc="http://creativecommons.org/ns#"
   xmlns:rdf="http://www.w3.org/1999/02/22-rdf-syntax-ns#"
   xmlns:svg="http://www.w3.org/2000/svg"
   xmlns="http://www.w3.org/2000/svg"
   xmlns:sodipodi="http://sodipodi.sourceforge.net/DTD/sodipodi-0.dtd"
   xmlns:inkscape="http://www.inkscape.org/namespaces/inkscape"
   width="210mm"
   height="297mm"
   id="svg3146"
   version="1.1"
   inkscape:version="0.91 r13725"
   sodipodi:docname="come_on_cali.svg">
  <defs
     id="defs3148" />
  <sodipodi:namedview
     id="base"
     pagecolor="#ffffff"
     bordercolor="#666666"
     borderopacity="1.0"
     inkscape:pageopacity="0.0"
     inkscape:pageshadow="2"
     inkscape:zoom="0.98994949"
     inkscape:cx="514.79075"
     inkscape:cy="664.45544"
     inkscape:document-units="px"
     inkscape:current-layer="layer1"
     showgrid="false"
     inkscape:window-width="1920"
     inkscape:window-height="1018"
     inkscape:window-x="-8"
     inkscape:window-y="-8"
     inkscape:window-maximized="1" />
  <metadata
     id="metadata3151">
    <rdf:RDF>
      <cc:Work
         rdf:about="">
        <dc:format>image/svg+xml</dc:format>
        <dc:type
           rdf:resource="http://purl.org/dc/dcmitype/StillImage" />
        <dc:title />
      </cc:Work>
    </rdf:RDF>
  </metadata>
  <g
     inkscape:label="Ebene 1"
     inkscape:groupmode="layer"
     id="layer1">
    <rect
       y="-38.841953"
       x="-526.75415"
       height="533"
       width="400"
       id="rect3971"
       style="color:#000000;display:inline;overflow:visible;visibility:visible;fill:#be2a17;fill-opacity:1;fill-rule:nonzero;stroke:none;stroke-width:0.85394961;marker:none;enable-background:accumulate"
       inkscape:export-filename="G:\yesbrewnein_cmon_cali.png"
       inkscape:export-xdpi="189.45592"
       inkscape:export-ydpi="189.45592" />
    <text
       xml:space="preserve"
       style="font-style:normal;font-variant:normal;font-weight:normal;font-stretch:normal;font-size:38.2877655px;line-height:100%;font-family:'Futura Md BT';-inkscape-font-specification:'Futura Md BT';text-align:start;letter-spacing:0px;word-spacing:0px;text-anchor:start;fill:#61160b;fill-opacity:1;stroke:none"
       x="-414.04623"
       y="-158.41499"
       id="text3966-8"
       sodipodi:linespacing="100%"
       transform="matrix(0,-0.99039044,1.0097028,0,0,0)"
       inkscape:export-filename="G:\yesbrewnein_cmon_cali.png"
       inkscape:export-xdpi="189.45592"
       inkscape:export-ydpi="189.45592"><tspan
         sodipodi:role="line"
         id="tspan3968-8"
         x="-414.04623"
         y="-158.41499"
         style="font-size:40.22203827px;letter-spacing:0px;fill:#61160b;fill-opacity:1" /><tspan
         sodipodi:role="line"
         x="-414.04623"
         y="-141.16805"
         id="tspan3970-2"
         style="font-size:11.61969948px;line-height:100%;fill:#61160b;fill-opacity:1">Zutaten: Wasser, Gerstenmalz, Hopfen (Northern Brewer), Hefe      <tspan
   id="tspan3176"
   style="font-weight:bold;font-size:11.61969948px;-inkscape-font-specification:'Futura Md BT Bold';fill:#61160b;fill-opacity:1">Alc. 4,5% Vol.</tspan></tspan></text>
    <path
       style="fill:#79170b;fill-opacity:1;stroke:none"
       d="m -332.98103,61.431913 0,5.48225 0.94748,0.49634 0.20308,6.85845 c 0.69761,1.71708 1.80521,2.80777 3.22614,3.88043 l 0,1.01523 -10.33272,12.54374 0.0448,3.903 c -2.1015,0.83989 -3.7907,2.13507 -4.28646,3.45178 l 0,17.800377 c 0.51078,1.78427 1.52734,3.36299 3.42923,4.37677 1.44684,5.43721 4.21895,8.77299 9.9267,8.93403 5.70767,0.16103 9.49151,-3.76259 10.17483,-8.43769 3.02616,-1.71671 3.08449,-2.91052 3.40244,-4.51214 l 0,-17.304037 c -0.6691,-2.66007 -1.96607,-3.12583 -3.56033,-4.0158 l 0,-1.1506 c 1.89481,-1.79638 3.25473,-1.08629 4.71543,0.58658 l 0,25.691117 c 0,0 -9.45534,11.77947 -14.05563,17.39978 l -0.20301,9.20475 -9.79133,0 -0.53929,0.93015 1.28383,4.39418 c -1.82969,0.53102 -3.28563,2.15618 -3.29393,2.82008 -0.009,0.77196 -0.0505,4.19584 0.0455,4.87311 0.0961,0.67727 0.5725,2.01214 2.05298,3.02313 l 0,2.6396 c -1.55816,1.00906 -1.63028,1.61963 -1.82745,2.25607 l 0.0679,4.21884 0.56398,1.46645 c -2.63329,13.21713 -8.61494,21.48757 -23.12467,25.29052 -14.50973,3.80295 -28.20626,20.40385 -30.11854,29.7801 -1.91214,9.37625 0.80164,148.82053 0.97014,154.2925 0.16843,5.47198 8.79029,22.09386 29.87035,25.31309 20.47528,3.12687 35.42048,2.85981 36.27757,2.84264 0.0253,-5e-4 0.31585,0 0.31585,0 0.85702,0.0172 15.8023,0.28423 36.27758,-2.84264 21.07998,-3.21923 29.70184,-19.84111 29.87034,-25.31309 0.16843,-5.47197 2.88235,-144.91625 0.97007,-154.2925 -1.91206,-9.37625 -15.63134,-25.97715 -30.14107,-29.7801 -14.50966,-3.80295 -20.49145,-12.07339 -23.12466,-25.29052 l 0.56398,-1.46645 0.0679,-4.21884 c -0.19723,-0.63644 -0.24668,-1.24701 -1.80485,-2.25607 l -0.0224,-2.6396 c 1.48041,-1.01099 1.97942,-2.34586 2.07558,-3.02313 0.0961,-0.67727 0.0549,-4.10115 0.0448,-4.87311 -0.007,-0.62127 -1.27163,-2.08471 -2.93282,-2.70728 l 1.18233,-4.4393 -0.64087,-0.97526 -9.40784,-0.0676 0.0448,-6.94869 13.85226,-18.25158 -0.0224,-27.591717 c -0.48471,-1.26876 -2.40371,-5.33392 -7.47123,-5.642 -5.06746,-0.30808 -6.83181,3.0052 -7.21574,3.56642 l 0,3.11337 c -1.88311,0.518 -3.83871,1.67897 -4.44449,3.7902 l -0.0679,17.845497 c 0.67357,2.72602 2.03544,3.09752 3.20362,4.06092 -1.11663,2.86636 -1.97264,3.25047 -3.81272,3.3841 -1.84009,0.13365 -3.6217,-1.28459 -3.94816,-3.79019 2.74013,-1.37128 3.02537,-2.28356 3.54199,-3.65483 l 0.0679,-18.116227 c -0.60996,-1.3724 -1.41962,-2.54054 -3.6097,-3.42922 l 0,-2.05303 10.73888,-13.67177 0,-1.94022 c 1.79901,-0.79175 2.84979,-2.21186 3.3841,-3.60971 l 0,-6.42979 1.10551,-0.97012 0,-5.68529 c -5.83964,-1.26535 -8.7391,-1.62129 -14.70949,-0.1354 z"
       id="path2998-82-9-8-1-16"
       inkscape:connector-curvature="0"
       sodipodi:nodetypes="cccccccccccscccccccccccccccccccsccsccsccscccccccccccccczcccccscccccccccccc"
       inkscape:export-xdpi="189.45592"
       inkscape:export-ydpi="189.45592" />
    <text
       xml:space="preserve"
       style="font-style:normal;font-variant:normal;font-weight:normal;font-stretch:normal;font-size:83.0254364px;line-height:100.99999905%;font-family:'Futura Md BT';-inkscape-font-specification:'Futura Md BT';text-align:end;letter-spacing:0px;word-spacing:0px;text-anchor:end;fill:#bd2410;fill-opacity:1;stroke:none"
       x="-297.38412"
       y="290.60684"
       id="text3056-0-8"
       sodipodi:linespacing="101%"
       transform="scale(1.1022928,0.90719998)"
       inkscape:export-xdpi="189.45592"
       inkscape:export-ydpi="189.45592"><tspan
         sodipodi:role="line"
         id="tspan3058-9-5"
         x="-297.38412"
         y="290.60684"
         style="font-style:normal;font-variant:normal;font-weight:normal;font-stretch:normal;line-height:89.99999762%;font-family:'Amatic SC';-inkscape-font-specification:'Amatic SC';text-align:center;text-anchor:middle;fill:#bd2410;fill-opacity:1">YES</tspan><tspan
         sodipodi:role="line"
         x="-297.38412"
         y="360.55231"
         id="tspan3060-4-7"
         style="font-style:normal;font-variant:normal;font-weight:bold;font-stretch:normal;line-height:72.00000286%;font-family:Amatic;-inkscape-font-specification:'Amatic Bold';text-align:center;text-anchor:middle;fill:#bd2410;fill-opacity:1">BREW</tspan><tspan
         sodipodi:role="line"
         x="-297.38412"
         y="432.46878"
         id="tspan3062-8-6"
         style="font-style:normal;font-variant:normal;font-weight:normal;font-stretch:normal;line-height:100.99999905%;font-family:'Amatic SC';-inkscape-font-specification:'Amatic SC';text-align:center;text-anchor:middle;fill:#bd2410;fill-opacity:1">NEIN</tspan></text>
    <rect
       style="color:#000000;display:inline;overflow:visible;visibility:visible;fill:#84b45e;fill-opacity:1;fill-rule:nonzero;stroke:none;stroke-width:1.5;marker:none;enable-background:accumulate"
       id="rect3949"
       width="400.02039"
       height="2.5328157"
       x="-526.98187"
       y="429.86765"
       inkscape:export-filename="G:\yesbrewnein_cmon_cali.png"
       inkscape:export-xdpi="189.45592"
       inkscape:export-ydpi="189.45592" />
    <text
       xml:space="preserve"
       style="font-style:normal;font-variant:normal;font-weight:normal;font-stretch:normal;font-size:125.05532074px;line-height:75%;font-family:'Great Vibes';-inkscape-font-specification:'Great Vibes';text-align:center;letter-spacing:0px;word-spacing:0px;text-anchor:middle;opacity:0.7;fill:#6cee7c;fill-opacity:1;stroke:none"
       x="-326.51547"
       y="45.872059"
       id="text3002"
       sodipodi:linespacing="75%"
       inkscape:export-filename="G:\yesbrewnein_cmon_cali.png"
       inkscape:export-xdpi="189.45592"
       inkscape:export-ydpi="189.45592"
       transform="matrix(1,-0.20371234,0,1,0,0)"><tspan
         sodipodi:role="line"
         x="-296.19879"
         y="45.872059"
         style="font-style:normal;font-variant:normal;font-weight:normal;font-stretch:normal;font-size:121.26677704px;line-height:75%;font-family:Blackout;-inkscape-font-specification:Blackout;text-align:center;text-anchor:middle;fill:#6cee7c;fill-opacity:1"
         id="tspan4229">C'mon, </tspan><tspan
         sodipodi:role="line"
         x="-326.51547"
         y="141.51772"
         style="font-style:normal;font-variant:normal;font-weight:normal;font-stretch:normal;font-size:129.61447144px;line-height:75%;font-family:Blackout;-inkscape-font-specification:Blackout;text-align:center;text-anchor:middle;fill:#6cee7c;fill-opacity:1"
         id="tspan4233">Cali</tspan></text>
    <text
       xml:space="preserve"
       style="font-style:normal;font-variant:normal;font-weight:normal;font-stretch:normal;font-size:52.24704742px;line-height:125%;font-family:'Great Vibes';-inkscape-font-specification:'Great Vibes';text-align:start;letter-spacing:0px;word-spacing:0px;text-anchor:start;opacity:0.8;fill:#631309;fill-opacity:1;stroke:none"
       x="-465.57791"
       y="475.19382"
       id="text3008"
       sodipodi:linespacing="125%"
       inkscape:export-filename="G:\yesbrewnein_cmon_cali.png"
       inkscape:export-xdpi="189.45592"
       inkscape:export-ydpi="189.45592"><tspan
         sodipodi:role="line"
         id="tspan3010"
         x="-465.57791"
         y="475.19382"
         style="font-style:normal;font-variant:normal;font-weight:normal;font-stretch:normal;font-size:34.83136749px;font-family:'Legend M54';-inkscape-font-specification:'Legend M54';fill:#631309;fill-opacity:1">California Common</tspan></text>
    <text
       xml:space="preserve"
       style="font-style:normal;font-variant:normal;font-weight:normal;font-stretch:normal;font-size:38.2877655px;line-height:100%;font-family:'Futura Md BT';-inkscape-font-specification:'Futura Md BT';text-align:end;letter-spacing:0px;word-spacing:0px;text-anchor:end;fill:#61170b;fill-opacity:1;stroke:none"
       x="19.560438"
       y="-498.54239"
       id="text3966-8-1"
       sodipodi:linespacing="100%"
       transform="matrix(0,-0.99039044,1.0097028,0,0,0)"
       inkscape:export-filename="G:\yesbrewnein_cmon_cali.png"
       inkscape:export-xdpi="189.45592"
       inkscape:export-ydpi="189.45592"><tspan
         sodipodi:role="line"
         x="19.560434"
         y="-498.54239"
         id="tspan3970-2-1"
         style="font-weight:bold;font-size:11.61969948px;line-height:100%;-inkscape-font-specification:'Futura Md BT Bold';text-align:end;text-anchor:end;fill:#61170b;fill-opacity:1"> MHD. 01.2016</tspan></text>
    <flowRoot
       xml:space="preserve"
       id="flowRoot5682"
       style="fill:black;stroke:none;stroke-opacity:1;stroke-width:1px;stroke-linejoin:miter;stroke-linecap:butt;fill-opacity:1;font-family:Great Vibes;font-style:normal;font-weight:normal;font-size:50px;line-height:130.99999428%;letter-spacing:0px;word-spacing:0px;-inkscape-font-specification:Great Vibes;font-stretch:normal;font-variant:normal;text-anchor:start;text-align:start"><flowRegion
         id="flowRegion5684"><rect
           id="rect5686"
           width="302.54068"
           height="228.29448"
           x="584.8783"
           y="316.97116" /></flowRegion><flowPara
         id="flowPara5688"></flowPara></flowRoot>    <rect
       y="83.005051"
       x="132.97099"
       height="533"
       width="400"
       id="rect3971-3"
       style="color:#000000;display:inline;overflow:visible;visibility:visible;fill:#be2a17;fill-opacity:1;fill-rule:nonzero;stroke:none;stroke-width:0.85394961;marker:none;enable-background:accumulate"
       inkscape:export-filename="G:\yesbrewnein_cmon_cali.png"
       inkscape:export-xdpi="189.45592"
       inkscape:export-ydpi="189.45592" />
    <g
       id="g5690"
       transform="matrix(1.8157705,0,0,1.8157705,-1009.6672,-370.81555)"
       inkscape:export-xdpi="189.45592"
       inkscape:export-ydpi="189.45592">
      <circle
         inkscape:export-ydpi="119.11"
         inkscape:export-xdpi="119.11"
         r="80.554863"
         cy="423.03717"
         cx="739.43164"
         id="path4993-8-4-0-3-7"
         style="color:#000000;display:inline;overflow:visible;visibility:visible;opacity:1;fill:#79170b;fill-opacity:1;fill-rule:nonzero;stroke:none;stroke-width:1;stroke-linecap:butt;stroke-linejoin:miter;stroke-miterlimit:4;stroke-dasharray:none;stroke-dashoffset:0;stroke-opacity:1;marker:none;enable-background:accumulate" />
      <path
         inkscape:export-ydpi="119.11"
         inkscape:export-xdpi="119.11"
         sodipodi:nodetypes="cccccccccccscccccccccccccccccccsccsccsccscccccccccccccczcccccscccccccccccc"
         inkscape:connector-curvature="0"
         id="path2998-82-9-8-1-5-7-1-7-2"
         d="m 737.0509,356.24375 0,2.09615 0.36223,0.18976 0.0777,2.62232 c 0.2667,0.65653 0.69019,1.0735 1.2335,1.48367 l 0,0.38818 -3.95073,4.79611 0.0173,1.49227 c -0.80348,0.32116 -1.44933,0.81639 -1.63888,1.3198 l 0,6.80588 c 0.19524,0.68228 0.58397,1.28588 1.31113,1.6735 0.55316,2.07887 1.61313,3.35434 3.79545,3.41588 2.18232,0.0618 3.62909,-1.43858 3.8903,-3.22613 1.15703,-0.6564 1.17937,-1.11277 1.30093,-1.72518 l 0,-6.6162 c -0.2558,-1.01703 -0.75166,-1.1952 -1.36122,-1.53543 l 0,-0.43993 c 0.72439,-0.68679 1.24445,-0.41538 1.80288,0.2243 l 0,9.8229 c 0,0 -3.61527,4.50389 -5.3741,6.65284 l -0.0776,3.51939 -3.7437,0 -0.20619,0.35564 0.49086,1.68015 c -0.69955,0.203 -1.25625,0.82436 -1.25944,1.07822 -0.007,0.29514 -0.0194,1.60426 0.0173,1.86318 0.0368,0.25899 0.21889,0.76941 0.78496,1.15592 l 0,1.00926 c -0.59576,0.38582 -0.62337,0.61928 -0.69872,0.86259 l 0.0264,1.61307 0.21563,0.56072 c -1.00683,5.05357 -3.29392,8.21574 -8.84168,9.66978 -5.54776,1.45405 -10.78464,7.80141 -11.51575,11.38637 -0.73112,3.58502 0.30644,56.90128 0.3709,58.99348 0.0645,2.09219 3.36093,8.44753 11.42091,9.67838 7.82867,1.19561 13.54294,1.09349 13.87062,1.0869 0.01,-2.1e-4 0.12079,0 0.12079,0 0.32768,0.007 6.04195,0.10871 13.87069,-1.0869 8.05984,-1.23085 11.35639,-7.58619 11.42084,-9.67838 0.0645,-2.0922 1.10202,-55.40846 0.3709,-58.99348 -0.73111,-3.58496 -5.97666,-9.93232 -11.52435,-11.38637 -5.54777,-1.45404 -7.83485,-4.61621 -8.84175,-9.66978 l 0.2157,-0.56072 0.0257,-1.61307 c -0.0753,-0.24331 -0.0943,-0.47677 -0.69004,-0.86259 l -0.008,-1.00926 c 0.566,-0.38651 0.75686,-0.89693 0.79363,-1.15592 0.0368,-0.25892 0.0208,-1.56804 0.0173,-1.86318 -0.007,-0.23755 -0.48627,-0.79709 -1.12137,-1.03513 l 0.45207,-1.69729 -0.24504,-0.37299 -3.5971,-0.0257 0.0173,-2.6568 5.2964,-6.97843 -0.008,-10.54965 c -0.18531,-0.4851 -0.91907,-2.0394 -2.85662,-2.15721 -1.93755,-0.1178 -2.61212,1.14906 -2.75893,1.36365 l 0,1.19034 c -0.72001,0.19808 -1.46771,0.64196 -1.6993,1.44919 l -0.0257,6.82323 c 0.25754,1.04228 0.77823,1.1843 1.22489,1.5527 -0.42696,1.09592 -0.75422,1.24279 -1.4578,1.29385 -0.70357,0.0513 -1.38473,-0.49113 -1.50955,-1.44912 1.0477,-0.52437 1.15669,-0.8732 1.35421,-1.39743 l 0.0264,-6.92674 c -0.23318,-0.52472 -0.54275,-0.97138 -1.38016,-1.3112 l 0,-0.78496 4.106,-5.22737 0,-0.7418 c 0.68789,-0.30277 1.08966,-0.84573 1.29392,-1.38022 l 0,-2.45838 0.42272,-0.37091 0,-2.17378 c -2.23283,-0.48378 -3.34143,-0.6199 -5.62415,-0.052 z"
         style="fill:#be2a17;fill-opacity:1;stroke:none;stroke-width:1.20000005;stroke-miterlimit:4;stroke-dasharray:none;stroke-opacity:1" />
      <text
         inkscape:export-ydpi="119.11"
         inkscape:export-xdpi="119.11"
         transform="scale(1.1022928,0.90719998)"
         sodipodi:linespacing="52.999997%"
         id="text3056-0-7-4-4-6-8"
         y="458.52972"
         x="686.11682"
         style="font-style:normal;font-variant:normal;font-weight:normal;font-stretch:normal;font-size:19.48589516px;line-height:52.99999714%;font-family:'Futura Md BT';-inkscape-font-specification:'Futura Md BT';text-align:start;letter-spacing:0px;word-spacing:0px;text-anchor:start;fill:#79170b;fill-opacity:1;stroke:none;stroke-width:1;stroke-miterlimit:4;stroke-dasharray:none;stroke-opacity:1"
         xml:space="preserve"><tspan
           id="tspan4396-7-4"
           style="font-style:normal;font-variant:normal;font-weight:bold;font-stretch:normal;font-size:19.99998093px;line-height:52.99999714%;font-family:Amatic;-inkscape-font-specification:'Amatic Bold';text-align:start;letter-spacing:3.83800626px;word-spacing:0px;writing-mode:tb-rl;text-anchor:start;fill:#79170b;fill-opacity:1;stroke:none;stroke-width:1;stroke-miterlimit:4;stroke-dasharray:none;stroke-opacity:1"
           y="686.11682"
           x="458.52972"
           sodipodi:role="line"><tspan
   id="tspan4406-0-6"
   style="line-height:52.99999714%;letter-spacing:3.83800626px;fill:#79170b;fill-opacity:1;stroke:#000000;stroke-width:0.42644513;stroke-opacity:1"><tspan
     id="tspan4547-5"
     style="fill:#79170b;fill-opacity:1;stroke:none">S</tspan><tspan
     id="tspan5656"
     style="stroke:#79170b;stroke-opacity:1">W</tspan></tspan>N</tspan><tspan
           id="tspan4402-7-0"
           style="font-style:normal;font-variant:normal;font-weight:bold;font-stretch:normal;font-size:19.99998093px;line-height:52.99999714%;font-family:Amatic;-inkscape-font-specification:'Amatic Bold';text-align:start;letter-spacing:3.83800626px;word-spacing:0px;writing-mode:tb-rl;text-anchor:start;fill:#79170b;fill-opacity:1;stroke:none;stroke-width:1;stroke-miterlimit:4;stroke-dasharray:none;stroke-opacity:1"
           y="675.51685"
           x="458.52972"
           sodipodi:role="line"><tspan
   id="tspan4404-6-0"
   style="line-height:52.99999714%;letter-spacing:3.83800626px;fill:#79170b;fill-opacity:1;stroke:#000000;stroke-width:0.42644513;stroke-opacity:1"><tspan
     id="tspan4545-0"
     style="fill:#79170b;fill-opacity:1;stroke:none">E</tspan><tspan
     id="tspan5660"
     style="stroke:#79170b;stroke-opacity:1">E</tspan></tspan>I</tspan><tspan
           id="tspan4248-7-6-1"
           style="font-style:normal;font-variant:normal;font-weight:bold;font-stretch:normal;font-size:19.99998093px;line-height:52.99999714%;font-family:Amatic;-inkscape-font-specification:'Amatic Bold';text-align:start;letter-spacing:3.83800626px;word-spacing:0px;writing-mode:tb-rl;text-anchor:start;fill:#79170b;fill-opacity:1;stroke:none;stroke-width:1;stroke-miterlimit:4;stroke-dasharray:none;stroke-opacity:1"
           y="664.91687"
           x="458.52972"
           sodipodi:role="line"><tspan
   id="tspan4384-9-8"
   style="line-height:52.99999714%;letter-spacing:3.83800626px;fill:#79170b;fill-opacity:1;stroke:#000000;stroke-width:0.42644513;stroke-opacity:1"><tspan
     id="tspan4543-8"
     style="fill:#79170b;fill-opacity:1;stroke:none">Y</tspan><tspan
     id="tspan5664"
     style="stroke:#79170b;stroke-opacity:1">R</tspan></tspan>E</tspan><tspan
           id="tspan4250-6-1-2"
           style="font-style:normal;font-variant:normal;font-weight:bold;font-stretch:normal;font-size:19.99998093px;line-height:52.99999714%;font-family:Amatic;-inkscape-font-specification:'Amatic Bold';text-align:start;letter-spacing:3.83800626px;word-spacing:0px;writing-mode:tb-rl;text-anchor:start;fill:#79170b;fill-opacity:1;stroke:none;stroke-width:1;stroke-miterlimit:4;stroke-dasharray:none;stroke-opacity:1"
           y="654.31683"
           x="458.52972"
           sodipodi:role="line"><tspan
   id="tspan4386-93-7"
   style="line-height:52.99999714%;letter-spacing:3.83800626px;fill:#79170b;fill-opacity:1;stroke:#79170b;stroke-width:0.42644513;stroke-opacity:1"> B</tspan>N</tspan></text>
      <path
         inkscape:export-ydpi="119.11"
         inkscape:export-xdpi="119.11"
         sodipodi:nodetypes="cccccccccccscccccccccccccccccccsccsccsccscccccccccccccczcccccscccccccccccc"
         inkscape:connector-curvature="0"
         id="path2998-82-9-8-1-5-7-1-8-1-4"
         d="m 720.96847,420.21734 0,0.22465 0.0389,0.0208 0.008,0.28105 c 0.0284,0.0704 0.074,0.11504 0.13224,0.15902 l 0,0.0416 -0.42342,0.5141 0.007,0.15992 c -0.086,0.0347 -0.15527,0.0875 -0.1756,0.14146 l 0,0.72945 c 0.0208,0.0731 0.0624,0.13779 0.14056,0.17935 0.059,0.22284 0.17282,0.35952 0.40677,0.36611 0.23395,0.007 0.38894,-0.15423 0.41697,-0.34578 0.12398,-0.0704 0.12641,-0.11927 0.13938,-0.1849 l 0,-0.70912 c -0.0271,-0.109 -0.0805,-0.12808 -0.1459,-0.16457 l 0,-0.0472 c 0.0776,-0.0737 0.13341,-0.0444 0.19322,0.0236 l 0,1.05283 c 0,0 -0.38742,0.48267 -0.57592,0.71301 l -0.008,0.37714 -0.40122,0 -0.0222,0.0382 0.0527,0.18011 c -0.075,0.0215 -0.13466,0.0884 -0.13501,0.11559 0,0.0312 -0.007,0.17192 0.007,0.19967 0.007,0.0278 0.0236,0.0824 0.0842,0.12391 l 0,0.10816 c -0.0638,0.0416 -0.0666,0.0666 -0.0749,0.0924 l 0.007,0.17289 0.0229,0.0604 c -0.10782,0.54164 -0.353,0.88049 -0.94758,1.03638 -0.59458,0.15583 -1.15593,0.83609 -1.23425,1.22031 -0.0784,0.38429 0.0326,6.09857 0.0402,6.3228 0.007,0.2243 0.36014,0.90547 1.22405,1.03736 0.83907,0.12814 1.45148,0.11718 1.48666,0.11648 0,-7e-5 0.0132,0 0.0132,0 0.0347,0 0.64758,0.0118 1.48665,-0.11648 0.86391,-0.13189 1.21719,-0.81306 1.22406,-1.03736 0.007,-0.22423 0.11815,-5.93851 0.0402,-6.3228 -0.0783,-0.38422 -0.64051,-1.06448 -1.23509,-1.22031 -0.59465,-0.15589 -0.83976,-0.49474 -0.94765,-1.03638 l 0.0229,-0.0604 0.007,-0.17289 c -0.008,-0.0257 -0.01,-0.0514 -0.074,-0.0924 l 0,-0.10816 c 0.0604,-0.0416 0.0811,-0.0962 0.0851,-0.12391 0.007,-0.0277 0.007,-0.16804 0.007,-0.19967 0,-0.0257 -0.052,-0.0854 -0.12017,-0.11101 l 0.0486,-0.18191 -0.0264,-0.0402 -0.38554,-0.007 0.007,-0.28473 0.56766,-0.74791 0,-1.13074 c -0.0201,-0.052 -0.0985,-0.21854 -0.3061,-0.23117 -0.20772,-0.0125 -0.28008,0.12315 -0.29576,0.14611 l 0,0.12759 c -0.0771,0.0215 -0.15729,0.0687 -0.18212,0.15534 l -0.007,0.73132 c 0.0284,0.11164 0.0835,0.1269 0.13133,0.16638 -0.0458,0.11745 -0.0808,0.1332 -0.15624,0.13868 -0.0754,0.007 -0.1484,-0.0527 -0.16179,-0.15534 0.11232,-0.0562 0.12398,-0.0935 0.14521,-0.14972 l 0.007,-0.74242 c -0.025,-0.0562 -0.0583,-0.10407 -0.14799,-0.14049 l 0,-0.0842 0.44014,-0.56024 0,-0.0796 c 0.0737,-0.0326 0.1167,-0.0906 0.13862,-0.14784 l 0,-0.2635 0.0451,-0.0395 0,-0.23298 c -0.23929,-0.052 -0.35814,-0.0666 -0.60277,-0.007 z"
         style="fill:#79170b;fill-opacity:1;stroke:none;stroke-width:1.20000005;stroke-miterlimit:4;stroke-dasharray:none;stroke-opacity:1" />
      <text
         inkscape:export-ydpi="119.11"
         inkscape:export-xdpi="119.11"
         transform="scale(1.1022928,0.90719998)"
         sodipodi:linespacing="52.999997%"
         id="text3056-0-7-4-4-2-1"
         y="470.25964"
         x="655.93445"
         style="font-style:normal;font-variant:normal;font-weight:normal;font-stretch:normal;font-size:2.08846045px;line-height:52.99999714%;font-family:'Futura Md BT';-inkscape-font-specification:'Futura Md BT';text-align:start;letter-spacing:0px;word-spacing:0px;text-anchor:start;fill:#be2a17;fill-opacity:1;stroke:none;stroke-width:1;stroke-miterlimit:4;stroke-dasharray:none;stroke-opacity:1"
         xml:space="preserve"><tspan
           id="tspan4396-0-9"
           style="font-style:normal;font-variant:normal;font-weight:bold;font-stretch:normal;font-size:2.14355898px;line-height:52.99999714%;font-family:Amatic;-inkscape-font-specification:'Amatic Bold';text-align:start;letter-spacing:0.41135007px;word-spacing:0px;writing-mode:tb-rl;text-anchor:start;fill:#be2a17;fill-opacity:1;stroke:none;stroke-width:1;stroke-miterlimit:4;stroke-dasharray:none;stroke-opacity:1"
           y="655.93445"
           x="470.25964"
           sodipodi:role="line"><tspan
   id="tspan4406-3-9"
   style="line-height:52.99999714%;letter-spacing:0.41135007px;fill:#be2a17;fill-opacity:1;stroke:#ffffff;stroke-width:0.04570555;stroke-opacity:1"><tspan
     style="fill:#be2a17;fill-opacity:1;stroke:none"
     id="tspan4661">S</tspan><tspan
     id="tspan5217"
     style="fill:#be2a17;fill-opacity:1;stroke:#be2a17;stroke-width:0.04570555;stroke-opacity:1">W</tspan></tspan>N</tspan><tspan
           id="tspan4402-3-0"
           style="font-style:normal;font-variant:normal;font-weight:bold;font-stretch:normal;font-size:2.14355898px;line-height:52.99999714%;font-family:Amatic;-inkscape-font-specification:'Amatic Bold';text-align:start;letter-spacing:0.41135007px;word-spacing:0px;writing-mode:tb-rl;text-anchor:start;fill:#be2a17;fill-opacity:1;stroke:none;stroke-width:1;stroke-miterlimit:4;stroke-dasharray:none;stroke-opacity:1"
           y="654.79834"
           x="470.25964"
           sodipodi:role="line"><tspan
   id="tspan4404-7-4"
   style="line-height:52.99999714%;letter-spacing:0.41135007px;fill:#be2a17;fill-opacity:1;stroke:#ffffff;stroke-width:0.04570555;stroke-opacity:1"><tspan
     style="fill:#be2a17;fill-opacity:1;stroke:none"
     id="tspan4663">E</tspan><tspan
     id="tspan5209"
     style="fill:#be2a17;fill-opacity:1;stroke:#be2a17;stroke-width:0.04570555;stroke-opacity:1">E</tspan></tspan>I</tspan><tspan
           id="tspan4248-7-3-3"
           style="font-style:normal;font-variant:normal;font-weight:bold;font-stretch:normal;font-size:2.14355898px;line-height:52.99999714%;font-family:Amatic;-inkscape-font-specification:'Amatic Bold';text-align:start;letter-spacing:0.41135007px;word-spacing:0px;writing-mode:tb-rl;text-anchor:start;fill:#be2a17;fill-opacity:1;stroke:none;stroke-width:1;stroke-miterlimit:4;stroke-dasharray:none;stroke-opacity:1"
           y="653.66229"
           x="470.25964"
           sodipodi:role="line"><tspan
   id="tspan4384-1-6"
   style="line-height:52.99999714%;letter-spacing:0.41135007px;fill:#be2a17;fill-opacity:1;stroke:#ffffff;stroke-width:0.04570555;stroke-opacity:1"><tspan
     style="fill:#be2a17;fill-opacity:1;stroke:none"
     id="tspan4665">Y</tspan><tspan
     id="tspan5213"
     style="fill:#be2a17;fill-opacity:1;stroke:#be2a17;stroke-width:0.04570555;stroke-opacity:1">R</tspan></tspan>E</tspan><tspan
           id="tspan4250-6-9-2"
           style="font-style:normal;font-variant:normal;font-weight:bold;font-stretch:normal;font-size:2.14355898px;line-height:52.99999714%;font-family:Amatic;-inkscape-font-specification:'Amatic Bold';text-align:start;letter-spacing:0.41135007px;word-spacing:0px;writing-mode:tb-rl;text-anchor:start;fill:#be2a17;fill-opacity:1;stroke:none;stroke-width:1;stroke-miterlimit:4;stroke-dasharray:none;stroke-opacity:1"
           y="652.52618"
           x="470.25964"
           sodipodi:role="line"><tspan
   id="tspan4386-9-7"
   style="line-height:52.99999714%;letter-spacing:0.41135007px;fill:#be2a17;fill-opacity:1;stroke:#be2a17;stroke-width:0.04570555;stroke-opacity:1"> B</tspan>N</tspan></text>
      <path
         inkscape:export-ydpi="119.11"
         inkscape:export-xdpi="119.11"
         sodipodi:nodetypes="cccccccccccscccccccccccccccccccsccsccsccscccccccccccccczcccccscccccccccccc"
         inkscape:connector-curvature="0"
         id="path2998-82-9-8-1-5-7-1-7-4"
         d="m 719.23906,427.07408 0,0.0236 0.007,0 0.007,0.0298 c 0.007,0.008 0.008,0.0125 0.0139,0.0167 l 0,0.007 -0.0451,0.0548 0,0.0173 c -0.01,0.007 -0.0167,0.01 -0.018,0.0153 l 0,0.0774 c 0.007,0.008 0.007,0.0146 0.0153,0.0194 0.007,0.0236 0.018,0.0382 0.043,0.0389 0.025,0 0.0409,-0.016 0.0444,-0.0368 0.0132,-0.008 0.0139,-0.0125 0.0153,-0.0194 l 0,-0.0751 c -0.007,-0.0118 -0.009,-0.0139 -0.0153,-0.0174 l 0,-0.007 c 0.008,-0.008 0.0146,-0.007 0.0208,0.007 l 0,0.11156 c 0,0 -0.0409,0.0513 -0.0611,0.0756 l -0.007,0.0402 -0.0423,0 -0.007,0.007 0.007,0.0194 c -0.008,0 -0.0146,0.01 -0.0146,0.0125 0,0.007 0,0.018 0,0.0215 0,0.007 0.007,0.009 0.008,0.0132 l 0,0.0118 c -0.007,0.007 -0.007,0.007 -0.008,0.01 l 0,0.0187 0.007,0.007 c -0.0118,0.0576 -0.0375,0.0933 -0.10039,0.10975 -0.0631,0.0167 -0.12252,0.0886 -0.13078,0.12933 -0.008,0.0409 0.007,0.64626 0.007,0.67006 0.007,0.0236 0.0382,0.0959 0.12967,0.1099 0.0889,0.0139 0.15381,0.0125 0.15756,0.0125 0,0 0.007,0 0.007,0 0.007,7e-5 0.0687,0 0.15749,-0.0125 0.0916,-0.0139 0.12897,-0.0862 0.12974,-0.1099 0.007,-0.0236 0.0125,-0.62934 0.007,-0.67006 -0.008,-0.0402 -0.068,-0.11281 -0.13091,-0.12933 -0.0631,-0.0167 -0.089,-0.0527 -0.1004,-0.10975 l 0.007,-0.007 0,-0.0187 c -0.007,-0.007 -0.007,-0.007 -0.008,-0.01 l 0,-0.0118 c 0.007,-0.007 0.008,-0.0104 0.01,-0.0132 0,-0.007 0,-0.018 0,-0.0215 0,-0.007 -0.007,-0.009 -0.0132,-0.0118 l 0.007,-0.0194 -0.007,-0.007 -0.0402,-2.8e-4 0,-0.0305 0.0604,-0.0793 0,-0.11974 c -0.007,-0.007 -0.0104,-0.0229 -0.0326,-0.0243 -0.0215,0 -0.0298,0.0132 -0.0312,0.0153 l 0,0.0139 c -0.008,0 -0.0167,0.008 -0.0194,0.0166 l 0,0.0775 c 0.007,0.0118 0.009,0.0139 0.0139,0.0174 -0.007,0.0125 -0.008,0.0139 -0.0167,0.0153 -0.008,0 -0.016,-0.007 -0.0173,-0.0167 0.0118,-0.007 0.0132,-0.01 0.0153,-0.016 l 0,-0.0787 c -0.007,-0.007 -0.007,-0.0111 -0.016,-0.0153 l 0,-0.009 0.0465,-0.0597 0,-0.008 c 0.008,-0.007 0.0125,-0.01 0.0153,-0.016 l 0,-0.0277 0.007,-0.007 0,-0.025 c -0.0257,-0.007 -0.0382,-0.007 -0.0638,0 z"
         style="fill:#be2a17;fill-opacity:1;stroke:none;stroke-width:1.20000005;stroke-miterlimit:4;stroke-dasharray:none;stroke-opacity:1" />
    </g>
    <text
       xml:space="preserve"
       style="font-style:normal;font-variant:normal;font-weight:normal;font-stretch:normal;font-size:43.61554337px;line-height:100%;font-family:'Futura Md BT';-inkscape-font-specification:'Futura Md BT';text-align:start;letter-spacing:0px;word-spacing:0px;text-anchor:start;fill:#61160b;fill-opacity:1;stroke:none;stroke-width:0.40000001;stroke-miterlimit:4;stroke-dasharray:none"
       x="-541.72223"
       y="493.59958"
       id="text3966-8-9"
       sodipodi:linespacing="100%"
       transform="matrix(0,-0.99039044,1.0097028,0,0,0)"
       inkscape:export-filename="G:\yesbrewnein_cmon_cali.png"
       inkscape:export-xdpi="189.45592"
       inkscape:export-ydpi="189.45592"><tspan
         sodipodi:role="line"
         id="tspan3968-8-9"
         x="-541.72223"
         y="493.59958"
         style="font-size:45.81896973px;letter-spacing:0px;fill:#61160b;fill-opacity:1;stroke-width:0.40000001;stroke-miterlimit:4;stroke-dasharray:none" /><tspan
         sodipodi:role="line"
         x="-541.72223"
         y="514.07391"
         id="tspan3970-2-12"
         style="font-size:12.92357063px;line-height:100%;fill:#61160b;fill-opacity:1;stroke-width:0.40000001;stroke-miterlimit:4;stroke-dasharray:none"><tspan
           style="font-style:normal;font-variant:normal;font-weight:normal;font-stretch:normal;font-size:12.92357063px;font-family:Bebas;-inkscape-font-specification:Bebas;stroke-width:0.40000001;stroke-miterlimit:4;stroke-dasharray:none"
           id="tspan5964">Zutaten: Wasser, Gerstenmalz, Hopfen (Northern  Brewer), Hefe</tspan><tspan
           id="tspan3176-3"
           style="font-style:normal;font-variant:normal;font-weight:normal;font-stretch:normal;font-size:12.92357063px;font-family:Bebas;-inkscape-font-specification:Bebas;fill:#61160b;fill-opacity:1;stroke:#61160b;stroke-width:0.45566037;stroke-miterlimit:4;stroke-dasharray:none;stroke-opacity:1">      Alc. 4,5% Vol.</tspan></tspan></text>
    <text
       xml:space="preserve"
       style="font-style:normal;font-variant:normal;font-weight:normal;font-stretch:normal;font-size:125.05532074px;line-height:75%;font-family:'Great Vibes';-inkscape-font-specification:'Great Vibes';text-align:center;letter-spacing:0px;word-spacing:0px;text-anchor:middle;opacity:0.7;fill:#6cee7c;fill-opacity:1;stroke:none"
       x="333.20966"
       y="302.11322"
       id="text3002-7"
       sodipodi:linespacing="75%"
       inkscape:export-filename="G:\yesbrewnein_cmon_cali.png"
       inkscape:export-xdpi="189.45592"
       inkscape:export-ydpi="189.45592"
       transform="matrix(1,-0.20371234,0,1,0,0)"><tspan
         sodipodi:role="line"
         x="363.52634"
         y="302.11322"
         style="font-style:normal;font-variant:normal;font-weight:normal;font-stretch:normal;font-size:121.26677704px;line-height:75%;font-family:Blackout;-inkscape-font-specification:Blackout;text-align:center;text-anchor:middle;fill:#6cee7c;fill-opacity:1"
         id="tspan4229-8">C'mon, </tspan><tspan
         sodipodi:role="line"
         x="333.20966"
         y="397.75891"
         style="font-style:normal;font-variant:normal;font-weight:normal;font-stretch:normal;font-size:129.61447144px;line-height:75%;font-family:Blackout;-inkscape-font-specification:Blackout;text-align:center;text-anchor:middle;fill:#6cee7c;fill-opacity:1"
         id="tspan4233-8">Cali</tspan></text>
    <text
       xml:space="preserve"
       style="font-style:normal;font-variant:normal;font-weight:normal;font-stretch:normal;font-size:38.2877655px;line-height:100%;font-family:'Futura Md BT';-inkscape-font-specification:'Futura Md BT';text-align:end;letter-spacing:0px;word-spacing:0px;text-anchor:end;fill:#61170b;fill-opacity:1;stroke:none"
       x="-327.0459"
       y="-244.14278"
       id="text3966-8-1-0"
       sodipodi:linespacing="100%"
       transform="matrix(0,-0.99039044,1.0097028,0,0,0)"
       inkscape:export-filename="G:\yesbrewnein_cmon_cali.png"
       inkscape:export-xdpi="189.45592"
       inkscape:export-ydpi="189.45592"><tspan
         sodipodi:role="line"
         x="-327.0459"
         y="-244.14278"
         id="tspan3970-2-1-2"
         style="font-weight:bold;font-size:11.61969948px;line-height:100%;-inkscape-font-specification:'Futura Md BT Bold';text-align:end;text-anchor:end;fill:#61170b;fill-opacity:1"> MHD. 01.2016</tspan></text>
    <text
       xml:space="preserve"
       style="font-style:normal;font-variant:normal;font-weight:normal;font-stretch:normal;font-size:80.5563736px;line-height:130.99999428%;font-family:'Great Vibes';-inkscape-font-specification:'Great Vibes';text-align:start;letter-spacing:0px;word-spacing:0px;text-anchor:start;fill:#70ae5a;fill-opacity:1;stroke:#79170b;stroke-width:0.91024888;stroke-linecap:butt;stroke-linejoin:miter;stroke-miterlimit:4;stroke-dasharray:none;stroke-opacity:1;"
       x="157.8364"
       y="594.74445"
       id="text8380-50-9"
       sodipodi:linespacing="130.99999%"
       inkscape:export-xdpi="189.45592"
       inkscape:export-ydpi="189.45592"><tspan
         sodipodi:role="line"
         id="tspan8382-5-1"
         x="157.8364"
         y="594.74445"
         style="font-style:normal;font-variant:normal;font-weight:normal;font-stretch:normal;font-size:40.2781868px;font-family:Bebas;-inkscape-font-specification:Bebas;word-spacing:8.05563736px;fill:#70ae5a;fill-opacity:1;stroke:#79170b;stroke-width:0.91024888;stroke-miterlimit:4;stroke-dasharray:none;stroke-opacity:1;">CALIFORNIA COMMON</tspan></text>
    <text
       xml:space="preserve"
       style="font-style:normal;font-variant:normal;font-weight:normal;font-stretch:normal;font-size:80.5563736px;line-height:130.99999428%;font-family:'Great Vibes';-inkscape-font-specification:'Great Vibes';text-align:start;letter-spacing:0px;word-spacing:0px;text-anchor:start;fill:#79170b;fill-opacity:1;stroke:none;stroke-width:1px;stroke-linecap:butt;stroke-linejoin:miter;stroke-opacity:1"
       x="154.80223"
       y="592.78589"
       id="text8380-5-1-2"
       sodipodi:linespacing="130.99999%"
       inkscape:export-xdpi="189.45592"
       inkscape:export-ydpi="189.45592"><tspan
         sodipodi:role="line"
         id="tspan8382-8-5-5"
         x="154.80223"
         y="592.78589"
         style="font-style:normal;font-variant:normal;font-weight:normal;font-stretch:normal;font-size:40.2781868px;font-family:Bebas;-inkscape-font-specification:Bebas;word-spacing:8.05563736px;fill:#79170b;fill-opacity:1;stroke:none;stroke-opacity:1">CALIFORNIA COMMON</tspan></text>
    <g
       id="g5884"
       transform="matrix(1.2166289,0,0,1.2166289,2336.0474,-790.70878)">
      <circle
         inkscape:export-ydpi="252.15213"
         inkscape:export-xdpi="252.15213"
         r="16.438862"
         cy="1214.3035"
         cx="-1754.6411"
         id="path4993-8-4-0-3"
         style="color:#000000;display:inline;overflow:visible;visibility:visible;opacity:1;fill:#f9f9f9;fill-opacity:1;fill-rule:nonzero;stroke:#000000;stroke-width:0;stroke-linecap:butt;stroke-linejoin:miter;stroke-miterlimit:4;stroke-dasharray:none;stroke-dashoffset:0;stroke-opacity:1;marker:none;enable-background:accumulate" />
      <path
         inkscape:export-ydpi="252.15213"
         inkscape:export-xdpi="252.15213"
         sodipodi:nodetypes="cccccccccccscccccccccccccccccccsccsccsccscccccccccccccczcccccscccccccccccc"
         inkscape:connector-curvature="0"
         id="path2998-82-9-8-1-5-7-1-7"
         d="m -1755.127,1200.6729 0,0.4278 0.074,0.039 0.016,0.5351 c 0.054,0.134 0.1409,0.2191 0.2517,0.3028 l 0,0.079 -0.8062,0.9788 0,0.3045 c -0.164,0.065 -0.2958,0.1666 -0.3344,0.2693 l 0,1.3889 c 0.04,0.1392 0.1191,0.2624 0.2675,0.3415 0.1129,0.4243 0.3292,0.6845 0.7746,0.6971 0.4453,0.013 0.7405,-0.2936 0.7939,-0.6584 0.2361,-0.1339 0.2406,-0.227 0.2654,-0.352 l 0,-1.3502 c -0.052,-0.2075 -0.1534,-0.2439 -0.2778,-0.3133 l 0,-0.09 c 0.1479,-0.1402 0.254,-0.085 0.368,0.046 l 0,2.0045 c 0,0 -0.7378,0.9191 -1.0967,1.3577 l -0.016,0.7182 -0.7639,0 -0.042,0.073 0.1002,0.3428 c -0.1428,0.042 -0.2564,0.1683 -0.2571,0.2201 -8e-4,0.06 0,0.3273 0,0.3802 0.01,0.053 0.045,0.157 0.1602,0.2359 l 0,0.2059 c -0.1216,0.079 -0.1272,0.1264 -0.1426,0.1761 l 0.01,0.3291 0.044,0.1145 c -0.2055,1.0312 -0.6722,1.6766 -1.8043,1.9733 -1.1321,0.2967 -2.2008,1.592 -2.35,2.3236 -0.1492,0.7316 0.062,11.6119 0.076,12.0388 0.013,0.427 0.6858,1.7239 2.3306,1.9751 1.5976,0.244 2.7637,0.2231 2.8306,0.2218 0,0 0.025,0 0.025,0 0.067,0 1.233,0.022 2.8306,-0.2218 1.6448,-0.2512 2.3176,-1.5481 2.3307,-1.9751 0.013,-0.4269 0.2249,-11.3072 0.076,-12.0388 -0.1492,-0.7316 -1.2197,-2.0269 -2.3518,-2.3236 -1.1321,-0.2967 -1.5988,-0.9421 -1.8043,-1.9733 l 0.044,-0.1145 0.01,-0.3291 c -0.015,-0.05 -0.019,-0.097 -0.1408,-0.1761 l 0,-0.2059 c 0.1155,-0.079 0.1545,-0.1831 0.162,-0.2359 0.01,-0.053 0,-0.32 0,-0.3802 -10e-4,-0.048 -0.099,-0.1627 -0.2289,-0.2113 l 0.092,-0.3463 -0.05,-0.076 -0.7341,-0.01 0,-0.5421 1.0808,-1.4241 0,-2.1529 c -0.038,-0.099 -0.1876,-0.4162 -0.583,-0.4402 -0.3953,-0.024 -0.533,0.2345 -0.563,0.2782 l 0,0.243 c -0.1469,0.04 -0.2995,0.131 -0.3468,0.2957 l -0.01,1.3924 c 0.053,0.2127 0.1589,0.2417 0.25,0.3169 -0.087,0.2236 -0.1539,0.2536 -0.2975,0.264 -0.1436,0.01 -0.2826,-0.1002 -0.308,-0.2957 0.2138,-0.107 0.236,-0.1782 0.2763,-0.2852 l 0.01,-1.4135 c -0.048,-0.1071 -0.1107,-0.1982 -0.2816,-0.2676 l 0,-0.1602 0.8379,-1.0667 0,-0.1514 c 0.1404,-0.062 0.2223,-0.1726 0.264,-0.2817 l 0,-0.5017 0.086,-0.076 0,-0.4436 c -0.4557,-0.099 -0.6819,-0.1265 -1.1477,-0.01 z"
         style="fill:#c24400;fill-opacity:1;stroke:none;stroke-width:1.20000005;stroke-miterlimit:4;stroke-dasharray:none;stroke-opacity:1" />
      <text
         inkscape:export-ydpi="252.15213"
         inkscape:export-xdpi="252.15213"
         transform="scale(1.1022928,0.90719997)"
         sodipodi:linespacing="52.999997%"
         id="text3056-0-7-4-4-6"
         y="1336.9301"
         x="-1588.6871"
         style="font-style:normal;font-variant:normal;font-weight:normal;font-stretch:normal;font-size:3.97649407px;line-height:52.99999714%;font-family:'Futura Md BT';-inkscape-font-specification:'Futura Md BT';text-align:start;letter-spacing:0px;word-spacing:0px;text-anchor:start;fill:#ffffff;fill-opacity:1;stroke:none;stroke-width:1;stroke-miterlimit:4;stroke-dasharray:none;stroke-opacity:1"
         xml:space="preserve"><tspan
           id="tspan4396-7"
           style="font-style:normal;font-variant:normal;font-weight:bold;font-stretch:normal;font-size:4.08140373px;line-height:52.99999714%;font-family:Amatic;-inkscape-font-specification:'Amatic Bold';text-align:start;letter-spacing:0.78322345px;word-spacing:0px;writing-mode:tb-rl;text-anchor:start;fill:#ffffff;fill-opacity:1;stroke:none;stroke-width:1;stroke-miterlimit:4;stroke-dasharray:none;stroke-opacity:1"
           y="-1588.6871"
           x="1336.9301"
           sodipodi:role="line"><tspan
   id="tspan4406-0"
   style="line-height:52.99999714%;letter-spacing:0.78322345px;fill:#ffffff;stroke:#000000;stroke-width:0.08702482;stroke-opacity:1"><tspan
     id="tspan4547"
     style="fill:#ffffff;stroke:none">S</tspan><tspan
     id="tspan5677"
     style="stroke:#ffffff;stroke-opacity:1">W</tspan></tspan>N</tspan><tspan
           id="tspan4402-7"
           style="font-style:normal;font-variant:normal;font-weight:bold;font-stretch:normal;font-size:4.08140373px;line-height:52.99999714%;font-family:Amatic;-inkscape-font-specification:'Amatic Bold';text-align:start;letter-spacing:0.78322345px;word-spacing:0px;writing-mode:tb-rl;text-anchor:start;fill:#ffffff;fill-opacity:1;stroke:none;stroke-width:1;stroke-miterlimit:4;stroke-dasharray:none;stroke-opacity:1"
           y="-1590.8502"
           x="1336.9301"
           sodipodi:role="line"><tspan
   id="tspan4404-6"
   style="line-height:52.99999714%;letter-spacing:0.78322345px;fill:#ffffff;stroke:#000000;stroke-width:0.08702482;stroke-opacity:1"><tspan
     id="tspan4545"
     style="fill:#ffffff;stroke:none">E</tspan><tspan
     id="tspan5689"
     style="stroke:#ffffff;stroke-opacity:1">E</tspan></tspan>I</tspan><tspan
           id="tspan4248-7-6"
           style="font-style:normal;font-variant:normal;font-weight:bold;font-stretch:normal;font-size:4.08140373px;line-height:52.99999714%;font-family:Amatic;-inkscape-font-specification:'Amatic Bold';text-align:start;letter-spacing:0.78322345px;word-spacing:0px;writing-mode:tb-rl;text-anchor:start;fill:#ffffff;fill-opacity:1;stroke:none;stroke-width:1;stroke-miterlimit:4;stroke-dasharray:none;stroke-opacity:1"
           y="-1593.0134"
           x="1336.9301"
           sodipodi:role="line"><tspan
   id="tspan4384-9"
   style="line-height:52.99999714%;letter-spacing:0.78322345px;fill:#ffffff;stroke:#000000;stroke-width:0.08702482;stroke-opacity:1"><tspan
     id="tspan4543"
     style="fill:#ffffff;stroke:none">Y</tspan><tspan
     id="tspan5705"
     style="stroke:#ffffff;stroke-opacity:1">R</tspan></tspan>E</tspan><tspan
           id="tspan4250-6-1"
           style="font-style:normal;font-variant:normal;font-weight:bold;font-stretch:normal;font-size:4.08140373px;line-height:52.99999714%;font-family:Amatic;-inkscape-font-specification:'Amatic Bold';text-align:start;letter-spacing:0.78322345px;word-spacing:0px;writing-mode:tb-rl;text-anchor:start;fill:#ffffff;fill-opacity:1;stroke:none;stroke-width:1;stroke-miterlimit:4;stroke-dasharray:none;stroke-opacity:1"
           y="-1595.1765"
           x="1336.9301"
           sodipodi:role="line"><tspan
   id="tspan4386-93"
   style="line-height:52.99999714%;letter-spacing:0.78322345px;fill:#ffffff;stroke:#ffffff;stroke-width:0.08702482;stroke-opacity:1"> B</tspan>N</tspan></text>
      <path
         inkscape:export-ydpi="252.15213"
         inkscape:export-xdpi="252.15213"
         sodipodi:nodetypes="cccccccccccscccccccccccccccccccsccsccsccscccccccccccccczcccccscccccccccccc"
         inkscape:connector-curvature="0"
         id="path2998-82-9-8-1-5-7-1-8-1"
         d="m -1758.4089,1213.728 0,0.046 0.01,0 0,0.057 c 0.01,0.014 0.015,0.024 0.027,0.032 l 0,0.01 -0.086,0.1049 9e-4,0.033 c -0.018,0.01 -0.032,0.018 -0.036,0.029 l 0,0.1488 c 0,0.015 0.013,0.028 0.029,0.037 0.012,0.045 0.035,0.073 0.083,0.075 0.048,0 0.079,-0.032 0.085,-0.071 0.025,-0.014 0.026,-0.024 0.028,-0.038 l 0,-0.1447 c -0.01,-0.022 -0.016,-0.026 -0.03,-0.034 l 0,-0.01 c 0.016,-0.015 0.027,-0.01 0.039,0 l 0,0.2149 c 0,0 -0.079,0.099 -0.1176,0.1455 l 0,0.077 -0.082,0 0,0.01 0.011,0.037 c -0.015,0 -0.027,0.018 -0.027,0.024 0,0.01 -9e-4,0.035 8e-4,0.041 9e-4,0.01 0,0.017 0.017,0.025 l 0,0.022 c -0.013,0.01 -0.014,0.014 -0.015,0.019 l 9e-4,0.035 0,0.012 c -0.022,0.1106 -0.072,0.1797 -0.1934,0.2115 -0.1213,0.032 -0.2359,0.1707 -0.2519,0.2491 -0.016,0.078 0.01,1.2445 0.01,1.2903 0,0.046 0.074,0.1847 0.2498,0.2117 0.1713,0.026 0.2962,0.024 0.3034,0.024 0,0 0,0 0,0 0.01,0 0.1321,0 0.3034,-0.024 0.1763,-0.027 0.2484,-0.166 0.2498,-0.2117 0,-0.046 0.024,-1.2119 0.01,-1.2903 -0.016,-0.078 -0.1308,-0.2173 -0.2521,-0.2491 -0.1213,-0.032 -0.1714,-0.1009 -0.1934,-0.2115 l 0,-0.012 9e-4,-0.035 c 0,-0.01 0,-0.01 -0.015,-0.019 l 0,-0.022 c 0.012,-0.01 0.016,-0.02 0.017,-0.025 8e-4,-0.01 8e-4,-0.034 8e-4,-0.041 0,-0.01 -0.011,-0.017 -0.024,-0.023 l 0.01,-0.037 -0.01,-0.01 -0.079,-9e-4 9e-4,-0.058 0.1158,-0.1526 0,-0.2308 c 0,-0.011 -0.02,-0.045 -0.062,-0.047 -0.042,0 -0.057,0.025 -0.06,0.03 l 0,0.026 c -0.016,0 -0.032,0.014 -0.037,0.032 l -8e-4,0.1492 c 0.01,0.023 0.017,0.026 0.027,0.034 -0.01,0.024 -0.017,0.027 -0.032,0.028 -0.015,0 -0.03,-0.011 -0.033,-0.032 0.023,-0.011 0.025,-0.019 0.03,-0.031 l 9e-4,-0.1515 c -0.01,-0.011 -0.012,-0.021 -0.03,-0.029 l 0,-0.017 0.09,-0.1143 0,-0.016 c 0.015,-0.01 0.024,-0.019 0.028,-0.03 l 0,-0.054 0.01,-0.01 0,-0.048 c -0.049,-0.011 -0.073,-0.014 -0.123,0 z"
         style="fill:#ffffff;fill-opacity:1;stroke:none;stroke-width:1.20000005;stroke-miterlimit:4;stroke-dasharray:none;stroke-opacity:1" />
    </g>
    <text
       xml:space="preserve"
       style="font-style:normal;font-variant:normal;font-weight:normal;font-stretch:normal;font-size:38.2877655px;line-height:100%;font-family:'Futura Md BT';-inkscape-font-specification:'Futura Md BT';text-align:end;letter-spacing:0px;word-spacing:0px;text-anchor:end;fill:#61170b;fill-opacity:1;stroke:none"
       x="841.63959"
       y="167.84717"
       id="text3966-8-1-3"
       sodipodi:linespacing="100%"
       transform="scale(0.99039044,1.0097028)"
       inkscape:export-filename="G:\yesbrewnein_cmon_cali.png"
       inkscape:export-xdpi="189.45592"
       inkscape:export-ydpi="189.45592"><tspan
         sodipodi:role="line"
         x="841.63959"
         y="167.84717"
         id="tspan3970-2-1-5"
         style="font-style:normal;font-variant:normal;font-weight:normal;font-stretch:normal;font-size:12.92357063px;line-height:100%;font-family:Bebas;-inkscape-font-specification:Bebas;text-align:end;text-anchor:end;fill:#61170b;fill-opacity:1"> MHD. 01.2016</tspan></text>
    <text
       xml:space="preserve"
       style="font-style:normal;font-variant:normal;font-weight:normal;font-stretch:normal;font-size:11.40350914px;line-height:130.99999428%;font-family:Bebas;-inkscape-font-specification:'Bebas, Normal';text-align:end;letter-spacing:0px;word-spacing:0px;writing-mode:lr-tb;text-anchor:end;fill:#61170b;fill-opacity:1;stroke:none;stroke-width:1px;stroke-linecap:butt;stroke-linejoin:miter;stroke-opacity:1"
       x="144.27399"
       y="112.84998"
       id="text5258-8-0"
       sodipodi:linespacing="130.99999%"
       inkscape:export-xdpi="189.45592"
       inkscape:export-ydpi="189.45592"><tspan
         sodipodi:role="line"
         x="144.27399"
         y="112.84998"
         style="font-style:normal;font-variant:normal;font-weight:normal;font-stretch:normal;font-size:14.99062538px;line-height:130.99999428%;font-family:Bebas;-inkscape-font-specification:'Bebas, Normal';text-align:start;writing-mode:lr-tb;text-anchor:start;fill:#61170b;fill-opacity:1"
         id="tspan5667">YESBREWNEIN</tspan><tspan
         sodipodi:role="line"
         x="144.27399"
         y="132.48772"
         style="font-style:normal;font-variant:normal;font-weight:normal;font-stretch:normal;font-size:14.99062538px;line-height:130.99999428%;font-family:Bebas;-inkscape-font-specification:'Bebas, Normal';text-align:start;writing-mode:lr-tb;text-anchor:start;fill:#61170b;fill-opacity:1"
         id="tspan5673">.GITHUB</tspan><tspan
         sodipodi:role="line"
         x="144.27399"
         y="152.12543"
         style="font-style:normal;font-variant:normal;font-weight:normal;font-stretch:normal;font-size:14.99062538px;line-height:130.99999428%;font-family:Bebas;-inkscape-font-specification:'Bebas, Normal';text-align:start;writing-mode:lr-tb;text-anchor:start;fill:#61170b;fill-opacity:1"
         id="tspan5675">.IO</tspan><tspan
         sodipodi:role="line"
         x="144.27399"
         y="171.76315"
         style="font-style:normal;font-variant:normal;font-weight:normal;font-stretch:normal;font-size:14.99062538px;line-height:130.99999428%;font-family:Bebas;-inkscape-font-specification:'Bebas, Normal';text-align:start;writing-mode:lr-tb;text-anchor:start;fill:#61170b;fill-opacity:1"
         id="tspan5665" /></text>
  </g>
</svg>
