<?xml version="1.0" encoding="UTF-8" standalone="no"?>
<!-- Created with Inkscape (http://www.inkscape.org/) -->

<svg
   width="210mm"
   height="297mm"
   viewBox="0 0 210 297"
   version="1.1"
   id="svg1759"
   inkscape:version="1.2.1 (1:1.2.1+202210291244+9c6d41e410)"
   sodipodi:docname="noja_brewing_logo_clean.svg"
   xmlns:inkscape="http://www.inkscape.org/namespaces/inkscape"
   xmlns:sodipodi="http://sodipodi.sourceforge.net/DTD/sodipodi-0.dtd"
   xmlns="http://www.w3.org/2000/svg"
   xmlns:svg="http://www.w3.org/2000/svg">
  <sodipodi:namedview
     id="namedview1761"
     pagecolor="#ffffff"
     bordercolor="#666666"
     borderopacity="1.0"
     inkscape:showpageshadow="2"
     inkscape:pageopacity="0.0"
     inkscape:pagecheckerboard="0"
     inkscape:deskcolor="#d1d1d1"
     inkscape:document-units="mm"
     showgrid="false"
     inkscape:zoom="1.0116647"
     inkscape:cx="279.24273"
     inkscape:cy="454.20189"
     inkscape:window-width="1920"
     inkscape:window-height="982"
     inkscape:window-x="0"
     inkscape:window-y="25"
     inkscape:window-maximized="1"
     inkscape:current-layer="layer1" />
  <defs
     id="defs1756" />
  <g
     inkscape:label="Layer 1"
     inkscape:groupmode="layer"
     id="layer1">
    <circle
       style="color:#000000;clip-rule:nonzero;display:inline;overflow:visible;visibility:visible;isolation:auto;mix-blend-mode:normal;color-interpolation:sRGB;color-interpolation-filters:linearRGB;solid-color:#000000;solid-opacity:1;fill:#000000;fill-opacity:1;fill-rule:nonzero;stroke:none;stroke-width:0.338667;stroke-linecap:round;stroke-linejoin:round;stroke-miterlimit:4;stroke-dasharray:none;stroke-dashoffset:0;stroke-opacity:1;marker:none;color-rendering:auto;image-rendering:auto;shape-rendering:auto;text-rendering:auto;enable-background:accumulate"
       id="path3398-6-6-2-9-7-3-0-7-0-7-7-0-6-7-6-0-9-0-36"
       cx="106.20264"
       cy="130.44685"
       r="44.215488"
       inkscape:export-filename="../../noja_brewing_logo_2000px.png"
       inkscape:export-xdpi="574.45929"
       inkscape:export-ydpi="574.45929" />
    <g
       id="g1807"
       transform="matrix(0.28222223,0,0,0.28222223,815.18721,-231.10465)"
       inkscape:export-filename="/home/max/Pictures/no_ja_brewing_logo.png"
       inkscape:export-xdpi="143.61"
       inkscape:export-ydpi="143.61">
      <g
         id="g1798">
        <path
           inkscape:connector-curvature="0"
           id="path5853-5"
           style="font-style:normal;font-variant:normal;font-weight:normal;font-stretch:normal;font-size:103.178px;line-height:87%;font-family:Quicksand;-inkscape-font-specification:Quicksand;letter-spacing:0px;word-spacing:0px;fill:#ffffff;fill-opacity:1;stroke:none;stroke-width:2.27845px;stroke-linecap:butt;stroke-linejoin:miter;stroke-opacity:1"
           d="m -2523.8082,1281.337 c 0.115,0.2301 0.3452,0.3452 0.4601,0.4602 0.5752,0.6902 1.2655,1.0353 2.1858,1.0353 1.6105,0 2.8759,-1.2654 2.8759,-2.7609 v -74.1988 c 0,-1.4955 -1.2654,-2.7609 -2.8759,-2.7609 -1.4955,0 -2.7609,1.2654 -2.7609,2.7609 v 65.571 l -48.7758,-67.6416 c -0.8051,-1.2654 -2.6458,-1.4956 -3.9111,-0.6903 -1.0353,0.8053 -1.3805,1.9556 -1.0353,3.106 v 73.8537 c 0,1.4955 1.2653,2.7609 2.7608,2.7609 1.4956,0 2.7609,-1.2654 2.7609,-2.7609 v -65.9162 z" />
        <path
           inkscape:connector-curvature="0"
           id="path5855-6"
           style="font-style:normal;font-variant:normal;font-weight:normal;font-stretch:normal;font-size:103.178px;line-height:87%;font-family:Quicksand;-inkscape-font-specification:Quicksand;letter-spacing:0px;word-spacing:0px;fill:#ffffff;fill-opacity:1;stroke:none;stroke-width:2.27845px;stroke-linecap:butt;stroke-linejoin:miter;stroke-opacity:1"
           d="m -2523.9449,1243.4802 c 0.1151,22.5472 17.1406,40.8381 38.8825,40.8381 21.5121,0 38.4225,-18.2909 38.5375,-40.8381 -0.115,-22.5472 -17.0254,-40.838 -38.5375,-40.838 -21.7419,0 -38.7674,18.2908 -38.8825,40.838 z m 5.6369,0 c 0,-19.9014 14.9548,-35.0863 33.2456,-35.0863 17.7159,0 32.6706,15.1849 32.7857,35.0863 -0.1151,19.6713 -15.0698,35.2012 -32.7857,35.2012 -18.2908,0 -33.2456,-15.5299 -33.2456,-35.2012 z" />
        <path
           inkscape:connector-curvature="0"
           id="path5857-9"
           style="font-style:normal;font-variant:normal;font-weight:normal;font-stretch:normal;font-size:103.178px;line-height:87%;font-family:Quicksand;-inkscape-font-specification:Quicksand;letter-spacing:0px;word-spacing:0px;fill:#ffffff;fill-opacity:1;stroke:none;stroke-width:2.27845px;stroke-linecap:butt;stroke-linejoin:miter;stroke-opacity:1"
           d="m -2571.5484,1303.3106 c 3.451,10.9285 13.9194,18.8661 25.9983,18.8661 15.0698,0 27.2637,-12.079 27.2637,-27.2639 v -50.5011 c 0,-1.4955 -1.2653,-2.7609 -2.7608,-2.7609 -1.4955,0 -2.7609,1.2654 -2.7609,2.7609 v 50.5011 c 0,11.9639 -9.7782,21.627 -21.742,21.627 -9.6631,0.1151 -17.8308,-6.2119 -20.7066,-15.0698 -0.3452,-1.3805 -1.9558,-2.1857 -3.4512,-1.7255 -1.4955,0.4601 -2.3006,2.0706 -1.8405,3.5661 z" />
        <path
           inkscape:connector-curvature="0"
           id="path5859-12"
           style="font-style:normal;font-variant:normal;font-weight:normal;font-stretch:normal;font-size:103.178px;line-height:87%;font-family:Quicksand;-inkscape-font-specification:Quicksand;letter-spacing:0px;word-spacing:0px;fill:#ffffff;fill-opacity:1;stroke:none;stroke-width:2.27845px;stroke-linecap:butt;stroke-linejoin:miter;stroke-opacity:1"
           d="m -2459.7043,1320.3361 c 0.4601,1.1503 1.6104,1.8406 2.6458,1.8406 0.3451,0 0.5752,-0.1151 1.0354,-0.1151 1.3804,-0.5752 2.0706,-2.3008 1.4953,-3.6812 l -27.9539,-74.659 c -0.3452,-1.0353 -1.4955,-1.7255 -2.7609,-1.7255 -1.1504,0 -2.3008,0.6902 -2.7609,1.7255 l -27.954,74.659 c -0.5751,1.3804 0.2301,3.106 1.6106,3.6812 0.345,0 0.8052,0.1151 1.0353,0.1151 1.1503,0 2.1856,-0.6903 2.6459,-1.8406 l 7.1321,-18.9812 h 36.6969 z m -25.4233,-67.8719 16.2203,43.2539 h -32.5555 z" />
      </g>
      <text
         id="text5984-7"
         y="1358.8695"
         x="-2580.2732"
         style="font-style:italic;font-variant:normal;font-weight:normal;font-stretch:normal;font-size:30.4732px;line-height:125%;font-family:'Great Vibes';-inkscape-font-specification:'Great Vibes Italic';text-align:start;letter-spacing:0px;word-spacing:0px;text-anchor:start;fill:#000000;fill-opacity:1;stroke:#ffffff;stroke-width:1.32871;stroke-linecap:butt;stroke-linejoin:miter;stroke-miterlimit:4;stroke-dasharray:none;stroke-opacity:1"
         xml:space="preserve"><tspan
           dx="0 0 0 -5.6174831"
           style="font-style:normal;font-variant:normal;font-weight:normal;font-stretch:normal;font-size:30.4096px;font-family:Quicksand;-inkscape-font-specification:Quicksand;word-spacing:0px;fill:#ffffff;stroke:#ffffff;stroke-width:1.32871;stroke-miterlimit:4;stroke-dasharray:none;stroke-opacity:1"
           y="1358.8695"
           x="-2580.2732"
           id="tspan5982-0"
           sodipodi:role="line">BREWING</tspan></text>
    </g>
  </g>
</svg>
